<?xml version="1.0" encoding="UTF-8"?>
<svg width="78px" height="80px" viewBox="0 0 78 80" version="1.1" xmlns="http://www.w3.org/2000/svg" xmlns:xlink="http://www.w3.org/1999/xlink">
    <!-- Generator: Sketch 49.3 (51167) - http://www.bohemiancoding.com/sketch -->
    <title>Page 1</title>
    <desc>Created with Sketch.</desc>
    <defs></defs>
    <g id="Landing-page" stroke="none" stroke-width="1" fill="none" fill-rule="evenodd">
        <g id="Desktop-HD" transform="translate(-950.000000, -2566.000000)" fill="#251EC3">
            <g id="Page-1" transform="translate(950.000000, 2566.000000)">
                <path d="M63.2488966,23.8235172 C62.5985517,23.1731724 61.542,23.1731724 60.8923448,23.8235172 L35.4054483,49.3104138 L9.91993103,23.8235172 C9.26958621,23.1731724 8.21303448,23.1731724 7.56268966,23.8235172 C6.91303448,24.4731724 6.91303448,25.5304138 7.56268966,26.180069 L34.2288966,52.8462759 C34.5557931,53.1697241 34.9826897,53.3331724 35.4095862,53.3331724 C35.8357931,53.3331724 36.262,53.1697241 36.5826897,52.8462759 L63.2488966,26.180069 C63.8985517,25.5304138 63.8985517,24.4731724 63.2488966,23.8235172" id="Fill-1"></path>
                <path d="M62.0756552,23.3328966 C61.3956552,23.3328966 60.8122069,23.7397931 60.5528966,24.3232414 C58.7618621,25.3397931 49.4094483,26.666 35.4094483,26.666 C24.3894483,26.666 16.2528966,25.8425517 12.4128966,24.9997931 C16.2528966,24.1563448 24.3894483,23.3328966 35.4094483,23.3328966 C40.186,23.3328966 44.8591034,23.4928966 48.9294483,23.7956552 C49.8156552,23.8694483 50.646,23.1763448 50.7163448,22.2597931 C50.7825517,21.3391034 50.0928966,20.5425517 49.1756552,20.4728966 C45.026,20.1625517 40.266,19.9997931 35.4094483,19.9997931 C22.4832414,19.9997931 7.07634483,20.866 7.07634483,24.9997931 C7.07634483,29.1328966 22.4832414,29.9997931 35.4094483,29.9997931 C48.3356552,29.9997931 63.7425517,29.1328966 63.7425517,24.9997931 C63.7425517,24.0797931 62.9956552,23.3328966 62.0756552,23.3328966" id="Fill-3"></path>
                <path d="M35.4093793,76.6666207 C30.1624828,76.6666207 26.5224828,75.9169655 24.7693793,75.245931 C27.0224828,74.5631724 31.4928276,73.7893793 35.4093793,73.3466207 C39.3266207,73.7893793 43.7928276,74.5631724 46.0521379,75.245931 C44.2990345,75.9169655 40.6562759,76.6666207 35.4093793,76.6666207 M35.5928276,70.010069 C35.4686897,69.9962759 35.345931,69.9962759 35.2224828,70.010069 C20.4093793,71.6666207 20.4093793,73.7528276 20.4093793,74.9997241 C20.4093793,79.7597241 32.905931,79.9997241 35.4093793,79.9997241 C37.9128276,79.9997241 50.4093793,79.7597241 50.4093793,74.9997241 C50.4093793,73.7528276 50.4093793,71.6666207 35.5928276,70.010069" id="Fill-5"></path>
                <path d="M35.4093793,49.9997241 C34.4893793,49.9997241 33.7424828,50.7466207 33.7424828,51.6666207 L33.7424828,71.6666207 C33.7424828,72.5866207 34.4893793,73.3335172 35.4093793,73.3335172 C36.3293793,73.3335172 37.0755862,72.5866207 37.0755862,71.6666207 L37.0755862,51.6666207 C37.0755862,50.7466207 36.3293793,49.9997241 35.4093793,49.9997241" id="Fill-7"></path>
                <path d="M62.0756552,9.99972414 C53.806,9.99972414 47.0756552,16.7293793 47.0756552,24.9997241 C47.0756552,26.0831724 47.1922069,27.1666207 47.4225517,28.2204138 C47.6197931,29.1162759 48.5191034,29.6935172 49.4053103,29.4893793 C50.3087586,29.2969655 50.8784138,28.405931 50.6791034,27.5066207 C50.4991034,26.6866207 50.4087586,25.8438621 50.4087586,24.9997241 C50.4087586,18.5666207 55.6425517,13.3328276 62.0756552,13.3328276 C68.5094483,13.3328276 73.7425517,18.5666207 73.7425517,24.9997241 C73.7425517,31.4328276 68.5094483,36.6666207 62.0756552,36.6666207 C61.8294483,36.6666207 61.5825517,36.6597241 61.3391034,36.6466207 L63.7087586,25.3431724 C63.8956552,24.4438621 63.3218621,23.5604138 62.4191034,23.370069 C61.5356552,23.1804138 60.6356552,23.7569655 60.446,24.6604138 L57.7094483,37.7135172 C57.6156552,38.1431724 57.7025517,38.5962759 57.946,38.965931 C58.186,39.3362759 58.5618621,39.5935172 58.9956552,39.6831724 C60.006,39.8928276 61.0384138,39.9997241 62.0756552,39.9997241 C70.346,39.9997241 77.0756552,33.270069 77.0756552,24.9997241 C77.0756552,16.730069 70.346,9.99972414 62.0756552,9.99972414" id="Fill-9"></path>
                <path d="M5.19565517,17.5833103 L9.94255172,3.33296552 L26.5722069,3.33296552 L5.19565517,17.5833103 Z M33.6722069,1.18331034 C33.4591034,0.479862069 32.8122069,-0.000137931034 32.0763448,-0.000137931034 L8.74255172,-0.000137931034 C8.026,-0.000137931034 7.38875862,0.459862069 7.1597931,1.13641379 L0.492896552,21.1364138 C0.269448276,21.8129655 0.495655172,22.5571034 1.06255172,22.9895172 C1.36255172,23.2198621 1.7197931,23.3329655 2.07565517,23.3329655 C2.3997931,23.3329655 2.71910345,23.2398621 2.99910345,23.0529655 L32.9991034,3.05296552 C33.6128966,2.64675862 33.886,1.88675862 33.6722069,1.18331034 Z" id="Fill-11"></path>
                <path d="M28.8992414,27.0598621 L18.4323448,12.366069 C17.8992414,11.6136552 16.8592414,11.4433103 16.1095862,11.9764138 C15.3592414,12.5102069 15.1861379,13.5495172 15.719931,14.2998621 L26.1861379,28.9929655 C26.5088966,29.4502069 27.0226897,29.6936552 27.5426897,29.6936552 C27.8764828,29.6936552 28.2157931,29.5895172 28.5095862,29.3826207 C29.2557931,28.8495172 29.4323448,27.8095172 28.8992414,27.0598621" id="Fill-13"></path>
            </g>
        </g>
    </g>
</svg>