<?xml version="1.0" encoding="UTF-8"?>
<svg width="91px" height="80px" viewBox="0 0 91 80" version="1.1" xmlns="http://www.w3.org/2000/svg" xmlns:xlink="http://www.w3.org/1999/xlink">
    <!-- Generator: Sketch 49.3 (51167) - http://www.bohemiancoding.com/sketch -->
    <title>Page 1</title>
    <desc>Created with Sketch.</desc>
    <defs></defs>
    <g id="Landing-page" stroke="none" stroke-width="1" fill="none" fill-rule="evenodd">
        <g id="Desktop-HD" transform="translate(-675.000000, -2316.000000)" fill="#3333CC">
            <g id="Page-1" transform="translate(675.000000, 2316.000000)">
                <path d="M70.1454672,30.5217255 L17.0610879,30.5217255 C13.9247259,30.5217255 11.3728034,33.0723137 11.3728034,36.2072157 L11.3728034,39.9985882 C11.3728034,53.5240784 18.8473552,65.7923137 30.8750448,72.0134902 C31.8030879,72.4911373 32.9476483,72.1303529 33.4308897,71.1985882 C33.9078552,70.2691765 33.5477776,69.1248627 32.6150276,68.6432941 C21.8534931,63.0778039 15.1649931,52.102902 15.1649931,39.9985882 L15.1649931,36.2072157 C15.1649931,35.1609412 16.0145879,34.3115294 17.0610879,34.3115294 L70.1454672,34.3115294 C71.1919672,34.3115294 72.0415621,35.1609412 72.0415621,36.2072157 L72.0415621,39.9985882 C72.0415621,52.102902 65.3530621,63.0778039 54.5883897,68.6385882 C53.6556397,69.1201569 53.2955621,70.2660392 53.7725276,71.1938824 C54.1106397,71.8456471 54.7743121,72.2213333 55.45995,72.2213333 C55.7557,72.2213333 56.05145,72.153098 56.3283724,72.0087843 C68.3592,65.7923137 75.8337517,53.5287843 75.8337517,39.9985882 L75.8337517,36.2072157 C75.8337517,33.0723137 73.2810448,30.5217255 70.1454672,30.5217255" id="Fill-1"></path>
                <path d="M79.7240802,73.2374118 C77.934675,75.0264314 75.5490629,76.013098 73.0198905,76.013098 L14.1899595,76.013098 C11.6615716,76.013098 9.27674397,75.0264314 7.48733879,73.2374118 L6.47064914,72.2217255 L80.7399853,72.2217255 L79.7240802,73.2374118 Z M87.0684078,69.5989804 C86.7726578,68.8899608 86.0830974,68.4272157 85.3166578,68.4272157 L1.89711466,68.4272157 C1.13145948,68.4272157 0.441899138,68.8899608 0.146149138,69.5989804 C-0.150385345,70.3072157 0.0135715517,71.1221176 0.555649138,71.6640784 L4.80597672,75.9174118 C7.31632155,78.4232941 10.6448819,79.8036863 14.1899595,79.8036863 L73.0167526,79.8036863 C76.5618302,79.8036863 79.8943129,78.4240784 82.4085802,75.9174118 L86.6589078,71.6640784 C87.2017698,71.1221176 87.3633733,70.3072157 87.0684078,69.5989804 Z" id="Fill-3"></path>
                <path d="M87.3341905,39.4716863 C82.2256388,36.188549 74.0662336,39.7524706 73.1530957,40.1658039 C72.2007336,40.601098 71.7763284,41.723451 72.2117164,42.6787451 C72.6486733,43.6340392 73.7673457,44.0544314 74.7259836,43.6191373 C76.5538284,42.788549 82.4162681,40.8214902 85.2827681,42.6669804 C86.5755957,43.4975686 87.2078888,45.108549 87.2078888,47.5807059 C87.2078888,55.1705098 71.8979233,59.7571765 65.9860612,60.8873725 L64.6438112,61.1516863 C63.6161388,61.3532549 62.948544,62.3501176 63.150156,63.3775686 C63.3274491,64.2795294 64.1197767,64.9054118 65.0078112,64.9054118 C65.129406,64.9054118 65.2502164,64.8944314 65.3749491,64.8669804 L66.7062164,64.6058039 C67.700156,64.416 91.0000784,59.8473725 91.0000784,47.5807059 C91.0008629,43.7665882 89.7637336,41.041098 87.3341905,39.4716863" id="Fill-5"></path>
                <path d="M58.3644974,14.6443137 C61.4467302,10.7933333 61.4467302,4.76196078 58.3644974,0.910196078 C57.7086698,0.091372549 56.5217474,-0.0450980392 55.6996095,0.614509804 C54.8806095,1.27019608 54.7472474,2.46078431 55.403075,3.27960784 C57.3564371,5.7172549 57.3564371,9.8372549 55.3999371,12.2827451 C52.3129974,16.1352941 52.3129974,22.1658824 55.3999371,26.0176471 C55.7749198,26.4882353 56.3248422,26.7298039 56.881825,26.7298039 C57.2952474,26.7298039 57.7165147,26.5941176 58.064825,26.3133333 C58.8846095,25.6576471 59.0171871,24.4639216 58.3613595,23.6482353 C56.404075,21.2105882 56.404075,17.0905882 58.3644974,14.6443137" id="Fill-7"></path>
                <path d="M46.9741216,14.6443137 C50.0610612,10.7933333 50.0610612,4.76196078 46.9741216,0.910196078 C46.3222164,0.091372549 45.1282336,-0.0419607843 44.3092336,0.614509804 C43.4894491,1.27019608 43.3568716,2.46392157 44.0126991,3.27960784 C45.9691991,5.7172549 45.9691991,9.8372549 44.0095612,12.2827451 C40.926544,16.1352941 40.926544,22.1658824 44.0095612,26.0176471 C44.384544,26.4882353 44.9344664,26.7298039 45.4914491,26.7298039 C45.9048716,26.7298039 46.3222164,26.5941176 46.6744491,26.3133333 C47.4934491,25.6576471 47.6268112,24.4670588 46.9701991,23.6482353 C45.0176216,21.2105882 45.0176216,17.0905882 46.9741216,14.6443137" id="Fill-9"></path>
                <path d="M35.6139483,14.6487843 C38.696181,10.7970196 38.696181,4.76564706 35.6139483,0.913882353 C34.9620431,0.0950588235 33.7711983,-0.0414117647 32.9490603,0.618196078 C32.1331983,1.26996078 31.9998362,2.46447059 32.6525259,3.27937255 C34.6058879,5.71701961 34.6058879,9.83780392 32.6493879,12.2825098 C29.5624483,16.1350588 29.5624483,22.1664314 32.6493879,26.0181961 C33.0243707,26.488 33.5742931,26.7303529 34.1312759,26.7303529 C34.5446983,26.7303529 34.9659655,26.5938824 35.3142759,26.3170196 C36.1340603,25.6613333 36.2666379,24.4668235 35.6100259,23.6527059 C33.6535259,21.2111373 33.6535259,17.0934902 35.6139483,14.6487843" id="Fill-11"></path>
            </g>
        </g>
    </g>
</svg>