<?xml version="1.0" encoding="UTF-8"?>
<svg width="55px" height="55px" viewBox="0 0 55 55" version="1.1" xmlns="http://www.w3.org/2000/svg" xmlns:xlink="http://www.w3.org/1999/xlink">
    <!-- Generator: Sketch 49.3 (51167) - http://www.bohemiancoding.com/sketch -->
    <title>Page 1</title>
    <desc>Created with Sketch.</desc>
    <defs></defs>
    <g id="Landing-page" stroke="none" stroke-width="1" fill="none" fill-rule="evenodd">
        <g id="Desktop-HD" transform="translate(-634.000000, -3257.000000)">
            <g id="Page-1" transform="translate(636.000000, 3259.000000)">
                <path d="M50.9413793,25.6172414 C50.9413793,39.6035517 39.6035517,50.9413793 25.6172414,50.9413793 C11.630931,50.9413793 0.293103448,39.6035517 0.293103448,25.6172414 C0.293103448,11.630931 11.630931,0.293103448 25.6172414,0.293103448 C39.6035517,0.293103448 50.9413793,11.630931 50.9413793,25.6172414" id="Fill-1" fill="#30DD9D"></path>
                <path d="M50.9413793,25.6172414 C50.9413793,39.6035517 39.6035517,50.9413793 25.6172414,50.9413793 C11.630931,50.9413793 0.293103448,39.6035517 0.293103448,25.6172414 C0.293103448,11.630931 11.630931,0.293103448 25.6172414,0.293103448 C39.6035517,0.293103448 50.9413793,11.630931 50.9413793,25.6172414 Z" id="Stroke-3" stroke="#3333CC" stroke-width="2.93103456"></path>
                <path d="M31.2054345,12.0055172 C31.2054345,13.0243448 30.379469,13.8497241 29.3612276,13.8497241 C28.3424,13.8497241 27.5164345,13.0243448 27.5164345,12.0055172 C27.5164345,10.9866897 28.3424,10.1613103 29.3612276,10.1613103 C30.379469,10.1613103 31.2054345,10.9866897 31.2054345,12.0055172 Z" id="Stroke-5" stroke="#3333CC" stroke-width="2.93103456"></path>
                <path d="M13.5882759,29.9940966 C13.5882759,31.0129241 12.7623103,31.8383034 11.744069,31.8383034 C10.7252414,31.8383034 9.89927586,31.0129241 9.89927586,29.9940966 C9.89927586,28.975269 10.7252414,28.1498897 11.744069,28.1498897 C12.7623103,28.1498897 13.5882759,28.975269 13.5882759,29.9940966 Z" id="Stroke-7" stroke="#3333CC" stroke-width="2.93103456"></path>
                <path d="M18.6531034,14.537931 C18.6531034,15.9366207 17.5193793,17.0703448 16.1206897,17.0703448 C14.722,17.0703448 13.5882759,15.9366207 13.5882759,14.537931 C13.5882759,13.1392414 14.722,12.0055172 16.1206897,12.0055172 C17.5193793,12.0055172 18.6531034,13.1392414 18.6531034,14.537931 Z" id="Stroke-9" stroke="#3333CC" stroke-width="2.93103456"></path>
                <path d="M25.6172414,38.2793103 C25.6172414,39.678 24.4835172,40.8117241 23.0848276,40.8117241 C21.6861379,40.8117241 20.5524138,39.678 20.5524138,38.2793103 C20.5524138,36.8806207 21.6861379,35.7468966 23.0848276,35.7468966 C24.4835172,35.7468966 25.6172414,36.8806207 25.6172414,38.2793103 Z" id="Stroke-11" stroke="#3333CC" stroke-width="2.93103456"></path>
                <path d="M41.4137,24.3510345 C41.4137,25.7497241 40.2799759,26.8834483 38.8812862,26.8834483 C37.4825966,26.8834483 36.3488724,25.7497241 36.3488724,24.3510345 C36.3488724,22.9523448 37.4825966,21.8186207 38.8812862,21.8186207 C40.2799759,21.8186207 41.4137,22.9523448 41.4137,24.3510345 Z" id="Stroke-13" stroke="#3333CC" stroke-width="2.93103456"></path>
                <path d="M38.8812862,37.4351724 C38.8812862,38.8338621 37.7475621,39.9675862 36.3488724,39.9675862 C34.9501828,39.9675862 33.8164586,38.8338621 33.8164586,37.4351724 C33.8164586,36.0364828 34.9501828,34.9027586 36.3488724,34.9027586 C37.7475621,34.9027586 38.8812862,36.0364828 38.8812862,37.4351724 Z" id="Stroke-15" stroke="#3333CC" stroke-width="2.93103456"></path>
                <path d="M31.3151724,24.3510345 C31.3151724,26.449069 29.6145862,28.1496552 27.5165517,28.1496552 C25.4185172,28.1496552 23.717931,26.449069 23.717931,24.3510345 C23.717931,22.253 25.4185172,20.5524138 27.5165517,20.5524138 C29.6145862,20.5524138 31.3151724,22.253 31.3151724,24.3510345 Z" id="Stroke-17" stroke="#3333CC" stroke-width="2.93103456"></path>
            </g>
        </g>
    </g>
</svg>