<?xml version="1.0" encoding="UTF-8"?>
<svg width="20px" height="21px" viewBox="0 0 20 21" version="1.1" xmlns="http://www.w3.org/2000/svg" xmlns:xlink="http://www.w3.org/1999/xlink">
    <!-- Generator: Sketch 49.3 (51167) - http://www.bohemiancoding.com/sketch -->
    <title>Shape</title>
    <desc>Created with Sketch.</desc>
    <defs></defs>
    <g id="Landing-page" stroke="none" stroke-width="1" fill="none" fill-rule="evenodd">
        <g id="Desktop-HD" transform="translate(-1092.000000, -4822.000000)" fill="#251EC3" fill-rule="nonzero">
            <g id="footer" transform="translate(0.000000, 4755.000000)">
                <path d="M1112,77.5773676 C1112,72.0546225 1107.52271,67.5773676 1102,67.5773676 C1096.47725,67.5773676 1092,72.0546225 1092,77.5773676 C1092,83.10008 1096.47725,87.5773676 1102,87.5773676 C1107.52271,87.5773676 1112,83.10008 1112,77.5773676 Z M1099.31454,77.5773676 L1099.31454,75.6637402 L1100.48725,75.6637402 L1100.48725,74.5064526 C1100.48725,72.9455376 1100.95363,71.8209951 1102.66271,71.8209951 L1104.69542,71.8209951 L1104.69542,73.73008 L1103.26454,73.73008 C1102.54725,73.73008 1102.38451,74.2064526 1102.38451,74.7055376 L1102.38451,75.6637075 L1104.58997,75.6637075 L1104.28908,77.5773676 L1102.38458,77.5773676 L1102.38458,83.349165 L1100.48725,83.349165 L1100.48725,77.5773676 L1099.31454,77.5773676 Z" id="Shape"></path>
            </g>
        </g>
    </g>
</svg>