<?xml version="1.0" encoding="UTF-8"?>
<svg width="92px" height="80px" viewBox="0 0 92 80" version="1.1" xmlns="http://www.w3.org/2000/svg" xmlns:xlink="http://www.w3.org/1999/xlink">
    <!-- Generator: Sketch 49.3 (51167) - http://www.bohemiancoding.com/sketch -->
    <title>Page 1</title>
    <desc>Created with Sketch.</desc>
    <defs></defs>
    <g id="Landing-page" stroke="none" stroke-width="1" fill="none" fill-rule="evenodd">
        <g id="Desktop-HD" transform="translate(-407.000000, -2566.000000)" fill="#3333CC">
            <g id="Page-1" transform="translate(407.000000, 2566.000000)">
                <path d="M66.4909162,59.1570196 C66.4909162,60.0864314 65.7258222,60.8299608 64.8128991,60.8299608 L52.4188479,60.8299608 C51.487053,60.8299608 50.7416171,60.0676078 50.7416171,59.1570196 L50.7416171,49.6762353 C50.7416171,48.7468235 51.5059248,48.0032941 52.4188479,48.0032941 L64.8128991,48.0032941 C65.7454803,48.0032941 66.4909162,48.7648627 66.4909162,49.6762353 L66.4909162,59.1570196 Z M64.8128991,43.540549 L52.4188479,43.540549 C49.0274291,43.540549 46.2690017,46.2927059 46.2690017,49.6762353 L46.2690017,59.1570196 C46.2690017,62.540549 49.0274291,65.2919216 52.4188479,65.2919216 L64.8128991,65.2919216 C68.2051043,65.2919216 70.9635316,62.540549 70.9635316,59.1570196 L70.9635316,49.6762353 C70.9635316,46.2927059 68.2051043,43.540549 64.8128991,43.540549 Z" id="Fill-1"></path>
                <path d="M78.1395316,34.8964706 C73.9083179,34.8964706 70.3863692,31.8486275 69.6771043,27.8329412 L86.6192581,27.8329412 C85.892694,31.8298039 82.369959,34.8964706 78.1395316,34.8964706 Z M78.903053,75.2564706 L42.0558735,75.2564706 L42.0558735,51.1819608 C42.0558735,46.9803922 38.6267111,43.5411765 34.3970701,43.5411765 L27.8918051,43.5411765 C23.6802496,43.5411765 20.2314291,46.9623529 20.2314291,51.1819608 L20.2314291,75.2745098 L12.3107795,75.2745098 L12.3107795,39.3396078 C12.5718393,39.3592157 12.8328991,39.3592157 13.0931726,39.3592157 C17.6035316,39.3592157 21.5925573,37.0713725 23.9413094,33.5960784 C26.2884889,37.0713725 30.2767282,39.3592157 34.7870872,39.3592157 C39.2974462,39.3592157 43.2676,37.0713725 45.6344376,33.5960784 C47.9831897,37.0713725 51.9722154,39.3592157 56.4637026,39.3592157 C60.9740615,39.3592157 64.9434291,37.0713725 67.2921812,33.5960784 C69.6409333,37.0713725 73.6291726,39.3592157 78.1395316,39.3592157 C78.4005915,39.3592157 78.6419932,39.3396078 78.903053,39.3396078 L78.903053,75.2564706 Z M37.5832581,75.2564706 L24.7237026,75.2564706 L24.7237026,51.1819608 C24.7237026,49.4337255 26.1398735,48.0031373 27.9098906,48.0031373 L34.4151556,48.0031373 C36.1670872,48.0031373 37.6021299,49.4156863 37.6021299,51.1819608 L37.6021299,75.2564706 L37.5832581,75.2564706 Z M4.63231795,27.8141176 L21.5736855,27.8141176 C20.8652068,31.8298039 17.3243863,34.8784314 13.0931726,34.8784314 C8.8627453,34.8964706 5.34079658,31.8298039 4.63231795,27.8141176 Z M43.2495145,27.8141176 C42.5410359,31.8298039 39.0183009,34.8784314 34.7870872,34.8784314 C30.5574462,34.8784314 27.0339248,31.8298039 26.308147,27.8141176 L43.2495145,27.8141176 Z M64.9253436,27.8141176 C64.216865,31.8298039 60.6941299,34.8784314 56.4637026,34.8784314 C52.2324889,34.8784314 48.7097538,31.8298039 48.0020615,27.8141176 L64.9253436,27.8141176 Z M17.1002838,4.76235294 L74.1135487,4.76235294 L84.7187111,23.3709804 L6.51477949,23.3709804 L17.1002838,4.76235294 Z M91.2231897,26.3082353 C91.2231897,25.9176471 91.1296171,25.5458824 90.9251726,25.2117647 L77.3563521,1.41647059 C76.9647624,0.728627451 76.2201128,0.282352941 75.4188479,0.282352941 L15.7965573,0.282352941 C14.994506,0.282352941 14.2482838,0.709019608 13.8574803,1.41647059 L0.308317949,25.2117647 C0.121958974,25.5458824 0.00951452991,25.9176471 0.00951452991,26.3082353 C0.00951452991,31.6439216 3.23423248,36.2172549 7.83737778,38.2431373 L7.83737778,77.4870588 C7.83737778,78.7137255 8.8438735,79.7176471 10.0744718,79.7176471 L81.1393607,79.7176471 C82.369959,79.7176471 83.3756684,78.7137255 83.3756684,77.4870588 L83.3756684,38.5215686 C83.3756684,38.4290196 83.3756684,38.3552941 83.3575829,38.2807843 C87.9803863,36.2541176 91.2231897,31.6619608 91.2231897,26.3082353 Z" id="Fill-3"></path>
            </g>
        </g>
    </g>
</svg>