<?xml version="1.0" encoding="UTF-8"?>
<svg width="52px" height="73px" viewBox="0 0 52 73" version="1.1" xmlns="http://www.w3.org/2000/svg" xmlns:xlink="http://www.w3.org/1999/xlink">
    <!-- Generator: Sketch 49.3 (51167) - http://www.bohemiancoding.com/sketch -->
    <title>Page 1</title>
    <desc>Created with Sketch.</desc>
    <defs></defs>
    <g id="Landing-page" stroke="none" stroke-width="1" fill="none" fill-rule="evenodd">
        <g id="Desktop-HD" transform="translate(-957.000000, -3273.000000)">
            <g id="Page-1" transform="translate(958.000000, 3274.000000)">
                <path d="M42.6979208,12.8348944 L7.30188119,12.8348944 L7.30188119,3.48545775 C7.30188119,1.69700704 8.75831683,0.246725352 10.5543564,0.246725352 L39.4454455,0.246725352 C41.2414851,0.246725352 42.6979208,1.69700704 42.6979208,3.48545775 L42.6979208,12.8348944 Z" id="Fill-1" fill="#30DD9D"></path>
                <path d="M42.6979208,12.8348944 L7.30188119,12.8348944 L7.30188119,3.48545775 C7.30188119,1.69700704 8.75831683,0.246725352 10.5543564,0.246725352 L39.4454455,0.246725352 C41.2414851,0.246725352 42.6979208,1.69700704 42.6979208,3.48545775 L42.6979208,12.8348944 Z" id="Stroke-3" stroke="#3333CC" stroke-width="2.47524752"></path>
                <path d="M25.2474257,13.8208099 L5.30039604,13.8208099 L13.3523762,68.2926408 C13.3523762,69.1262324 18.6771287,69.9258099 25.2459406,69.9258099 C31.8147525,69.9258099 37.139505,69.0320775 37.139505,68.5391197 L37.1424752,68.5391197 L45.1944554,13.8208099 L25.2474257,13.8208099 Z" id="Fill-5" fill="#30DD9D"></path>
                <path d="M25.2474257,13.8208099 L5.30039604,13.8208099 L13.3523762,68.2926408 C13.3523762,69.1262324 18.6771287,69.9258099 25.2459406,69.9258099 C31.8147525,69.9258099 37.139505,69.0320775 37.139505,68.5391197 L37.1424752,68.5391197 L45.1944554,13.8208099 L25.2474257,13.8208099 Z" id="Stroke-7" stroke="#3333CC" stroke-width="2.47524752"></path>
                <path d="M47.029703,15.546162 L2.97029703,15.546162 C1.47277228,15.546162 0.247524752,14.3260915 0.247524752,12.8348944 C0.247524752,11.3436972 1.47277228,10.1236268 2.97029703,10.1236268 L47.029703,10.1236268 C48.5272277,10.1236268 49.7524752,11.3436972 49.7524752,12.8348944 C49.7524752,14.3260915 48.5272277,15.546162 47.029703,15.546162" id="Fill-9" fill="#30DD9D"></path>
                <path d="M47.029703,15.546162 L2.97029703,15.546162 C1.47277228,15.546162 0.247524752,14.3260915 0.247524752,12.8348944 C0.247524752,11.3436972 1.47277228,10.1236268 2.97029703,10.1236268 L47.029703,10.1236268 C48.5272277,10.1236268 49.7524752,11.3436972 49.7524752,12.8348944 C49.7524752,14.3260915 48.5272277,15.546162 47.029703,15.546162 Z" id="Stroke-11" stroke="#3333CC" stroke-width="2.47524752"></path>
                <polygon id="Fill-13" fill="#30DD9D" points="7.17811881 25.158838 43.3167327 25.158838 39.8954455 49.8067254 10.6434653 49.8067254"></polygon>
                <polygon id="Stroke-15" stroke="#3333CC" stroke-width="2.47524752" points="7.17811881 25.158838 43.3167327 25.158838 39.8954455 49.8067254 10.6434653 49.8067254"></polygon>
            </g>
        </g>
    </g>
</svg>