<?xml version="1.0" encoding="UTF-8"?>
<svg width="160px" height="28px" viewBox="0 0 160 28" version="1.1" xmlns="http://www.w3.org/2000/svg" xmlns:xlink="http://www.w3.org/1999/xlink">
    <!-- Generator: Sketch 49.3 (51167) - http://www.bohemiancoding.com/sketch -->
    <title>Page 1</title>
    <desc>Created with Sketch.</desc>
    <defs>
        <polygon id="path-1" points="0.0200792195 0.133752066 19.2057214 0.133752066 19.2057214 27.768595 0.0200792195 27.768595"></polygon>
    </defs>
    <g id="Landing-page" stroke="none" stroke-width="1" fill="none" fill-rule="evenodd">
        <g id="Desktop-HD" transform="translate(-220.000000, -64.000000)">
            <g id="Page-1" transform="translate(220.000000, 64.000000)">
                <path d="M43.2215581,13.504562 L46.6529535,13.5415868 C47.9759767,13.5170579 49.0022558,13.0093554 49.7320233,12.0189421 C50.4615581,11.0285289 50.8078372,9.69633058 50.7706279,8.02304132 C50.7457442,7.17401653 50.5417907,6.49738843 50.1587674,5.99269421 C49.7752791,5.48846281 49.2434186,5.21147107 48.5634186,5.16218182 L44.686907,5.12538843 L43.2215581,13.504562 Z M42.4424884,18.0264463 L40.7915581,27.4760992 L35.4683023,27.4760992 L40.1424884,0.603504132 L48.8045814,0.622016529 C51.1664419,0.695603306 53.0180698,1.5353719 54.3599302,3.14132231 C55.7015581,4.74704132 56.2671395,6.81719008 56.0571395,9.3517686 C55.8094651,11.985157 54.8080698,14.0923306 53.0522558,15.6732893 C51.2962093,17.2544793 49.0578372,18.0449587 46.3376047,18.0449587 L42.4424884,18.0264463 Z" id="Fill-1" fill="#273B55"></path>
                <polygon id="Fill-3" fill="#273B55" points="60.8680465 27.4761917 55.5445581 27.4761917 60.2373488 0.603365289 65.5608372 0.603365289"></polygon>
                <g id="Group-7" transform="translate(64.883721, 0.097653)">
                    <mask id="mask-2" fill="white">
                        <use xlink:href="#path-1"></use>
                    </mask>
                    <g id="Clip-6"></g>
                    <path d="M11.7387674,20.1804793 C11.8622558,19.2701322 11.7294651,18.5101983 11.3399302,17.9011405 C10.9503953,17.2920826 10.1403953,16.6952893 8.91016279,16.1107603 C7.67946512,15.5264628 6.65016279,14.9204132 5.8217907,14.292843 C3.559,12.5827603 2.52016279,10.4232893 2.70574419,7.81466116 C2.81690698,6.31353719 3.28993023,4.97532231 4.1245814,3.80024793 C4.95923256,2.62540496 6.07504651,1.71181818 7.47272093,1.0594876 C8.86993023,0.40738843 10.3662093,0.0998512397 11.9613256,0.136644628 C14.2734186,0.185933884 16.0820233,0.982892562 17.386907,2.52682645 C18.6913256,4.07099174 19.2941163,6.04904132 19.1952791,8.4607438 L13.8903953,8.442 C14.0262093,5.91991736 13.2164419,4.64001653 11.4606279,4.60322314 C10.5578372,4.57869421 9.7817907,4.87072727 9.13272093,5.47978512 C8.4834186,6.08884298 8.09086047,6.87330579 7.95481395,7.83317355 C7.76946512,9.2727438 8.77109302,10.503124 10.9596977,11.524314 C13.1485349,12.5457355 14.7187674,13.696281 15.671093,14.975719 C16.7343488,16.3909917 17.1857442,18.1133388 17.0250465,20.1434545 C16.8396977,22.4815702 15.9122558,24.3487769 14.2429535,25.7450744 C12.5734186,27.1418347 10.4896977,27.8152231 7.99202326,27.7661653 C5.48155814,27.716876 3.49690698,26.8680826 2.03783721,25.2190909 C0.578767442,23.5703306 -0.0891395349,21.4603802 0.0345813953,18.8885455 L5.37667442,18.9070579 C5.27760465,20.4942645 5.48481395,21.6293058 5.99806977,22.3121818 C6.51109302,22.9950579 7.31783721,23.3366116 8.41853488,23.3366116 C9.38318605,23.3243471 10.1436512,23.0258347 10.7001628,22.4415372 C11.2564419,21.8572397 11.6027209,21.1033223 11.7387674,20.1804793" id="Fill-5" fill="#273B55" mask="url(#mask-2)"></path>
                </g>
                <polygon id="Fill-8" fill="#273B55" points="103.858581 5.12527273 97.385093 5.12527273 93.4899767 27.4762149 88.1478837 27.4762149 92.043 5.12527273 85.6625349 5.12527273 86.4602093 0.60338843 104.656256 0.60338843"></polygon>
                <path d="M117.127581,11.9172628 C117.275953,10.6500893 117.35014,9.6719405 117.35014,8.98258512 C117.288047,6.23904793 116.29293,4.83002314 114.36386,4.75620496 C112.879907,4.69488264 111.683628,5.25164298 110.774791,6.42648595 C109.865721,7.60179174 109.232,9.44400661 108.873628,11.9542876 L108.224326,16.4761719 C108.075953,17.6942876 108.020372,18.6479074 108.057349,19.3368 C108.119209,21.9206678 109.139209,23.2561058 111.117814,23.341957 C112.527581,23.3912463 113.683628,22.874519 114.586419,21.7915438 C115.488977,20.7090314 116.119674,18.9371636 116.478279,16.4761719 L117.127581,11.9172628 Z M110.691302,27.8453289 C108.316884,27.7960397 106.434558,27.0212959 105.043163,25.5197091 C103.652233,24.0188165 102.894558,21.9331636 102.77107,19.2629818 C102.721535,18.3401388 102.758512,17.4052628 102.882233,16.4576595 L103.568512,11.991081 C103.927116,9.60413884 104.625721,7.48770909 105.664558,5.64202314 C106.703395,3.79633719 107.995256,2.4245686 109.541302,1.52625455 C111.086651,0.628171901 112.830372,0.197527273 114.772,0.234320661 C117.170837,0.283609917 119.053395,1.09884959 120.419907,2.67980826 C121.786186,4.26099835 122.518977,6.42370909 122.617814,9.16724628 C122.642698,10.2009322 122.587116,11.179081 122.45107,12.101924 L121.838977,16.2176926 C121.282465,19.9090645 120.030372,22.7854281 118.082698,24.8460893 C116.135256,26.9072132 113.671302,27.9068826 110.691302,27.8453289 Z" id="Fill-10" fill="#273B55"></path>
                <path d="M120.862814,24.9291636 C120.862814,24.0681058 121.147233,23.3512132 121.71607,22.7789488 C122.284674,22.2069157 122.995837,21.9208992 123.849093,21.9208992 C124.702349,21.9208992 125.407233,22.1884033 125.963744,22.723643 C126.520023,23.2588826 126.798163,23.9204694 126.798163,24.7077091 C126.798163,25.5937587 126.501419,26.3134281 125.90793,26.8671802 C125.314442,27.4209322 124.609558,27.6976926 123.793512,27.6976926 C122.927698,27.6976926 122.229093,27.4331967 121.697465,26.9039736 C121.165837,26.3752132 120.887233,25.7168661 120.862814,24.9291636" id="Fill-12" fill="#273B55"></path>
                <polygon id="Fill-14" fill="#273B55" points="135.393163 27.4761917 130.069674 27.4761917 134.762465 0.603365289 140.086186 0.603365289"></polygon>
                <path d="M154.46793,11.9172628 C154.616302,10.6500893 154.690488,9.6719405 154.690488,8.98258512 C154.628395,6.23904793 153.633279,4.83002314 151.704209,4.75620496 C150.220256,4.69488264 149.023977,5.25164298 148.11514,6.42648595 C147.20607,7.60179174 146.572349,9.44400661 146.213977,11.9542876 L145.564674,16.4761719 C145.416302,17.6942876 145.360721,18.6479074 145.397698,19.3368 C145.459558,21.9206678 146.479558,23.2561058 148.458163,23.341957 C149.86793,23.3912463 151.023977,22.874519 151.926767,21.7915438 C152.829326,20.7090314 153.460023,18.9371636 153.818628,16.4761719 L154.46793,11.9172628 Z M148.031651,27.8453289 C145.657233,27.7960397 143.774907,27.0212959 142.383512,25.5197091 C140.992581,24.0188165 140.234907,21.9331636 140.111419,19.2629818 C140.061884,18.3401388 140.09886,17.4052628 140.222581,16.4576595 L140.90886,11.991081 C141.267465,9.60413884 141.96607,7.48770909 143.004907,5.64202314 C144.043744,3.79633719 145.335605,2.4245686 146.881651,1.52625455 C148.427,0.628171901 150.170721,0.197527273 152.112349,0.234320661 C154.511186,0.283609917 156.393744,1.09884959 157.760256,2.67980826 C159.126535,4.26099835 159.859326,6.42370909 159.958163,9.16724628 C159.983047,10.2009322 159.927465,11.179081 159.791419,12.101924 L159.179326,16.2176926 C158.622814,19.9090645 157.370721,22.7854281 155.423047,24.8460893 C153.475605,26.9072132 151.011651,27.9068826 148.031651,27.8453289 Z" id="Fill-16" fill="#273B55"></path>
                <polygon id="Fill-18" fill="#251EC3" points="15.8202791 27.3463273 4.65116279e-05 27.3463273 4.80190698 0.669963636 20.6221395 0.669963636"></polygon>
                <path d="M5.61706977,16.5323339 C5.61706977,17.1724 5.83986047,17.7694248 6.16172093,18.0253587 L8.66474419,18.0253587 C8.34288372,17.7694248 8.12009302,17.1724 8.12009302,16.5323339 C8.12009302,15.8730612 8.35637209,15.4799041 8.69404651,15.0170942 L6.1907907,15.0170942 C5.85334884,15.4799041 5.61706977,15.8730612 5.61706977,16.5323339" id="Fill-20" fill="#FFFFFF"></path>
                <path d="M28.9022093,9.28132893 C28.9022093,5.47494876 27.5775581,2.19200661 25.6640698,0.669824793 L6.36174419,0.669824793 C8.27523256,2.19200661 9.59988372,5.47494876 9.59988372,9.28132893 C9.59988372,13.2020231 8.19453488,16.5675769 6.1877907,18.0251967 L25.4901163,18.0251967 C27.4968605,16.5675769 28.9022093,13.2020231 28.9022093,9.28132893" id="Fill-22" fill="#30DD9D"></path>
                <path d="M26.0533721,10.0418876 L12.8168605,10.0418876 C12.529186,10.0418876 12.2936047,9.80770579 12.2936047,9.52122645 C12.2936047,9.23474711 12.529186,9.00056529 12.8168605,9.00056529 L26.0533721,9.00056529 C26.3410465,9.00056529 26.5766279,9.23474711 26.5766279,9.52122645 C26.5766279,9.80770579 26.3410465,10.0418876 26.0533721,10.0418876" id="Fill-24" fill="#FFFFFF"></path>
                <path d="M25.8519302,7.57351405 L16.2061163,7.57351405 C15.9184419,7.57351405 15.6828605,7.33933223 15.6828605,7.05285289 C15.6828605,6.76637355 15.9184419,6.53219174 16.2061163,6.53219174 L25.8519302,6.53219174 C26.1398372,6.53219174 26.375186,6.76637355 26.375186,7.05285289 C26.375186,7.33933223 26.1398372,7.57351405 25.8519302,7.57351405" id="Fill-26" fill="#FFFFFF"></path>
                <path d="M25.3867907,12.4716397 L18.0491163,12.4716397 C17.7612093,12.4716397 17.5258605,12.2374579 17.5258605,11.9509785 C17.5258605,11.6644992 17.7612093,11.4303174 18.0491163,11.4303174 L25.3867907,11.4303174 C25.6746977,11.4303174 25.9100465,11.6644992 25.9100465,11.9509785 C25.9100465,12.2374579 25.6746977,12.4716397 25.3867907,12.4716397" id="Fill-28" fill="#FFFFFF"></path>
            </g>
        </g>
    </g>
</svg>