<?xml version="1.0" encoding="UTF-8"?>
<svg width="160px" height="28px" viewBox="0 0 160 28" version="1.1" xmlns="http://www.w3.org/2000/svg" xmlns:xlink="http://www.w3.org/1999/xlink">
    <!-- Generator: Sketch 49.3 (51167) - http://www.bohemiancoding.com/sketch -->
    <title>Page 1</title>
    <desc>Created with Sketch.</desc>
    <defs>
        <polygon id="path-1" points="0.0691303075 0.0321652893 9.64078477 0.0321652893 9.64078477 27.3865917 0.0691303075 27.3865917"></polygon>
        <polygon id="path-3" points="0.0438115659 0.00545875117 18.9739385 0.00545875117 18.9739385 27.0742912 0.0438115659 27.0742912"></polygon>
    </defs>
    <g id="Landing-page" stroke="none" stroke-width="1" fill="none" fill-rule="evenodd">
        <g id="Desktop-HD" transform="translate(-213.000000, -64.000000)">
            <g id="Page-1" transform="translate(213.000000, 64.000000)">
                <polygon id="Fill-1" fill="#251EC3" points="4.83696633 0.677900826 -4.6852123e-05 27.3542645 15.9362343 27.3542645 20.7730132 0.677900826"></polygon>
                <g id="Group-30" transform="translate(5.622255, 0.199240)">
                    <path d="M0.0359355783,16.3410777 C0.0359355783,16.9811438 0.260357247,17.5781686 0.584573939,17.8341025 L3.10592094,17.8341025 C2.78170425,17.5781686 2.55728258,16.9811438 2.55728258,16.3410777 C2.55728258,15.681805 2.79529136,15.2886479 3.13543777,14.825838 L0.613856515,14.825838 C0.273944363,15.2886479 0.0359355783,15.681805 0.0359355783,16.3410777" id="Fill-2" fill="#FFFFFF"></path>
                    <path d="M23.4915373,9.09007273 C23.4915373,5.28369256 22.1571889,2.00075041 20.2296925,0.478568595 L0.786061493,0.478568595 C2.71355783,2.00075041 4.0479063,5.28369256 4.0479063,9.09007273 C4.0479063,13.0107669 2.6322694,16.3763207 0.610834553,17.8339405 L20.0544656,17.8339405 C22.0759004,16.3763207 23.4915373,13.0107669 23.4915373,9.09007273" id="Fill-4" fill="#30DD9D"></path>
                    <path d="M20.6218448,9.8506314 L7.28843338,9.8506314 C6.998653,9.8506314 6.761347,9.61644959 6.761347,9.32997025 C6.761347,9.04349091 6.998653,8.80930909 7.28843338,8.80930909 L20.6218448,8.80930909 C20.9116252,8.80930909 21.1489312,9.04349091 21.1489312,9.32997025 C21.1489312,9.61644959 20.9116252,9.8506314 20.6218448,9.8506314" id="Fill-6" fill="#FFFFFF"></path>
                    <path d="M20.4189283,7.38225785 L10.7025007,7.38225785 C10.4127204,7.38225785 10.1754143,7.14807603 10.1754143,6.86159669 C10.1754143,6.57511736 10.4127204,6.34093554 10.7025007,6.34093554 L20.4189283,6.34093554 C20.7089429,6.34093554 20.9460146,6.57511736 20.9460146,6.86159669 C20.9460146,7.14807603 20.7089429,7.38225785 20.4189283,7.38225785" id="Fill-8" fill="#FFFFFF"></path>
                    <path d="M19.9503836,12.2803835 L12.5589927,12.2803835 C12.268978,12.2803835 12.0319063,12.0462017 12.0319063,11.7597223 C12.0319063,11.473243 12.268978,11.2390612 12.5589927,11.2390612 L19.9503836,11.2390612 C20.2403982,11.2390612 20.47747,11.473243 20.47747,11.7597223 C20.47747,12.0462017 20.2403982,12.2803835 19.9503836,12.2803835" id="Fill-10" fill="#FFFFFF"></path>
                    <path d="M36.5369253,13.7010711 L39.922694,13.7371702 C41.2279941,13.7133355 42.240937,13.2160463 42.9608199,12.2457653 C43.6804685,11.2759471 44.0222548,9.97105455 43.9857101,8.33178182 C43.9611127,7.5001124 43.7598829,6.8376 43.3817862,6.3430876 C43.0034553,5.84903802 42.4787116,5.5778314 41.8077892,5.52946777 L37.9827818,5.4933686 L36.5369253,13.7010711 Z M35.7683163,18.1303934 L34.1395022,27.3865917 L28.8869107,27.3865917 L33.4987994,1.06427769 L42.045798,1.08232727 C44.3759883,1.15452562 46.2032211,1.97717025 47.5270278,3.55002975 C48.8506003,5.12288926 49.4088433,7.15069091 49.201757,9.63343471 C48.9576574,12.2126744 47.9693119,14.2768066 46.2367204,15.8253686 C44.5041288,17.374162 42.295754,18.148443 39.6115959,18.148443 L35.7683163,18.1303934 Z" id="Fill-12" fill="#273B55"></path>
                    <g id="Group-16" transform="translate(47.789165, 0.000000)">
                        <mask id="mask-2" fill="white">
                            <use xlink:href="#path-1"></use>
                        </mask>
                        <g id="Clip-15"></g>
                        <path d="M4.16869107,2.85396364 C4.16869107,2.02229421 4.43410835,1.34450909 4.96470864,0.820145455 C5.49554319,0.295781818 6.14538214,0.0336 6.91399122,0.0336 C7.67018448,0.00976528926 8.31393265,0.253897521 8.8447672,0.765996694 C9.37560176,1.27832727 9.64078477,1.91399669 9.64078477,2.67323636 C9.64078477,3.51693884 9.37560176,4.2007405 8.8447672,4.72510413 C8.31393265,5.24946777 7.66432796,5.51141818 6.89571889,5.51141818 C6.114694,5.53594711 5.46485505,5.29181488 4.94643631,4.77925289 C4.42778331,4.26715372 4.16869107,3.62546777 4.16869107,2.85396364 Z M5.13876428,27.3865917 L0.0691303075,27.3865917 L3.50971596,7.82546777 L8.57934993,7.82546777 L5.13876428,27.3865917 Z" id="Fill-14" fill="#273B55" mask="url(#mask-2)"></path>
                    </g>
                    <path d="M64.6335578,22.0171868 C64.7556076,21.1737157 64.0905417,20.4204926 62.6385944,19.757286 C61.1866471,19.0947736 60.0978038,18.4711372 59.3718302,17.8861455 C58.6456223,17.3018479 58.115022,16.6541455 57.7795608,15.9428066 C57.4440996,15.2319306 57.2946413,14.4240959 57.3311859,13.5202281 C57.4164568,11.7485917 58.1515666,10.2875008 59.5365154,9.13626116 C60.9212299,7.9854843 62.6142313,7.42201322 64.6152855,7.44584793 C66.5917423,7.49421157 68.1505124,8.07596364 69.2913616,9.19040992 C70.4319766,10.3055504 70.9902196,11.7789058 70.9658565,13.6107074 L65.9147291,13.6107074 C65.9512738,12.7614512 65.8383602,12.160724 65.5759883,11.8078314 C65.3136164,11.4549388 64.9020205,11.2786083 64.3407321,11.2786083 C63.7550805,11.2786083 63.2577452,11.473914 62.8491947,11.8642942 C62.44041,12.2546744 62.1871742,12.7262777 62.0897218,13.2786413 C61.9433089,14.0598645 62.5622255,14.7566248 63.9471742,15.3691537 C65.3318887,15.9821455 66.3293704,16.4923934 66.9396193,16.9010545 C68.7574817,18.0941785 69.6052709,19.7274347 69.4834553,21.8003603 C69.410366,23.0177818 69.0287555,24.081319 68.3395608,24.9912033 C67.6501318,25.901319 66.729019,26.5973851 65.5759883,27.0791702 C64.4231918,27.5609554 63.1752855,27.7842612 61.8334407,27.748162 C59.9054758,27.6997983 58.331713,27.0791702 57.1116837,25.8860463 C55.8914202,24.6929223 55.2935871,23.1684264 55.3179502,21.3120959 L60.1313031,21.3301455 C60.0947584,22.2703438 60.2470278,22.9455835 60.5888141,23.3549388 C60.930366,23.7649884 61.4612006,23.9697818 62.1810835,23.9697818 C62.8154612,23.9697818 63.3554319,23.8043273 63.8007613,23.4724926 C64.2460908,23.1411207 64.5236896,22.6563273 64.6335578,22.0171868" id="Fill-17" fill="#273B55"></path>
                    <path d="M80.0727848,3.0166876 L79.2308521,7.82551405 L81.7931947,7.82551405 L81.1159473,11.6582744 L78.5538389,11.6582744 L76.8699736,21.5263074 L76.8151567,22.105514 C76.7661962,22.9145058 77.1079824,23.3310347 77.8400469,23.3551008 C78.0473675,23.3671339 78.462243,23.3370512 79.0844392,23.2646215 L78.6269283,27.2781091 C77.8702665,27.5791669 76.9917892,27.730043 75.9914963,27.730043 C74.5149517,27.705514 73.4045564,27.1811504 72.6605447,26.1553322 C71.9162987,25.1302083 71.6293294,23.7304397 71.8003397,21.9564893 L73.5024773,11.6582744 L71.2697394,11.6582744 L71.9467526,7.82551405 L74.1614524,7.82551405 L75.0216574,3.0166876 L80.0727848,3.0166876 Z" id="Fill-19" fill="#273B55"></path>
                    <path d="M84.9886032,20.2997455 C84.9886032,22.3851669 85.6351625,23.463514 86.9285154,23.5357124 C88.68547,23.6324397 89.8260849,22.3064893 90.351063,19.5585554 L90.5522928,18.2569025 C90.7230688,16.5213653 90.8085739,15.4066876 90.8085739,14.9124066 C90.8085739,12.8397124 90.1432738,11.7609025 88.8136105,11.6762083 C87.8496281,11.6283074 87.0566559,12.0682083 86.4344597,12.9961421 C85.8122635,13.9243074 85.4154261,15.2648364 85.2448843,17.0184231 C85.0736398,18.7720099 84.9886032,19.8658612 84.9886032,20.2997455 M89.2711215,7.4639438 C91.2719414,7.51230744 92.8335227,8.18129917 93.9563338,9.4706876 C95.0786764,10.7605388 95.6950161,12.4898281 95.8048843,14.6592496 L95.8048843,15.9428529 C95.6460556,19.727481 94.727754,22.658919 93.050448,24.7380926 C91.3726735,26.8170347 89.1856164,27.8204066 86.4892767,27.7482083 C84.9155139,27.7118777 83.6160703,27.2934975 82.5911801,26.4916793 C81.5662899,25.690324 80.8309458,24.5784231 80.3858507,23.1562083 C79.9400527,21.7342248 79.8151918,20.1009686 80.0105652,18.2569025 L80.1204334,17.280605 C80.4741669,14.2073157 81.468369,11.7879769 83.1035081,10.0221256 C84.7384129,8.25673719 86.7940498,7.40377851 89.2711215,7.4639438" id="Fill-21" fill="#273B55"></path>
                    <path d="M103.136492,13.7010711 L106.522261,13.7371702 C107.827561,13.7133355 108.840269,13.2160463 109.560387,12.2457653 C110.280035,11.2759471 110.621821,9.97105455 110.585277,8.33178182 C110.560445,7.5001124 110.359215,6.8376 109.981353,6.3430876 C109.603022,5.84903802 109.078044,5.5778314 108.407356,5.52946777 L104.582348,5.4933686 L103.136492,13.7010711 Z M102.367883,18.1303934 L100.739069,27.3865917 L95.4864773,27.3865917 L100.098366,1.06427769 L108.645365,1.08232727 C110.975555,1.15452562 112.802553,1.97717025 114.126594,3.55002975 C115.450167,5.12288926 116.00841,7.15069091 115.801324,9.63343471 C115.55699,12.2126744 114.568644,14.2768066 112.836287,15.8253686 C111.103695,17.374162 108.895086,18.148443 106.211163,18.148443 L102.367883,18.1303934 Z" id="Fill-23" fill="#273B55"></path>
                    <path d="M130.032539,12.1463306 C130.178952,10.9053058 130.252041,9.94705785 130.252041,9.27181818 C130.190899,6.5845124 129.208878,5.20418182 127.305511,5.13198347 C125.841382,5.07181818 124.660943,5.61723967 123.764193,6.76801653 C122.867444,7.91902479 122.241968,9.72375207 121.888234,12.1824298 L121.247766,16.6117521 C121.101353,17.804876 121.046536,18.7390579 121.083081,19.4138347 C121.143988,21.9449421 122.150606,23.252843 124.102934,23.336843 C125.493739,23.3852066 126.634354,22.879124 127.525247,21.8183636 C128.415672,20.7580661 129.037868,19.0225289 129.39207,16.6117521 L130.032539,12.1463306 Z M123.681968,27.7481157 C121.339362,27.6997521 119.481675,26.9409752 118.109142,25.4701653 C116.736375,24.0000496 115.988849,21.9569752 115.867034,19.3416364 C115.818073,18.4375372 115.854852,17.5218678 115.976902,16.5937025 L116.654149,12.2185289 C117.007649,9.88064463 117.697312,7.8074876 118.722202,5.99975207 C119.747092,4.19178512 121.021704,2.84801653 122.547209,1.96821488 C124.072246,1.08864463 125.792422,0.666561983 127.708205,0.702661157 C130.075174,0.751024793 131.932627,1.54960331 133.281031,3.09793388 C134.628966,4.64695868 135.351895,6.76523967 135.449816,9.45254545 C135.474179,10.4649421 135.419127,11.4231901 135.28513,12.3270579 L134.681206,16.358595 C134.1321,19.9742975 132.896843,22.7918843 130.974969,24.8104298 C129.053329,26.8292066 126.621939,27.808281 123.681968,27.7481157 Z" id="Fill-25" fill="#273B55"></path>
                    <g id="Group-29" transform="translate(135.402635, 0.694215)">
                        <mask id="mask-4" fill="white">
                            <use xlink:href="#path-3"></use>
                        </mask>
                        <g id="Clip-28"></g>
                        <path d="M11.6064656,19.641676 C11.7282811,18.7498413 11.5973294,18.005643 11.2129078,17.409081 C10.8287204,16.8122876 10.0294231,16.2279901 8.81548463,15.6552628 C7.6010776,15.0832298 6.58532357,14.4892132 5.76822255,13.8746017 C3.53548463,12.1996926 2.51059444,10.0844198 2.69355198,7.52901488 C2.8034202,6.05889917 3.27006735,4.74822149 4.09372767,3.59698182 C4.91715373,2.44620496 6.01817862,1.55136198 7.3970366,0.912221488 C8.77566032,0.273775207 10.252205,-0.0277454545 11.8259678,0.00835371901 C14.1074319,0.0567173554 15.891795,0.837246281 17.1792914,2.34947769 C18.4663192,3.86240331 19.0611069,5.79995702 18.9636545,8.16190744 L13.7295695,8.14362645 C13.8635666,5.67337851 13.0642694,4.41962645 11.3319122,4.38329587 C10.441019,4.35946116 9.6756896,4.64547769 9.03498682,5.24203967 C8.3945183,5.83883306 8.00705124,6.60709752 7.87281991,7.54706446 C7.68986237,8.95724628 8.67820791,10.1626347 10.8378565,11.1627669 C12.9972709,12.1635934 14.5466706,13.2903041 15.4862899,14.5435934 C16.5355432,15.9297091 16.9806384,17.6168826 16.8225124,19.6055769 C16.6393206,21.8955603 15.7242987,23.7248165 14.0772123,25.0924198 C12.4301259,26.460486 10.3737862,27.1197587 7.90959883,27.0718579 C5.43252709,27.0234942 3.47410835,26.192519 2.03481113,24.577081 C0.594811127,22.9623372 -0.0639297218,20.8954281 0.0581200586,18.3761223 L5.32898389,18.3941719 C5.23106296,19.9489818 5.43557247,21.0608826 5.94204392,21.729643 C6.44804685,22.3986347 7.24429868,22.7330149 8.33056515,22.7330149 C9.28213177,22.7214446 10.0324685,22.4289488 10.5815754,21.8562215 C11.1306823,21.2841884 11.472,20.5455438 11.6064656,19.641676" id="Fill-27" fill="#273B55" mask="url(#mask-4)"></path>
                    </g>
                </g>
            </g>
        </g>
    </g>
</svg>