<?xml version="1.0" encoding="UTF-8"?>
<svg width="80px" height="80px" viewBox="0 0 80 80" version="1.1" xmlns="http://www.w3.org/2000/svg" xmlns:xlink="http://www.w3.org/1999/xlink">
    <!-- Generator: Sketch 49.3 (51167) - http://www.bohemiancoding.com/sketch -->
    <title>Page 1</title>
    <desc>Created with Sketch.</desc>
    <defs></defs>
    <g id="Landing-page" stroke="none" stroke-width="1" fill="none" fill-rule="evenodd">
        <g id="Desktop-HD" transform="translate(-413.000000, -2316.000000)" fill="#3333CC">
            <g id="Page-1" transform="translate(413.000000, 2316.000000)">
                <path d="M13.1093103,29.145931 C12.4575862,29.145931 11.8217241,29.0452414 11.2093103,28.8604138 C11.1589655,28.8417931 11.1072414,28.8245517 11.0541379,28.8107586 C7.07551724,27.5045517 4.10310345,22.4969655 4.10310345,16.5321379 C4.10310345,9.57765517 8.1437931,3.91834483 13.1093103,3.91834483 C18.0748276,3.91834483 22.1148276,9.57696552 22.1148276,16.5321379 C22.1148276,23.4873103 18.0748276,29.145931 13.1093103,29.145931 M15.6548276,74.848 C14.9886207,75.5604138 14.0851724,75.9521379 13.11,75.9521379 C12.1341379,75.9521379 11.23,75.5597241 10.5624138,74.8473103 C9.8962069,74.1348966 9.56517241,73.2066207 9.62931034,72.2335172 L12.2562069,32.7438621 C12.5389655,32.7673103 12.8224138,32.7838621 13.1093103,32.7838621 C13.3955172,32.7838621 13.6789655,32.7673103 13.9617241,32.7438621 L16.587931,72.2335172 C16.6527586,73.208 16.3217241,74.1355862 15.6548276,74.848 M22.2182759,5.23627586 C19.8217241,2.04041379 16.5872414,0.281103448 13.1093103,0.281103448 C9.63137931,0.281103448 6.39689655,2.04041379 3.99965517,5.23489655 C1.72103448,8.2742069 0.465862069,12.285931 0.465862069,16.5321379 C0.465862069,20.7783448 1.72103448,24.790069 3.99965517,27.828 C5.33344828,29.605931 6.92586207,30.9369655 8.67482759,31.7707586 L6.00034483,71.9921379 C5.86931034,73.9521379 6.56448276,75.8990345 7.90655172,77.3328276 C9.24862069,78.768 11.1458621,79.5907586 13.11,79.5907586 C15.0741379,79.5907586 16.97,78.768 18.3113793,77.3342069 C19.6534483,75.8997241 20.3486207,73.9528276 20.2175862,71.9921379 L17.5431034,31.7714483 C19.2927586,30.9376552 20.8851724,29.6066207 22.2182759,27.8293793 C24.4968966,24.790069 25.7527586,20.7783448 25.7527586,16.5321379 C25.7527586,12.2866207 24.4975862,8.2742069 22.2182759,5.23627586" id="Fill-1"></path>
                <path d="M75.884,74.122 C75.884,75.1171724 75.0750345,75.9268276 74.0791724,75.9268276 C73.0846897,75.9268276 72.2757241,75.1171724 72.2757241,74.122 L72.2757241,49.4957931 L75.884,49.4957931 L75.884,74.122 Z M68.7557241,45.8578621 C68.6315862,45.8578621 68.5315862,45.7578621 68.5315862,45.6337241 L68.5315862,21.8157931 L68.5315862,21.8137241 C68.5315862,15.522 71.2295172,9.702 75.884,5.682 L75.884,45.8578621 L68.7557241,45.8578621 Z M79.5212414,47.6675172 L79.5212414,2.3282069 L79.506069,2.33510345 C79.5591724,1.93441379 79.4798621,1.51372414 79.2508966,1.14337931 C78.721931,0.288896552 77.601931,0.0240689655 76.746069,0.552344828 C69.3253793,5.13993103 64.8950345,13.0861379 64.8936552,21.8088966 L64.8936552,21.8130345 L64.8936552,45.6337241 C64.8936552,47.7233793 66.564,49.4261379 68.6371034,49.4895862 L68.6371034,74.122 C68.6371034,77.1233793 71.0791724,79.564069 74.0791724,79.564069 C77.0805517,79.564069 79.521931,77.1233793 79.521931,74.122 L79.521931,47.6764828 C79.521931,47.6737241 79.5212414,47.6709655 79.5212414,47.6675172 Z" id="Fill-3"></path>
                <path d="M50.0711034,28.4304828 C50.0711034,29.3897931 49.2911034,30.1697931 48.3311034,30.1697931 L41.1097241,30.1697931 C41.1076552,30.1697931 41.1048966,30.1691034 41.1028276,30.1697931 L38.9035172,30.1697931 C37.9442069,30.1697931 37.1642069,29.3897931 37.1642069,28.4304828 L37.1642069,26.4008276 L50.0711034,26.4008276 L50.0711034,28.4304828 Z M46.0421379,74.8994483 C45.4076552,75.578069 44.5462759,75.9525517 43.6173103,75.9525517 C42.6883448,75.9525517 41.8276552,75.578069 41.1917931,74.8994483 C40.5573103,74.2208276 40.2421379,73.338069 40.3042069,72.4111724 L42.8717931,33.8070345 L44.3621379,33.8070345 L46.9297241,72.4118621 C46.9917931,73.338069 46.6766207,74.2208276 46.0421379,74.8994483 Z M51.8897241,0.280827586 C50.8855862,0.280827586 50.0711034,1.09462069 50.0711034,2.10013793 L50.0711034,22.7635862 L45.4366207,22.7635862 L45.4366207,2.10013793 C45.4366207,1.09462069 44.6221379,0.280827586 43.618,0.280827586 C42.6124828,0.280827586 41.7986897,1.09462069 41.7986897,2.10013793 L41.7986897,22.7635862 L37.1642069,22.7635862 L37.1642069,2.10013793 C37.1642069,1.09462069 36.3490345,0.280827586 35.3448966,0.280827586 C34.340069,0.280827586 33.5255862,1.09462069 33.5255862,2.10013793 L33.5255862,28.4304828 C33.5255862,31.3953103 35.938,33.8084138 38.9028276,33.8084138 L39.2262759,33.8084138 L36.6745517,72.1691034 C36.5462759,74.0828966 37.2242069,75.9835862 38.535931,77.3849655 C39.8462759,78.7863448 41.6986897,79.5904828 43.6173103,79.5904828 C45.535931,79.5904828 47.3883448,78.7863448 48.6993793,77.3849655 C50.0097241,75.9842759 50.6876552,74.0828966 50.5593793,72.1697931 L48.0076552,33.8084138 L48.3324828,33.8084138 C51.2973103,33.8084138 53.7090345,31.3953103 53.7090345,28.4304828 L53.7090345,2.09944828 C53.7090345,1.09462069 52.8945517,0.280827586 51.8897241,0.280827586 Z" id="Fill-5"></path>
            </g>
        </g>
    </g>
</svg>