<?xml version="1.0" encoding="UTF-8"?>
<svg width="93px" height="80px" viewBox="0 0 93 80" version="1.1" xmlns="http://www.w3.org/2000/svg" xmlns:xlink="http://www.w3.org/1999/xlink">
    <!-- Generator: Sketch 49.3 (51167) - http://www.bohemiancoding.com/sketch -->
    <title>Page 1</title>
    <desc>Created with Sketch.</desc>
    <defs></defs>
    <g id="Landing-page" stroke="none" stroke-width="1" fill="none" fill-rule="evenodd">
        <g id="Desktop-HD" transform="translate(-674.000000, -2566.000000)" fill="#3333CC">
            <g id="Page-1" transform="translate(674.000000, 2566.000000)">
                <path d="M31.6832775,35.8287059 C30.4312097,35.8287059 29.5972823,34.9949804 29.5972823,33.7432157 C29.5972823,32.4922353 30.4312097,31.6577255 31.6832775,31.6577255 C32.9353453,31.6577255 33.7692726,32.4922353 33.7692726,33.7432157 C33.7692726,34.9949804 32.9353453,35.8287059 31.6832775,35.8287059 M31.6832775,27.4867451 C28.1365366,27.4867451 25.4245075,30.1981176 25.4245075,33.7432157 C25.4245075,37.289098 28.1365366,40.0004706 31.6832775,40.0004706 C35.2292339,40.0004706 37.941263,37.289098 37.941263,33.7432157 C37.941263,30.1981176 35.2292339,27.4867451 31.6832775,27.4867451" id="Fill-1"></path>
                <path d="M37.9408707,58.7701961 C36.6895874,58.7701961 35.8548755,57.9364706 35.8548755,56.6847059 C35.8548755,55.4329412 36.6903719,54.5992157 37.9408707,54.5992157 C39.1929385,54.5992157 40.0268659,55.4329412 40.0268659,56.6847059 C40.0268659,57.9364706 39.1929385,58.7701961 37.9408707,58.7701961 M37.9408707,50.427451 C34.3949143,50.427451 31.6828852,53.1388235 31.6828852,56.6847059 C31.6828852,60.2298039 34.3949143,62.9411765 37.9408707,62.9411765 C41.4876116,62.9411765 44.1996407,60.2298039 44.1996407,56.6847059 C44.1996407,53.1388235 41.4876116,50.427451 37.9408707,50.427451" id="Fill-3"></path>
                <path d="M45.6598373,34.3689412 C44.8243409,33.5352157 43.5738421,33.5352157 42.7391303,34.3689412 L23.9643893,53.1383529 C23.130462,53.9736471 23.130462,55.2254118 23.9643893,56.0591373 C24.3817453,56.4756078 25.0077792,56.6850196 25.4243506,56.6850196 C25.8417065,56.6850196 26.4677404,56.4756078 26.8858809,56.0591373 L45.6598373,37.2889412 C46.4937646,36.4544314 46.4937646,35.2042353 45.6598373,34.3689412" id="Fill-5"></path>
                <path d="M90.0931816,2.45976471 C88.8411138,2.45976471 88.0064019,3.29505882 88.0064019,4.5452549 C88.0064019,10.3852549 83.4178402,14.9734902 77.5764262,14.9734902 L65.0596707,14.9734902 C63.8083874,14.9734902 62.9736755,15.8072157 62.9736755,17.0589804 C62.9736755,18.3099608 63.8083874,19.1444706 65.0596707,19.1444706 L66.5204165,19.1444706 C65.8943826,20.395451 64.4344213,21.2299608 62.9736755,21.2299608 C60.6790024,21.2299608 58.8024697,19.3523137 58.8024697,17.0589804 C58.8024697,14.7648627 60.6790024,12.888 62.9736755,12.888 C64.2257433,12.888 65.0596707,12.0534902 65.0596707,10.8025098 C65.0596707,9.5507451 64.2257433,8.71701961 62.9736755,8.71701961 C58.3843293,8.71701961 54.6296949,12.4707451 54.6296949,17.0589804 C54.6296949,21.6472157 58.3843293,25.4009412 62.9736755,25.4009412 C66.9377724,25.4009412 70.0671574,22.6895686 71.1097627,19.1444706 L75.490431,19.1444706 L75.490431,28.7374118 C75.490431,31.4487843 74.4470412,33.9515294 72.569724,35.8283922 L35.854954,74.6197647 L5.39816949,46.2566275 L43.9902567,7.67388235 C46.0762518,5.58839216 48.5796029,4.54603922 51.5010944,4.54603922 L75.490431,4.54603922 L75.490431,8.71701961 C75.490431,9.96878431 76.3251429,10.8025098 77.5764262,10.8025098 C78.8277094,10.8025098 79.6624213,9.96878431 79.6624213,8.71701961 L79.6624213,2.45976471 C79.6624213,1.20956863 78.8277094,0.37427451 77.5764262,0.37427451 L51.5010944,0.37427451 C47.5377821,0.37427451 43.9902567,1.83388235 41.2790121,4.75466667 L1.01828571,44.7970196 C0.600929782,45.2142745 0.392251816,45.6307451 0.392251816,46.2566275 C0.392251816,46.8825098 0.600929782,47.2997647 1.01828571,47.7162353 L34.3949927,79.0001569 C34.8123487,79.4174118 35.2289201,79.6252549 35.854954,79.6252549 C36.4809879,79.6252549 36.8983438,79.4174118 37.3149153,79.0001569 L75.4896465,38.7491765 C77.9929976,36.0378039 79.4529588,32.4927059 79.4529588,28.7381961 L79.4529588,18.9358431 C86.7543341,17.8934902 92.1791768,11.8456471 92.1791768,4.54603922 C92.1791768,3.29505882 91.3436804,2.45976471 90.0931816,2.45976471" id="Fill-7"></path>
            </g>
        </g>
    </g>
</svg>