<?xml version="1.0" encoding="UTF-8"?>
<svg width="72px" height="41px" viewBox="0 0 72 41" version="1.1" xmlns="http://www.w3.org/2000/svg" xmlns:xlink="http://www.w3.org/1999/xlink">
    <!-- Generator: Sketch 49.3 (51167) - http://www.bohemiancoding.com/sketch -->
    <title>Page 1</title>
    <desc>Created with Sketch.</desc>
    <defs></defs>
    <g id="Landing-page" stroke="none" stroke-width="1" fill="none" fill-rule="evenodd">
        <g id="Desktop-HD" transform="translate(-786.000000, -3305.000000)">
            <g id="Page-1" transform="translate(787.000000, 3306.000000)">
                <path d="M59.6823913,32.0401213 C59.6823913,35.7819303 48.6315217,38.8151663 34.9997826,38.8151663 C21.3684783,38.8151663 10.3176087,35.7819303 10.3176087,32.0401213 C10.3176087,28.2983124 21.3684783,25.2650764 34.9997826,25.2650764 C48.6315217,25.2650764 59.6823913,28.2983124 59.6823913,32.0401213" id="Fill-1" fill="#30DD9D"></path>
                <path d="M59.6823913,32.0401213 C59.6823913,35.7819303 48.6315217,38.8151663 34.9997826,38.8151663 C21.3684783,38.8151663 10.3176087,35.7819303 10.3176087,32.0401213 C10.3176087,28.2983124 21.3684783,25.2650764 34.9997826,25.2650764 C48.6315217,25.2650764 59.6823913,28.2983124 59.6823913,32.0401213 Z" id="Stroke-3" stroke="#3333CC" stroke-width="2.17391304"></path>
                <path d="M69.7826087,27.0178854 C69.7826087,30.9735371 54.21,34.1798629 35,34.1798629 C15.79,34.1798629 0.217391304,30.9735371 0.217391304,27.0178854 C0.217391304,23.0622337 15.79,19.8559079 35,19.8559079 C54.21,19.8559079 69.7826087,23.0622337 69.7826087,27.0178854" id="Fill-5" fill="#30DD9D"></path>
                <path d="M69.7826087,27.0178854 C69.7826087,30.9735371 54.21,34.1798629 35,34.1798629 C15.79,34.1798629 0.217391304,30.9735371 0.217391304,27.0178854 C0.217391304,23.0622337 15.79,19.8559079 35,19.8559079 C54.21,19.8559079 69.7826087,23.0622337 69.7826087,27.0178854 Z" id="Stroke-7" stroke="#3333CC" stroke-width="2.17391304"></path>
                <path d="M37.8486087,28.3327112 L32.9986087,28.3327112 C23.6864348,28.3327112 16.1368696,20.7242056 16.1368696,11.3383517 L16.1368696,4.01248652 L54.7103478,4.01248652 L54.7103478,11.3383517 C54.7103478,20.7242056 47.1607826,28.3327112 37.8486087,28.3327112" id="Fill-9" fill="#30DD9D"></path>
                <path d="M37.8486087,28.3327112 L32.9986087,28.3327112 C23.6864348,28.3327112 16.1368696,20.7242056 16.1368696,11.3383517 L16.1368696,4.01248652 L54.7103478,4.01248652 L54.7103478,11.3383517 C54.7103478,20.7242056 47.1607826,28.3327112 37.8486087,28.3327112 Z" id="Stroke-11" stroke="#3333CC" stroke-width="2.17391304"></path>
                <path d="M54.7101304,3.13139326 C54.7101304,4.73959551 46.0753478,6.04368539 35.4236087,6.04368539 C24.7718696,6.04368539 16.137087,4.73959551 16.137087,3.13139326 C16.137087,1.52319101 24.7718696,0.219101124 35.4236087,0.219101124 C46.0753478,0.219101124 54.7101304,1.52319101 54.7101304,3.13139326" id="Fill-13" fill="#30DD9D"></path>
                <path d="M54.7101304,3.13139326 C54.7101304,4.73959551 46.0753478,6.04368539 35.4236087,6.04368539 C24.7718696,6.04368539 16.137087,4.73959551 16.137087,3.13139326 C16.137087,1.52319101 24.7718696,0.219101124 35.4236087,0.219101124 C46.0753478,0.219101124 54.7101304,1.52319101 54.7101304,3.13139326 Z" id="Stroke-15" stroke="#3333CC" stroke-width="2.17391304"></path>
                <path d="M61.7915652,15.1888348 L54.7102609,15.1888348 L54.7102609,3.1312618 L64.0646087,3.1312618 C65.4993913,3.1312618 66.6733043,4.31440787 66.6733043,5.76047528 L66.6733043,10.2687 C66.6733043,12.9745989 64.4767826,15.1888348 61.7915652,15.1888348" id="Fill-17" fill="#30DD9D"></path>
                <path d="M61.7915652,15.1888348 L54.7102609,15.1888348 L54.7102609,3.1312618 L64.0646087,3.1312618 C65.4993913,3.1312618 66.6733043,4.31440787 66.6733043,5.76047528 L66.6733043,10.2687 C66.6733043,12.9745989 64.4767826,15.1888348 61.7915652,15.1888348 Z" id="Stroke-19" stroke="#3333CC" stroke-width="2.17391304"></path>
                <path d="M62.8823043,9.16009213 C62.8823043,10.3791708 61.9014348,11.3677551 60.6918696,11.3677551 C59.4818696,11.3677551 58.5014348,10.3791708 58.5014348,9.16009213 C58.5014348,7.94057528 59.4818696,6.95242921 60.6918696,6.95242921 C61.9014348,6.95242921 62.8823043,7.94057528 62.8823043,9.16009213" id="Fill-21" fill="#FFFFFF"></path>
                <path d="M62.8823043,9.16009213 C62.8823043,10.3791708 61.9014348,11.3677551 60.6918696,11.3677551 C59.4818696,11.3677551 58.5014348,10.3791708 58.5014348,9.16009213 C58.5014348,7.94057528 59.4818696,6.95242921 60.6918696,6.95242921 C61.9014348,6.95242921 62.8823043,7.94057528 62.8823043,9.16009213 Z" id="Stroke-23" stroke="#3333CC" stroke-width="2.17391304"></path>
            </g>
        </g>
    </g>
</svg>