<?xml version="1.0" encoding="UTF-8"?>
<svg width="20px" height="21px" viewBox="0 0 20 21" version="1.1" xmlns="http://www.w3.org/2000/svg" xmlns:xlink="http://www.w3.org/1999/xlink">
    <!-- Generator: Sketch 49.3 (51167) - http://www.bohemiancoding.com/sketch -->
    <title>Shape</title>
    <desc>Created with Sketch.</desc>
    <defs></defs>
    <g id="Landing-page" stroke="none" stroke-width="1" fill="none" fill-rule="evenodd">
        <g id="Desktop-HD" transform="translate(-1168.000000, -4822.000000)" fill="#251EC3" fill-rule="nonzero">
            <g id="footer" transform="translate(0.000000, 4755.000000)">
                <path d="M1178,67.5773676 C1172.47714,67.5773676 1168,72.0545032 1168,77.5773676 C1168,83.1002321 1172.47714,87.5773676 1178,87.5773676 C1183.52286,87.5773676 1188,83.1002321 1188,77.5773676 C1188,72.0545032 1183.52286,67.5773676 1178,67.5773676 Z M1184.04706,74.9105646 C1184.05176,75.0286208 1184.05422,75.1468817 1184.05422,75.2657564 C1184.05422,79.5374699 1180.80368,83.9558843 1175.36409,83.9558843 C1173.70128,83.9558843 1172.08225,83.4814086 1170.68215,82.5834034 C1170.65289,82.5647845 1170.64082,82.5285697 1170.65248,82.4960377 C1170.66414,82.4637103 1170.69708,82.4436592 1170.73084,82.4475467 C1170.96573,82.4755773 1171.20593,82.4894904 1171.4443,82.4894904 C1172.73801,82.4894904 1173.96276,82.0894904 1174.99867,81.3306157 C1173.75693,81.2258587 1172.68972,80.3855518 1172.30588,79.1867794 C1172.2979,79.1618178 1172.30363,79.1346055 1172.32082,79.1149635 C1172.33821,79.0953216 1172.36481,79.0867282 1172.39018,79.0914341 C1172.73432,79.1567027 1173.08419,79.1609993 1173.42138,79.1061656 C1172.14077,78.7082116 1171.24072,77.5086208 1171.24072,76.1428919 L1171.24113,76.1031988 C1171.24174,76.0772142 1171.25586,76.0534802 1171.27836,76.0405901 C1171.30066,76.0274955 1171.32849,76.0272909 1171.351,76.0399763 C1171.68491,76.2253472 1172.05442,76.3444265 1172.43355,76.3900531 C1171.6976,75.8034546 1171.26547,74.9142474 1171.26547,73.9630454 C1171.26547,73.4142986 1171.41074,72.8749635 1171.68573,72.4033523 C1171.69801,72.3822781 1171.71969,72.3687743 1171.74384,72.3669328 C1171.76818,72.3644776 1171.79171,72.375117 1171.80706,72.3939405 C1173.31335,74.2415109 1175.529,75.3791068 1177.89831,75.5253983 C1177.85882,75.3265236 1177.83877,75.1215109 1177.83877,74.9146566 C1177.83877,73.2039661 1179.23049,71.8124571 1180.94097,71.8124571 C1181.78189,71.8124571 1182.59458,72.1580326 1183.17708,72.7620224 C1183.83366,72.6282116 1184.45913,72.3867794 1185.03693,72.044273 C1185.06332,72.0285185 1185.09647,72.0309738 1185.12082,72.0500019 C1185.14455,72.0692346 1185.15437,72.1011528 1185.14496,72.1306157 C1184.94916,72.7429942 1184.56737,73.2772142 1184.05442,73.6628919 C1184.53749,73.5787999 1185.00624,73.436805 1185.45207,73.2389533 C1185.48194,73.2252449 1185.51734,73.2338382 1185.53882,73.2590045 C1185.5601,73.2843753 1185.56194,73.3205901 1185.54353,73.348007 C1185.13739,73.9558843 1184.63407,74.4815109 1184.04706,74.9105646 Z" id="Shape"></path>
            </g>
        </g>
    </g>
</svg>