<?xml version="1.0" encoding="UTF-8"?>
<svg width="62px" height="98px" viewBox="0 0 62 98" version="1.1" xmlns="http://www.w3.org/2000/svg" xmlns:xlink="http://www.w3.org/1999/xlink">
    <!-- Generator: Sketch 49.3 (51167) - http://www.bohemiancoding.com/sketch -->
    <title>Page 1</title>
    <desc>Created with Sketch.</desc>
    <defs></defs>
    <g id="Landing-page" stroke="none" stroke-width="1" fill="none" fill-rule="evenodd">
        <g id="Desktop-HD" transform="translate(-1113.000000, -3249.000000)">
            <g id="Page-1" transform="translate(1114.000000, 3250.000000)">
                <path d="M10.49,9.57825 C4.8345,9.57825 0.25,14.16275 0.25,19.81825 C0.25,25.47375 4.8345,30.05825 10.49,30.05825 C16.1455,30.05825 20.73,25.47375 20.73,19.81825 C20.73,14.16275 16.1455,9.57825 10.49,9.57825" id="Fill-1" fill="#30DD9D"></path>
                <path d="M10.49,9.57825 C4.8345,9.57825 0.25,14.16275 0.25,19.81825 C0.25,25.47375 4.8345,30.05825 10.49,30.05825 C16.1455,30.05825 20.73,25.47375 20.73,19.81825 C20.73,14.16275 16.1455,9.57825 10.49,9.57825 Z" id="Stroke-3" stroke="#3333CC" stroke-width="2.5"></path>
                <path d="M15.994,17.5586 C15.582,17.5586 15.248,17.8926 15.248,18.3046 C15.248,18.7161 15.582,19.0501 15.994,19.0501 C16.406,19.0501 16.74,18.7161 16.74,18.3046 C16.74,17.8926 16.406,17.5586 15.994,17.5586" id="Fill-5" fill="#3333CC"></path>
                <path d="M9.466,22.96425 C9.054,22.96425 8.72,23.29825 8.72,23.71025 C8.72,24.12175 9.054,24.45575 9.466,24.45575 C9.878,24.45575 10.212,24.12175 10.212,23.71025 C10.212,23.29825 9.878,22.96425 9.466,22.96425" id="Fill-7" fill="#3333CC"></path>
                <path d="M14.97,22.63425 C14.4045,22.63425 13.946,23.09275 13.946,23.65825 C13.946,24.22375 14.4045,24.68225 14.97,24.68225 C15.5355,24.68225 15.994,24.22375 15.994,23.65825 C15.994,23.09275 15.5355,22.63425 14.97,22.63425" id="Fill-9" fill="#3333CC"></path>
                <path d="M5.37,19.81825 C4.8045,19.81825 4.346,20.27675 4.346,20.84225 C4.346,21.40775 4.8045,21.86625 5.37,21.86625 C5.9355,21.86625 6.394,21.40775 6.394,20.84225 C6.394,20.27675 5.9355,19.81825 5.37,19.81825" id="Fill-11" fill="#3333CC"></path>
                <path d="M11.002,13.43085 C10.4365,13.43085 9.978,13.88935 9.978,14.45485 C9.978,15.02035 10.4365,15.47885 11.002,15.47885 C11.5675,15.47885 12.026,15.02035 12.026,14.45485 C12.026,13.88935 11.5675,13.43085 11.002,13.43085" id="Fill-13" fill="#3333CC"></path>
                <path d="M5.71135,14.45485 C5.14585,14.45485 4.68735,14.91335 4.68735,15.47885 C4.68735,16.04435 5.14585,16.50285 5.71135,16.50285 C6.27685,16.50285 6.73535,16.04435 6.73535,15.47885 C6.73535,14.91335 6.27685,14.45485 5.71135,14.45485" id="Fill-15" fill="#3333CC"></path>
                <path d="M11.002,17.51425 C10.1535,17.51425 9.466,18.20175 9.466,19.05025 C9.466,19.89875 10.1535,20.58625 11.002,20.58625 C11.8505,20.58625 12.538,19.89875 12.538,19.05025 C12.538,18.20175 11.8505,17.51425 11.002,17.51425" id="Fill-17" fill="#3333CC"></path>
                <path d="M29.14875,38.80025 L9.00225,38.80025 L17.13475,94.05025 C17.13475,94.89575 22.51275,95.70675 29.14725,95.70675 C35.78175,95.70675 41.15975,94.80025 41.15975,94.30025 L41.16275,94.30025 L49.29525,38.80025 L29.14875,38.80025 Z" id="Fill-19" fill="#30DD9D"></path>
                <path d="M29.14875,38.80025 L9.00225,38.80025 L17.13475,94.05025 C17.13475,94.89575 22.51275,95.70675 29.14725,95.70675 C35.78175,95.70675 41.15975,94.80025 41.15975,94.30025 L41.16275,94.30025 L49.29525,38.80025 L29.14875,38.80025 Z" id="Stroke-21" stroke="#3333CC" stroke-width="2.5"></path>
                <polygon id="Fill-23" fill="#30DD9D" points="10.89875 50.30025 47.39875 50.30025 43.94325 75.30025 14.39875 75.30025"></polygon>
                <polygon id="Stroke-25" stroke="#3333CC" stroke-width="2.5" points="10.89875 50.30025 47.39875 50.30025 43.94325 75.30025 14.39875 75.30025"></polygon>
                <path d="M11.46,54.3092 L47.399,54.3092" id="Stroke-27" stroke="#3333CC" stroke-width="2.5"></path>
                <path d="M14.62665,79.80025 L43.17115,79.80025" id="Stroke-29" stroke="#3333CC" stroke-width="2.5"></path>
                <path d="M11.4183,37.92525 C11.4183,37.92525 1.3363,28.07125 16.0028,25.84175 C16.0028,25.84175 31.1488,25.77925 35.6488,31.78975 L35.6488,38.05025 L11.4183,37.92525 Z" id="Fill-31" fill="#30DD9D"></path>
                <path d="M11.4183,37.92525 C11.4183,37.92525 1.3363,28.07125 16.0028,25.84175 C16.0028,25.84175 31.1488,25.77925 35.6488,31.78975 L35.6488,38.05025 L11.4183,37.92525 Z" id="Stroke-33" stroke="#3333CC" stroke-width="2.5" stroke-linecap="round" stroke-linejoin="round"></path>
                <path d="M20.23205,20.3836 C20.23205,20.3836 9.35455,23.7171 14.62655,28.5501 C14.62655,28.5501 16.89855,31.8836 23.89855,31.3836 C23.89855,31.3836 31.73205,30.8836 31.56555,37.8001 L44.89855,37.8001 C44.89855,37.8001 44.39855,26.3421 38.56555,25.7796 C38.56555,25.7796 21.39855,24.0501 20.23205,20.3836" id="Fill-35" fill="#30DD9D"></path>
                <path d="M20.23205,20.3836 C20.23205,20.3836 9.35455,23.7171 14.62655,28.5501 C14.62655,28.5501 16.89855,31.8836 23.89855,31.3836 C23.89855,31.3836 31.73205,30.8836 31.56555,37.8001 L44.89855,37.8001 C44.89855,37.8001 44.39855,26.3421 38.56555,25.7796 C38.56555,25.7796 21.39855,24.0501 20.23205,20.3836 Z" id="Stroke-37" stroke="#3333CC" stroke-width="2.5" stroke-linecap="round" stroke-linejoin="round"></path>
                <path d="M23.95035,15.7586 C23.95035,15.7586 14.75785,17.3626 19.25785,22.8626 C19.25785,22.8626 23.07835,27.3316 32.41185,27.4981 C32.41185,27.4981 40.45735,28.8001 39.76135,35.8001 L49.39885,35.8001 C49.39885,35.8001 53.91635,25.5901 37.73185,20.3836 L23.95035,15.7586 Z" id="Fill-39" fill="#30DD9D"></path>
                <path d="M23.95035,15.7586 C23.95035,15.7586 14.75785,17.3626 19.25785,22.8626 C19.25785,22.8626 23.07835,27.3316 32.41185,27.4981 C32.41185,27.4981 40.45735,28.8001 39.76135,35.8001 L49.39885,35.8001 C49.39885,35.8001 53.91635,25.5901 37.73185,20.3836 L23.95035,15.7586 Z" id="Stroke-41" stroke="#3333CC" stroke-width="2.5" stroke-linecap="round" stroke-linejoin="round"></path>
                <path d="M25.23205,8.7169 C25.23205,8.7169 13.18455,17.3834 28.06555,21.5504 C28.06555,21.5504 38.75755,20.1589 41.09055,21.6589 C41.09055,21.6589 43.73205,18.2169 28.89855,12.8834 C28.89855,12.8834 24.73205,11.2169 25.23205,8.7169" id="Fill-43" fill="#30DD9D"></path>
                <path d="M25.23205,8.7169 C25.23205,8.7169 13.18455,17.3834 28.06555,21.5504 C28.06555,21.5504 38.75755,20.1589 41.09055,21.6589 C41.09055,21.6589 43.73205,18.2169 28.89855,12.8834 C28.89855,12.8834 24.73205,11.2169 25.23205,8.7169 Z" id="Stroke-45" stroke="#3333CC" stroke-width="2.5" stroke-linecap="round" stroke-linejoin="round"></path>
                <path d="M51.14885,40.55025 L6.64885,40.55025 C5.13635,40.55025 3.89885,39.31275 3.89885,37.80025 C3.89885,36.28775 5.13635,35.05025 6.64885,35.05025 L51.14885,35.05025 C52.66135,35.05025 53.89885,36.28775 53.89885,37.80025 C53.89885,39.31275 52.66135,40.55025 51.14885,40.55025" id="Fill-47" fill="#30DD9D"></path>
                <path d="M51.14885,40.55025 L6.64885,40.55025 C5.13635,40.55025 3.89885,39.31275 3.89885,37.80025 C3.89885,36.28775 5.13635,35.05025 6.64885,35.05025 L51.14885,35.05025 C52.66135,35.05025 53.89885,36.28775 53.89885,37.80025 C53.89885,39.31275 52.66135,40.55025 51.14885,40.55025 Z" id="Stroke-49" stroke="#3333CC" stroke-width="2.5"></path>
                <path d="M42.4686,27.4174 C43.6396,28.0934 45.1361,27.6894 45.8046,26.5139 C49.3436,20.2909 59.5341,2.6409 59.5341,2.6409 L55.3931,0.2499 L41.5936,24.1514 C40.9336,25.2949 41.3251,26.7574 42.4686,27.4174" id="Fill-51" fill="#30DD9D"></path>
                <path d="M42.4686,27.4174 C43.6396,28.0934 45.1361,27.6894 45.8046,26.5139 C49.3436,20.2909 59.5341,2.6409 59.5341,2.6409 L55.3931,0.2499 L41.5936,24.1514 C40.9336,25.2949 41.3251,26.7574 42.4686,27.4174 Z" id="Stroke-53" stroke="#3333CC" stroke-width="2.5" stroke-linecap="round" stroke-linejoin="round"></path>
            </g>
        </g>
    </g>
</svg>