<?xml version="1.0" encoding="UTF-8"?>
<svg width="54px" height="80px" viewBox="0 0 54 80" version="1.1" xmlns="http://www.w3.org/2000/svg" xmlns:xlink="http://www.w3.org/1999/xlink">
    <!-- Generator: Sketch 49.3 (51167) - http://www.bohemiancoding.com/sketch -->
    <title>Page 1</title>
    <desc>Created with Sketch.</desc>
    <defs>
        <polygon id="path-1" points="0 0 53.9127692 0 53.9127692 79.9997931 0 79.9997931"></polygon>
    </defs>
    <g id="Landing-page" stroke="none" stroke-width="1" fill="none" fill-rule="evenodd">
        <g id="Desktop-HD" transform="translate(-962.000000, -2316.000000)">
            <g id="Page-1" transform="translate(962.000000, 2316.000000)">
                <mask id="mask-2" fill="white">
                    <use xlink:href="#path-1"></use>
                </mask>
                <g id="Clip-2"></g>
                <path d="M3.91306154,76.5804828 L12.2408308,43.2825517 L41.6680615,43.2825517 L49.9965231,76.5804828 L3.91306154,76.5804828 Z M17.0468308,29.7425517 C20.6911385,29.7425517 24.3852923,35.2046207 25.1177538,39.8632414 L12.6645231,39.8632414 C12.8168308,34.9266897 13.7604462,29.7425517 17.0468308,29.7425517 Z M35.0516769,22.2749655 L35.0516769,26.5556552 C32.6452154,27.1653103 30.3578308,28.9625517 28.4699077,31.7687586 C27.9029077,32.6108276 27.3975231,33.5149655 26.9648308,34.446 C26.5321385,33.5142759 26.0267538,32.6108276 25.4604462,31.7687586 C23.5323692,28.9025517 21.1861385,27.0873793 18.7242923,26.5177241 L18.7242923,22.2749655 L35.0516769,22.2749655 Z M41.2658308,39.8632414 L28.8132923,39.8632414 C29.5450615,35.206 33.2399077,29.7432414 36.8835231,29.7432414 C40.1699077,29.7425517 41.1135231,34.9266897 41.2658308,39.8632414 Z M53.8319077,77.7694483 C51.3672923,68.6701379 44.7225231,41.3501379 44.7225231,41.3501379 C44.7162923,37.5266897 44.3521385,34.5328966 43.6099846,32.2032414 C42.4129846,28.448069 40.3713692,26.9866897 38.4841385,26.5149655 L38.4841385,22.2749655 L46.4380615,22.2749655 C47.3851385,22.2749655 48.1542923,21.5094483 48.1542923,20.5646207 C48.1542923,19.6204828 47.3851385,18.8549655 46.4380615,18.8549655 L28.5356769,18.8549655 L28.5356769,15.8611724 C32.1536769,15.0756552 34.8723692,11.8591034 34.8723692,8.02255172 C34.8723692,3.59910345 31.2599077,-0.000206896552 26.8194462,-0.000206896552 C22.3782923,-0.000206896552 18.7651385,3.59910345 18.7651385,8.02255172 C18.7651385,8.96668966 19.5342923,9.7322069 20.4820615,9.7322069 C21.4298308,9.7322069 22.1982923,8.96668966 22.1982923,8.02255172 C22.1982923,5.48462069 24.2710615,3.4197931 26.8194462,3.4197931 C29.3664462,3.4197931 31.4399077,5.48462069 31.4399077,8.02255172 C31.4399077,10.5604828 29.3664462,12.6253103 26.8194462,12.6253103 C25.8709846,12.6253103 25.1025231,13.3908276 25.1025231,14.3349655 L25.1025231,18.8549655 L7.49367692,18.8549655 C6.54521538,18.8549655 5.77606154,19.6211724 5.77606154,20.5646207 C5.77606154,21.5094483 6.54521538,22.2749655 7.49367692,22.2749655 L15.2918308,22.2749655 L15.2918308,26.5556552 C13.4482154,27.0673793 11.4855231,28.5515172 10.3210615,32.2032414 C9.58444615,34.5142759 9.22029231,37.4811724 9.20921538,41.2632414 L0.0506769231,77.8763448 C-0.0767076923,78.3873793 0.0382153846,78.928069 0.3636,79.3432414 C0.689676923,79.7570345 1.18813846,79.9997931 1.71636923,79.9997931 L52.1932154,79.9997931 L52.1966769,79.9997931 C53.1444462,79.9997931 53.9129077,79.2342759 53.9129077,78.2901379 C53.9129077,78.1087586 53.8769077,77.9356552 53.8319077,77.7694483 Z" id="Fill-1" fill="#3333CC" mask="url(#mask-2)"></path>
            </g>
        </g>
    </g>
</svg>