<?xml version="1.0" encoding="UTF-8"?>
<svg width="20px" height="20px" viewBox="0 0 20 20" version="1.1" xmlns="http://www.w3.org/2000/svg" xmlns:xlink="http://www.w3.org/1999/xlink">
    <!-- Generator: Sketch 49.3 (51167) - http://www.bohemiancoding.com/sketch -->
    <title>Shape</title>
    <desc>Created with Sketch.</desc>
    <defs></defs>
    <g id="Landing-page" stroke="none" stroke-width="1" fill="none" fill-rule="evenodd">
        <g id="Desktop-HD" transform="translate(-1206.000000, -4823.000000)" fill="#251EC3" fill-rule="nonzero">
            <g id="footer" transform="translate(0.000000, 4755.000000)">
                <path d="M1216,68 C1210.47714,68 1206,72.4771355 1206,78 C1206,83.5228645 1210.47714,88 1216,88 C1221.52286,88 1226,83.5228645 1226,78 C1226,72.4771355 1221.52286,68 1216,68 Z M1212.25309,84.7705371 L1209.44184,84.7705371 L1209.44184,75.725422 L1212.25309,75.725422 L1212.25309,84.7705371 L1212.25309,84.7705371 Z M1210.84808,74.4890026 C1209.94701,74.4890026 1209.2176,73.7585678 1209.2176,72.8587212 C1209.2178,71.9596931 1209.94701,71.2292583 1210.84808,71.2292583 C1211.7467,71.2292583 1212.47714,71.9596931 1212.47714,72.8587212 C1212.47714,73.7587724 1211.7465,74.4890026 1210.84808,74.4890026 Z M1222.7822,84.7705371 L1219.9732,84.7705371 L1219.9732,80.3717647 C1219.9732,79.3227621 1219.95376,77.9736061 1218.51192,77.9736061 C1217.04982,77.9736061 1216.82496,79.1161125 1216.82496,80.2958568 L1216.82496,84.7703325 L1214.01616,84.7703325 L1214.01616,75.725422 L1216.71243,75.725422 L1216.71243,76.9614322 L1216.75028,76.9614322 C1217.12573,76.2502302 1218.04235,75.5005627 1219.41013,75.5005627 C1222.25678,75.5005627 1222.7822,77.373913 1222.7822,79.8093095 L1222.7822,84.7705371 Z" id="Shape"></path>
            </g>
        </g>
    </g>
</svg>