<?xml version="1.0" encoding="utf-8"?>
<!-- Generator: Adobe Illustrator 19.2.1, SVG Export Plug-In . SVG Version: 6.00 Build 0)  -->
<svg version="1.1" xmlns="http://www.w3.org/2000/svg" xmlns:xlink="http://www.w3.org/1999/xlink" x="0px" y="0px"
	 viewBox="0 0 1067.7 813.1" style="enable-background:new 0 0 1067.7 813.1;" xml:space="preserve">
<style type="text/css">
	.st0{display:none;}
	.st1{fill:#30DD9D;stroke:#3333CC;stroke-width:5;stroke-miterlimit:10;}
	.st2{fill:#FFFFFF;}
	.st3{fill:none;stroke:#30DD9D;stroke-miterlimit:10;}
	.st4{fill:#FFCA5F;}
	.st5{fill:#F87597;}
	.st6{fill:#F4F4F5;}
	.st7{fill:#00CC33;}
	.st8{fill:#261FC4;}
	.st9{fill:none;stroke:#CCCCCC;stroke-width:4;stroke-linecap:round;stroke-linejoin:round;stroke-miterlimit:10;}
	.st10{fill:#0DA062;}
	.st11{fill:#2B22D3;}
	.st12{fill:#00B673;}
	.st13{enable-background:new    ;}
	.st14{clip-path:url(#SVGID_2_);enable-background:new    ;}
	.st15{fill:#29ABE2;}
	.st16{clip-path:url(#SVGID_4_);enable-background:new    ;}
	.st17{clip-path:url(#SVGID_6_);enable-background:new    ;}
	.st18{clip-path:url(#SVGID_8_);enable-background:new    ;}
	.st19{clip-path:url(#SVGID_10_);enable-background:new    ;}
	.st20{clip-path:url(#SVGID_12_);enable-background:new    ;}
	.st21{clip-path:url(#SVGID_14_);enable-background:new    ;}
	.st22{clip-path:url(#SVGID_16_);enable-background:new    ;}
	.st23{fill:#FFF1DC;}
	.st24{clip-path:url(#SVGID_18_);enable-background:new    ;}
	.st25{clip-path:url(#SVGID_20_);enable-background:new    ;}
	.st26{clip-path:url(#SVGID_22_);enable-background:new    ;}
	.st27{clip-path:url(#SVGID_24_);enable-background:new    ;}
	.st28{clip-path:url(#SVGID_26_);enable-background:new    ;}
	.st29{clip-path:url(#SVGID_28_);enable-background:new    ;}
	.st30{clip-path:url(#SVGID_30_);enable-background:new    ;}
	.st31{clip-path:url(#SVGID_32_);enable-background:new    ;}
	.st32{clip-path:url(#SVGID_34_);enable-background:new    ;}
	.st33{clip-path:url(#SVGID_36_);enable-background:new    ;}
	.st34{clip-path:url(#SVGID_38_);enable-background:new    ;}
	.st35{clip-path:url(#SVGID_40_);enable-background:new    ;}
	.st36{clip-path:url(#SVGID_42_);enable-background:new    ;}
	.st37{clip-path:url(#SVGID_44_);enable-background:new    ;}
	.st38{clip-path:url(#SVGID_46_);enable-background:new    ;}
	.st39{clip-path:url(#SVGID_48_);enable-background:new    ;}
	.st40{clip-path:url(#SVGID_50_);enable-background:new    ;}
	.st41{clip-path:url(#SVGID_52_);enable-background:new    ;}
	.st42{clip-path:url(#SVGID_54_);enable-background:new    ;}
	.st43{clip-path:url(#SVGID_56_);enable-background:new    ;}
	.st44{clip-path:url(#SVGID_58_);enable-background:new    ;}
	.st45{clip-path:url(#SVGID_60_);enable-background:new    ;}
	.st46{clip-path:url(#SVGID_62_);enable-background:new    ;}
	.st47{clip-path:url(#SVGID_64_);enable-background:new    ;}
	.st48{fill:#FEFEFE;}
	.st49{fill:#5A3122;}
	.st50{fill:#CB8662;}
	.st51{fill:#004EBA;}
	.st52{fill:#0398E3;}
	.st53{fill:#542B1E;}
	.st54{fill:#273B55;}
	.st55{fill:#5166E1;}
	.st56{fill:#7DD485;}
	.st57{fill:#77C78A;}
	.st58{fill:#251EC3;}
	.st59{fill:#30DD9D;}
	.st60{fill:#3333CC;}
	.st61{fill:#D0B39D;}
	.st62{fill:#FC9682;}
	.st63{fill:#AA7650;}
	.st64{fill:#F4F6F7;}
	.st65{fill:#FFD492;}
	.st66{fill:#3C4264;}
	.st67{fill:#FFFFFF;stroke:#30DD9D;stroke-miterlimit:10;}
	.st68{fill:#F4F5F6;}
	.st69{fill:none;stroke:#29ABE2;stroke-width:2.9188;stroke-linecap:round;stroke-linejoin:round;stroke-miterlimit:10;}
	.st70{fill:none;stroke:#29ABE2;stroke-width:3;stroke-linecap:round;stroke-linejoin:round;stroke-miterlimit:10;}
	.st71{opacity:0.2;fill:#13B735;}
	.st72{fill:none;stroke:#3333CC;stroke-width:5;stroke-miterlimit:10;}
	.st73{fill:#FFFFFF;stroke:#3333CC;stroke-width:5;stroke-miterlimit:10;}
	.st74{fill:#30DD9D;stroke:#3333CC;stroke-width:5;stroke-linecap:round;stroke-linejoin:round;stroke-miterlimit:10;}
</style>
<g id="Capa_2" class="st0">
	
		<image style="display:inline;overflow:visible;" width="1670" height="1336" xlink:href="CFADF67ACB4CD45D.jpg"  transform="matrix(0.7665 0 0 0.7665 -82.3319 -81.4019)">
	</image>
</g>
<g id="Capa_3">
</g>
<g id="Capa_1">
	<path class="st1" d="M716.4-448.4h-71.5v-19c0-3.6,2.9-6.6,6.6-6.6h58.4c3.6,0,6.6,2.9,6.6,6.6V-448.4z"/>
	<ellipse class="st1" cx="339.7" cy="-347.4" rx="56.8" ry="15.5"/>
	<g>
		<g>
			
				<image style="overflow:visible;opacity:0.15;" width="347" height="197" xlink:href="CFADF67ACB4CD467.png"  transform="matrix(1 0 0 1 297.6681 362.0981)">
			</image>
			<g>
				<polygon class="st2" points="551.9,536.2 307.2,536.2 376.5,371.4 621.2,371.4 				"/>
				<polygon class="st3" points="551.9,536.2 307.2,536.2 376.5,371.4 621.2,371.4 				"/>
			</g>
		</g>
		<polygon class="st4" points="481.3,481.6 385.3,481.6 420.8,389.2 516.8,389.2 		"/>
		<polygon class="st5" points="376.7,481.6 342.8,481.6 378.3,389.2 412.2,389.2 		"/>
		<polygon class="st6" points="467.9,518.1 327.7,518.1 340.8,490.2 478.2,490.2 		"/>
		<polygon class="st7" points="568.3,471.5 499.7,471.5 509.7,445.2 578.3,445.2 		"/>
		<g>
			<g>
				<path class="st8" d="M531.9,413.2l-1,2.8c1,0.3,1.7,1,2,2c0.4,1,0.3,2.3,0,4l-3.5,0l0.1-0.5c0.4-1.7,0.1-2.5-0.7-2.6
					c-0.8,0-1.5,0.6-1.9,1.8l-0.2,0.5c-0.3,1.1-0.1,2,0.8,2.7c0.8,0.7,1.4,1.1,1.7,1.5c0.6,0.6,0.9,1.3,1.1,2
					c0.2,0.7,0.1,1.6-0.1,2.5c-0.3,1.4-1,2.6-2,3.5c-1,0.9-2.2,1.5-3.7,1.7l-0.9,2.5l-1.8,0l0.9-2.6c-1.2-0.3-2-0.9-2.4-2
					c-0.4-1.1-0.5-2.4-0.1-4.1l3.5,0l-0.2,0.9c-0.1,0.7-0.1,1.2,0.1,1.6c0.2,0.4,0.5,0.6,1,0.6c0.5,0,1-0.2,1.4-0.6
					c0.4-0.4,0.7-1,0.9-1.7c0.3-1.2,0.1-2.1-0.8-2.7c-0.9-0.6-1.5-1.1-1.8-1.6c-0.4-0.4-0.6-0.8-0.8-1.3c-0.2-0.4-0.3-0.9-0.3-1.4
					c0-0.5,0-1,0.2-1.7c0.3-1.4,1-2.6,2-3.5c1-0.9,2.2-1.5,3.6-1.7l1-2.7L531.9,413.2z"/>
			</g>
			<g>
				<path class="st8" d="M541.9,416C542,416,542,416,541.9,416c1.5,0,2.6,0.6,3.2,1.5c0.6,1,0.7,2.2,0.3,3.8
					c-0.2,0.9-0.6,1.8-1.2,2.6c-0.6,0.9-1.3,1.8-2.3,2.7l-2,1.9l-3.4,3.4l5.9,0.1l-1,3l-10.4-0.1l0.9-2.7l6.7-6.2
					c1.8-1.7,2.9-3.2,3.2-4.5l0.1-0.7c0.1-0.5,0.1-1-0.1-1.3c-0.1-0.3-0.4-0.5-0.8-0.5c-1.1,0-2,0.9-2.6,2.8l-0.1,0.3l-3.4,0
					c0.3-1.1,0.8-2.2,1.5-3.1c0.7-1,1.5-1.7,2.5-2.2C539.9,416.3,540.9,416,541.9,416z"/>
			</g>
			<g>
				<path class="st8" d="M547,431.2c0.6,0,1,0.2,1.3,0.6c0.3,0.4,0.4,0.8,0.3,1.4c-0.1,0.6-0.4,1.1-0.9,1.5c-0.5,0.4-1,0.6-1.5,0.6
					c-0.6,0-1-0.2-1.3-0.6c-0.3-0.4-0.4-0.8-0.3-1.4c0.1-0.6,0.4-1.1,0.8-1.5C545.9,431.4,546.4,431.2,547,431.2z"/>
			</g>
			<g>
				<path class="st8" d="M565.2,418c0.5,1.1,0.6,2.6,0.2,4.6c-0.1,0.6-0.3,1.2-0.4,1.7l-1.2,3.8c-1,2.9-2.2,4.9-3.7,6.1
					c-1.1,0.9-2.3,1.3-3.5,1.3c-0.1,0-0.1,0-0.2,0c-0.9,0-1.7-0.3-2.2-0.8c-0.6-0.5-0.9-1.3-1-2.2c-0.1-1-0.1-2.1,0.2-3.2
					c0.1-0.6,0.3-1.2,0.4-1.7l1.2-3.6c0.8-2.6,1.9-4.5,3.2-5.7c1.2-1.2,2.6-1.8,4.2-1.8c0.1,0,0.1,0,0.2,0
					C563.7,416.3,564.7,416.9,565.2,418z M562,422.3l0.2-1.1c0.1-0.6,0.1-1-0.1-1.4c-0.1-0.3-0.4-0.5-0.7-0.6c0,0-0.1,0-0.1,0
					c-0.6,0-1.1,0.3-1.6,0.9c-0.5,0.7-1,1.8-1.5,3.5l-1.3,4.3l-0.4,1.4l-0.2,1.1c-0.2,1.2,0.1,1.9,0.8,1.9c0,0,0.1,0,0.1,0
					c0.5,0,1.1-0.3,1.5-0.9c0.5-0.7,1-1.8,1.5-3.6l1.3-4.3L562,422.3"/>
			</g>
			<g>
				<path class="st8" d="M577.8,418.1c0.5,1.1,0.6,2.6,0.2,4.6c-0.1,0.6-0.3,1.2-0.4,1.7l-1.2,3.8c-1,2.9-2.2,4.9-3.7,6.1
					c-1.1,0.9-2.3,1.3-3.5,1.3c-0.1,0-0.1,0-0.2,0c-0.9,0-1.7-0.3-2.2-0.8c-0.6-0.5-0.9-1.3-1-2.2c-0.1-1-0.1-2.1,0.2-3.2
					c0.1-0.6,0.3-1.2,0.4-1.7l1.2-3.6c0.8-2.6,1.9-4.5,3.2-5.7c1.2-1.2,2.6-1.8,4.2-1.8c0.1,0,0.1,0,0.2,0
					C576.4,416.4,577.3,417,577.8,418.1z M574.7,422.4l0.2-1.1c0.1-0.6,0.1-1-0.1-1.4c-0.1-0.3-0.4-0.5-0.7-0.6c0,0-0.1,0-0.1,0
					c-0.6,0-1.1,0.3-1.6,0.9c-0.5,0.7-1,1.8-1.5,3.5l-1.3,4.3l-0.4,1.4l-0.2,1.1c-0.2,1.2,0.1,1.9,0.8,1.9c0,0,0.1,0,0.1,0
					c0.5,0,1.1-0.3,1.5-0.9c0.5-0.7,1-1.8,1.5-3.6l1.3-4.3L574.7,422.4"/>
			</g>
		</g>
		<line class="st9" x1="535.2" y1="392.1" x2="594" y2="392.1"/>
		<line class="st9" x1="501.2" y1="481.6" x2="560" y2="481.6"/>
		<line class="st9" x1="494.2" y1="495.6" x2="553" y2="495.6"/>
		<line class="st9" x1="530.6" y1="402.1" x2="565.2" y2="402.1"/>
		
			<ellipse transform="matrix(0.3236 -0.9462 0.9462 0.3236 -149.2355 819.4257)" class="st10" cx="498.5" cy="514.1" rx="6.2" ry="5.4"/>
		
			<ellipse transform="matrix(0.3236 -0.9462 0.9462 0.3236 -136.8732 836.7197)" class="st11" cx="516.8" cy="514.1" rx="6.2" ry="5.4"/>
		
			<ellipse transform="matrix(0.3236 -0.9462 0.9462 0.3236 -124.2518 854.3762)" class="st12" cx="535.5" cy="514.1" rx="6.2" ry="5.4"/>
		<g>
			<g>
				<g class="st13">
					<g class="st13">
						<defs>
							<path id="SVGID_1_" class="st13" d="M441.7,415l2.3,3.3c-1.4,0-2.7,0.9-3.3,2.1l-2.3-3.3C439,415.9,440.4,415,441.7,415z"/>
						</defs>
						<clipPath id="SVGID_2_">
							<use xlink:href="#SVGID_1_"  style="overflow:visible;"/>
						</clipPath>
						<g class="st14">
							<path class="st15" d="M441.7,415l2.3,3.3c-0.3,0-0.6,0-0.9,0.1l-2.3-3.3C441.1,415,441.4,415,441.7,415"/>
							<path class="st15" d="M440.9,415.1l2.3,3.3c-0.1,0-0.3,0.1-0.4,0.1l-2.3-3.3C440.6,415.2,440.7,415.1,440.9,415.1"/>
							<path class="st15" d="M440.5,415.2l2.3,3.3c-0.1,0-0.2,0.1-0.3,0.1l-2.3-3.3C440.3,415.3,440.4,415.3,440.5,415.2"/>
							<path class="st15" d="M440.2,415.4l2.3,3.3c-0.1,0-0.2,0.1-0.3,0.1l-2.3-3.3C440,415.4,440.1,415.4,440.2,415.4"/>
							<path class="st15" d="M439.9,415.5l2.3,3.3c-0.1,0-0.2,0.1-0.2,0.1l-2.3-3.3C439.8,415.6,439.9,415.5,439.9,415.5"/>
							<path class="st15" d="M439.7,415.6l2.3,3.3c-0.1,0.1-0.1,0.1-0.2,0.2l-2.3-3.3C439.6,415.7,439.6,415.7,439.7,415.6"/>
							<path class="st15" d="M439.5,415.8l2.3,3.3c-0.1,0.1-0.1,0.1-0.2,0.2l-2.3-3.3C439.3,415.9,439.4,415.9,439.5,415.8"/>
							<path class="st15" d="M439.3,416l2.3,3.3c-0.1,0.1-0.1,0.1-0.2,0.2l-2.3-3.3C439.2,416.1,439.2,416,439.3,416"/>
							<path class="st15" d="M439.1,416.2l2.3,3.3c-0.1,0.1-0.1,0.1-0.2,0.2l-2.3-3.3C439,416.3,439,416.2,439.1,416.2"/>
							<path class="st15" d="M438.9,416.4l2.3,3.3c-0.1,0.1-0.1,0.2-0.2,0.3l-2.3-3.3C438.8,416.6,438.8,416.5,438.9,416.4"/>
							<path class="st15" d="M438.7,416.7l2.3,3.3c-0.1,0.1-0.2,0.3-0.2,0.4l-2.3-3.3C438.5,416.9,438.6,416.8,438.7,416.7"/>
							<path class="st15" d="M438.5,417.1l2.3,3.3c0,0,0,0,0,0.1L438.5,417.1C438.5,417.1,438.5,417.1,438.5,417.1"/>
						</g>
					</g>
					<g>
						<polygon class="st15" points="436.4,421.9 438.7,425.2 437.7,425.2 435.5,421.9 						"/>
					</g>
					<g>
						<polygon class="st15" points="438.5,417.1 440.7,420.4 438.7,425.2 436.4,421.9 						"/>
					</g>
					<g class="st13">
						<defs>
							<path id="SVGID_3_" class="st13" d="M434.7,428.5l-2.3-3.3c-0.2-0.3-0.3-0.6-0.2-1c0.2-0.8,1-1.5,1.9-1.5l2.3,3.3
								c-0.9,0-1.7,0.6-1.9,1.5C434.5,427.9,434.5,428.2,434.7,428.5z"/>
						</defs>
						<clipPath id="SVGID_4_">
							<use xlink:href="#SVGID_3_"  style="overflow:visible;"/>
						</clipPath>
						<g class="st16">
							<path class="st15" d="M434.2,422.7l2.3,3.3c-0.2,0-0.3,0-0.5,0.1l-2.3-3.3C433.9,422.8,434.1,422.7,434.2,422.7"/>
							<path class="st15" d="M433.7,422.8l2.3,3.3c-0.1,0-0.1,0-0.2,0.1l-2.3-3.3C433.6,422.8,433.7,422.8,433.7,422.8"/>
							<path class="st15" d="M433.5,422.9l2.3,3.3c-0.1,0-0.1,0-0.2,0.1l-2.3-3.3C433.4,422.9,433.5,422.9,433.5,422.9"/>
							<path class="st15" d="M433.4,422.9l2.3,3.3c0,0-0.1,0-0.1,0.1l-2.3-3.3C433.3,423,433.3,423,433.4,422.9"/>
							<path class="st15" d="M433.2,423l2.3,3.3c0,0-0.1,0.1-0.1,0.1l-2.3-3.3C433.1,423.1,433.2,423,433.2,423"/>
							<path class="st15" d="M433.1,423.1l2.3,3.3c0,0-0.1,0.1-0.1,0.1l-2.3-3.3C433,423.1,433.1,423.1,433.1,423.1"/>
							<path class="st15" d="M433,423.2l2.3,3.3c0,0-0.1,0.1-0.1,0.1l-2.3-3.3C432.9,423.2,432.9,423.2,433,423.2"/>
							<path class="st15" d="M432.9,423.3l2.3,3.3c0,0-0.1,0.1-0.1,0.1l-2.3-3.3C432.8,423.3,432.8,423.3,432.9,423.3"/>
							<path class="st15" d="M432.7,423.4l2.3,3.3c0,0-0.1,0.1-0.1,0.1l-2.3-3.3C432.7,423.5,432.7,423.4,432.7,423.4"/>
							<path class="st15" d="M432.6,423.5l2.3,3.3c0,0.1-0.1,0.1-0.1,0.2l-2.3-3.3C432.6,423.6,432.6,423.6,432.6,423.5"/>
							<path class="st15" d="M432.5,423.7l2.3,3.3c0,0.1-0.1,0.1-0.1,0.2l-2.3-3.3C432.4,423.8,432.5,423.7,432.5,423.7"/>
							<path class="st15" d="M432.4,423.9l2.3,3.3c0,0.1-0.1,0.2-0.1,0.3c0,0.1,0,0.2,0,0.3l-2.3-3.3c0-0.1,0-0.2,0-0.3
								C432.3,424.1,432.4,424,432.4,423.9"/>
							<path class="st15" d="M432.3,424.5l2.3,3.3c0,0.1,0,0.2,0,0.2l-2.3-3.3C432.3,424.7,432.3,424.6,432.3,424.5"/>
							<path class="st15" d="M432.3,424.8l2.3,3.3c0,0.1,0,0.1,0,0.2l-2.3-3.3C432.3,424.9,432.3,424.8,432.3,424.8"/>
							<path class="st15" d="M432.3,424.9l2.3,3.3c0,0,0,0.1,0.1,0.1l-2.3-3.3C432.4,425,432.3,425,432.3,424.9"/>
							<path class="st15" d="M432.4,425.1l2.3,3.3c0,0,0,0.1,0.1,0.1l-2.3-3.3C432.4,425.1,432.4,425.1,432.4,425.1"/>
							<path class="st15" d="M432.4,425.2l2.3,3.3c0,0,0,0,0,0L432.4,425.2C432.5,425.2,432.5,425.2,432.4,425.2"/>
						</g>
					</g>
					<g class="st13">
						<defs>
							<path id="SVGID_5_" class="st13" d="M434.7,428.5l-2.3-3.3c0.2,0.3,0.6,0.5,1.1,0.5l2.3,3.3C435.3,429,435,428.8,434.7,428.5
								z"/>
						</defs>
						<clipPath id="SVGID_6_">
							<use xlink:href="#SVGID_5_"  style="overflow:visible;"/>
						</clipPath>
						<g class="st17">
							<path class="st2" d="M433.6,425.8l2.3,3.3c-0.5,0-0.9-0.2-1.1-0.5l-2.3-3.3C432.7,425.5,433.1,425.7,433.6,425.8"/>
						</g>
					</g>
					<g class="st13">
						<defs>
							<path id="SVGID_7_" class="st13" d="M433.9,429.1l-2.3-3.3c0.3,0.5,1,0.8,1.7,0.9l2.3,3.3
								C434.9,429.9,434.3,429.6,433.9,429.1z"/>
						</defs>
						<clipPath id="SVGID_8_">
							<use xlink:href="#SVGID_7_"  style="overflow:visible;"/>
						</clipPath>
						<g class="st18">
							<path class="st15" d="M433.4,426.6l2.3,3.3c-0.8,0-1.4-0.4-1.7-0.9l-2.3-3.3C432,426.3,432.6,426.6,433.4,426.6"/>
						</g>
					</g>
					<g>
						<polygon class="st15" points="433.5,426.6 435.7,429.9 435.6,429.9 433.4,426.6 						"/>
					</g>
					<g class="st13">
						<defs>
							<path id="SVGID_9_" class="st13" d="M460.9,416.4l2.3,3.3c-0.4-0.6-1.1-0.9-1.9-1l-2.3-3.3
								C459.9,415.5,460.5,415.8,460.9,416.4z"/>
						</defs>
						<clipPath id="SVGID_10_">
							<use xlink:href="#SVGID_9_"  style="overflow:visible;"/>
						</clipPath>
						<g class="st19">
							<path class="st15" d="M460.9,416.4l2.3,3.3c-0.4-0.6-1.1-0.9-1.9-1l-2.3-3.3C459.9,415.5,460.5,415.8,460.9,416.4"/>
						</g>
					</g>
					<g>
						<polygon class="st2" points="461.3,417.7 463.6,421 463.5,425.8 461.2,422.5 						"/>
					</g>
					<g>
						<polygon class="st2" points="461.2,422.5 463.5,425.8 438.7,425.2 436.4,421.9 						"/>
					</g>
					<g class="st13">
						<defs>
							<path id="SVGID_11_" class="st13" d="M460.9,416.4l2.3,3.3c0.2,0.4,0.4,0.8,0.4,1.3l-2.3-3.3
								C461.3,417.2,461.2,416.8,460.9,416.4z"/>
						</defs>
						<clipPath id="SVGID_12_">
							<use xlink:href="#SVGID_11_"  style="overflow:visible;"/>
						</clipPath>
						<g class="st20">
							<path class="st2" d="M460.9,416.4l2.3,3.3c0,0,0,0.1,0.1,0.1L460.9,416.4C461,416.5,461,416.4,460.9,416.4"/>
							<path class="st2" d="M461,416.5l2.3,3.3c0,0.1,0.1,0.1,0.1,0.2l-2.3-3.3C461.1,416.6,461,416.5,461,416.5"/>
							<path class="st2" d="M461.1,416.7l2.3,3.3c0,0.1,0.1,0.2,0.1,0.2l-2.3-3.3C461.2,416.8,461.1,416.8,461.1,416.7"/>
							<path class="st2" d="M461.2,416.9l2.3,3.3c0,0.1,0.1,0.2,0.1,0.3l-2.3-3.3C461.2,417.1,461.2,417,461.2,416.9"/>
							<path class="st2" d="M461.3,417.2l2.3,3.3c0,0.1,0,0.3,0,0.4l-2.3-3.3C461.3,417.5,461.3,417.3,461.3,417.2"/>
							<path class="st2" d="M461.3,417.6l2.3,3.3c0,0,0,0,0,0.1L461.3,417.6C461.3,417.7,461.3,417.6,461.3,417.6"/>
						</g>
					</g>
					<g>
						<polygon class="st15" points="462.2,417.5 464.5,420.8 464.4,425.8 462.1,422.5 						"/>
					</g>
					<g>
						<polygon class="st15" points="462.1,422.5 464.4,425.8 463.5,425.8 461.2,422.5 						"/>
					</g>
					<g>
						<polygon class="st15" points="463,423.4 465.3,426.7 436.5,426 434.2,422.7 						"/>
					</g>
					<g>
						<polygon class="st2" points="462.3,426.5 464.6,429.7 435.8,429.1 433.6,425.8 						"/>
					</g>
					<g>
						<polygon class="st15" points="434.4,426.7 436.7,430 435.7,429.9 433.5,426.6 						"/>
					</g>
					<g>
						<polygon class="st15" points="433.3,431.7 435.6,435 435.6,435.2 433.3,431.9 						"/>
					</g>
					<g>
						<polygon class="st15" points="434.4,426.7 436.7,430 436.5,435 434.3,431.7 						"/>
					</g>
					<g>
						<polygon class="st15" points="434.4,426.7 434.3,431.7 433.3,431.7 433.3,431.9 433.5,426.6 						"/>
					</g>
					<g>
						<polygon class="st15" points="434.3,431.7 436.5,435 435.6,435 433.3,431.7 						"/>
					</g>
					<g>
						<polygon class="st15" points="459,415.4 461.3,418.7 444,418.3 441.7,415 						"/>
					</g>
					<g class="st13">
						<defs>
							<path id="SVGID_13_" class="st13" d="M461.8,415.8l2.3,3.3c0.3,0.5,0.5,1.1,0.5,1.7l-2.3-3.3
								C462.3,416.9,462.1,416.3,461.8,415.8z"/>
						</defs>
						<clipPath id="SVGID_14_">
							<use xlink:href="#SVGID_13_"  style="overflow:visible;"/>
						</clipPath>
						<g class="st21">
							<path class="st15" d="M461.8,415.8l2.3,3.3c0,0,0,0.1,0.1,0.1l-2.3-3.3C461.8,415.9,461.8,415.9,461.8,415.8"/>
							<path class="st15" d="M461.8,415.9l2.3,3.3c0.1,0.1,0.1,0.2,0.1,0.3l-2.3-3.3C461.9,416.1,461.9,416,461.8,415.9"/>
							<path class="st15" d="M462,416.2l2.3,3.3c0,0.1,0.1,0.2,0.1,0.3l-2.3-3.3C462.1,416.4,462,416.3,462,416.2"/>
							<path class="st15" d="M462.1,416.5l2.3,3.3c0,0.1,0.1,0.2,0.1,0.4l-2.3-3.3C462.2,416.8,462.1,416.6,462.1,416.5"/>
							<path class="st15" d="M462.2,416.9l2.3,3.3c0,0.2,0.1,0.4,0.1,0.5l-2.3-3.3C462.2,417.3,462.2,417.1,462.2,416.9"/>
							<path class="st15" d="M462.2,417.4l2.3,3.3c0,0,0,0.1,0,0.1L462.2,417.4C462.2,417.5,462.2,417.5,462.2,417.4"/>
						</g>
					</g>
					<g>
						<path class="st2" d="M459,415.4c1.4,0,2.3,1,2.3,2.2l-0.1,4.8l-24.8-0.6l2-4.8c0.5-1.3,1.9-2.1,3.3-2.1L459,415.4z"/>
					</g>
					<g>
						<path class="st15" d="M459.2,414.6c1.8,0,3.1,1.3,3,3l-0.1,5l-0.9,0l0.1-4.8c0-1.3-0.9-2.2-2.3-2.2l-17.3-0.4
							c-1.4,0-2.7,0.9-3.3,2.1l-2,4.8l-0.9,0l2.1-4.9c0.7-1.7,2.5-2.9,4.3-2.8L459.2,414.6z"/>
					</g>
					<g>
						<polygon class="st2" points="458.6,432.3 460.8,435.6 436.5,435 434.3,431.7 						"/>
					</g>
					<g>
						<polygon class="st15" points="458.2,433.2 460.5,436.4 436.5,435.9 434.2,432.6 						"/>
					</g>
					<g class="st13">
						<defs>
							<path id="SVGID_15_" class="st13" d="M449.8,438.1c-1.7,0-3.7,1-5.9,3.1c-0.8-1.1-1.5-2.2-2.3-3.3c2.3-2.1,4.2-3.2,5.9-3.1
								C448.3,435.9,449,437,449.8,438.1z"/>
						</defs>
						<clipPath id="SVGID_16_">
							<use xlink:href="#SVGID_15_"  style="overflow:visible;"/>
						</clipPath>
						<g class="st22">
							<path class="st23" d="M451.3,437l2.3,3.3c-0.2-0.3-0.5-0.6-0.7-0.9c-0.9-0.8-1.9-1.3-3-1.3c-0.4,0-0.8,0-1.3,0.2l-2.3-3.3
								c0.4-0.1,0.9-0.2,1.3-0.2c1.1,0,2.1,0.5,3,1.3C450.8,436.4,451,436.7,451.3,437"/>
							<path class="st23" d="M446.3,434.9l2.3,3.3c-0.2,0.1-0.4,0.1-0.6,0.2l-2.3-3.3C445.8,435.1,446.1,435,446.3,434.9"/>
							<path class="st23" d="M445.6,435.1l2.3,3.3c-0.2,0.1-0.4,0.2-0.6,0.3l-2.3-3.3C445.2,435.3,445.4,435.2,445.6,435.1"/>
							<path class="st23" d="M445,435.4l2.3,3.3c-0.2,0.1-0.4,0.2-0.6,0.3l-2.3-3.3C444.6,435.6,444.8,435.5,445,435.4"/>
							<path class="st23" d="M444.4,435.7l2.3,3.3c-0.2,0.1-0.5,0.3-0.7,0.4l-2.3-3.3C443.9,436,444.2,435.9,444.4,435.7"/>
							<path class="st23" d="M443.7,436.2l2.3,3.3c-0.3,0.2-0.6,0.4-0.8,0.6l-2.3-3.3C443.2,436.6,443.4,436.4,443.7,436.2"/>
							<path class="st23" d="M442.9,436.8l2.3,3.3c-0.4,0.3-0.7,0.6-1.1,0.9l-2.3-3.3C442.1,437.4,442.5,437.1,442.9,436.8"/>
							<path class="st23" d="M441.8,437.8l2.3,3.3c-0.1,0-0.1,0.1-0.2,0.1c-0.4,0.3-0.7,0.7-1,1l-2.3-3.3c0.3-0.3,0.6-0.7,1-1
								C441.7,437.9,441.7,437.8,441.8,437.8"/>
						</g>
					</g>
					<g class="st13">
						<defs>
							<path id="SVGID_17_" class="st13" d="M464.1,424l2.3,3.3c-0.2-0.3-0.6-0.5-1.1-0.5l-2.3-3.3
								C463.5,423.4,463.9,423.7,464.1,424z"/>
						</defs>
						<clipPath id="SVGID_18_">
							<use xlink:href="#SVGID_17_"  style="overflow:visible;"/>
						</clipPath>
						<g class="st24">
							<path class="st15" d="M464.1,424l2.3,3.3c-0.2-0.3-0.6-0.5-1.1-0.5l-2.3-3.3C463.5,423.4,463.9,423.7,464.1,424"/>
						</g>
					</g>
					<g>
						<polygon class="st15" points="460.7,427.3 462.9,430.6 436.7,430 434.4,426.7 						"/>
					</g>
					<g class="st13">
						<defs>
							<path id="SVGID_19_" class="st13" d="M443.9,441.2c-2.1,1.9-3.1,3.6-3.3,5c-0.8-1.1-1.5-2.2-2.3-3.3c0.2-1.4,1.2-3.1,3.3-5
								C442.4,439,443.1,440.1,443.9,441.2z"/>
						</defs>
						<clipPath id="SVGID_20_">
							<use xlink:href="#SVGID_19_"  style="overflow:visible;"/>
						</clipPath>
						<g class="st25">
							<path class="st23" d="M441.8,437.8l2.3,3.3c-0.1,0-0.1,0.1-0.2,0.1c-0.4,0.3-0.7,0.7-1,1l-2.3-3.3c0.3-0.3,0.6-0.7,1-1
								C441.7,437.9,441.7,437.8,441.8,437.8"/>
							<path class="st23" d="M440.6,438.9l2.3,3.3c-0.3,0.3-0.6,0.7-0.8,1l-2.3-3.3C440,439.6,440.3,439.3,440.6,438.9"/>
							<path class="st23" d="M439.8,439.9l2.3,3.3c-0.2,0.3-0.4,0.6-0.6,0.8l-2.3-3.3C439.3,440.5,439.5,440.2,439.8,439.9"/>
							<path class="st23" d="M439.2,440.7l2.3,3.3c-0.2,0.3-0.3,0.6-0.5,0.9l-2.3-3.3C438.8,441.3,439,441,439.2,440.7"/>
							<path class="st23" d="M438.7,441.6l2.3,3.3c-0.2,0.5-0.3,0.9-0.4,1.3c0,0.1,0,0.3,0,0.4l-2.3-3.3c0-0.1,0-0.3,0-0.4
								C438.4,442.5,438.5,442.1,438.7,441.6"/>
						</g>
					</g>
					<g class="st13">
						<defs>
							<path id="SVGID_21_" class="st13" d="M452.8,439.4c-0.9-0.8-1.9-1.3-3-1.3c-0.8-1.1-1.5-2.2-2.3-3.3c1.1,0,2.1,0.5,3,1.3
								C451.3,437.2,452,438.3,452.8,439.4z"/>
						</defs>
						<clipPath id="SVGID_22_">
							<use xlink:href="#SVGID_21_"  style="overflow:visible;"/>
						</clipPath>
						<g class="st26">
							<path class="st23" d="M451.3,437l2.3,3.3c-0.2-0.3-0.5-0.6-0.7-0.9c-0.9-0.8-1.9-1.3-3-1.3c-0.4,0-0.8,0-1.3,0.2l-2.3-3.3
								c0.4-0.1,0.9-0.2,1.3-0.2c1.1,0,2.1,0.5,3,1.3C450.8,436.4,451,436.7,451.3,437"/>
						</g>
					</g>
					<g class="st13">
						<defs>
							<path id="SVGID_23_" class="st13" d="M441.5,446.2c-0.1,0.6,0.1,1.2,0.5,1.7l-2.3-3.3c-0.4-0.6-0.5-1.1-0.5-1.7
								c0.1-1.2,1.1-2.6,3-4.4c2.3-2.1,3.9-2.8,5.1-2.8c0.6,0,1.1,0.2,1.6,0.5l2.3,3.3c-0.5-0.3-1-0.5-1.6-0.5
								c-1.3,0-2.9,0.7-5.1,2.8C442.6,443.5,441.6,445,441.5,446.2z"/>
						</defs>
						<clipPath id="SVGID_24_">
							<use xlink:href="#SVGID_23_"  style="overflow:visible;"/>
						</clipPath>
						<g class="st27">
							<path class="st15" d="M448.9,436.2l2.3,3.3c-0.5-0.3-1-0.5-1.6-0.5c-0.3,0-0.6,0-1,0.1l-2.3-3.3c0.4-0.1,0.7-0.1,1-0.1
								C448,435.7,448.5,435.9,448.9,436.2"/>
							<path class="st15" d="M446.3,435.8l2.3,3.3c-0.2,0-0.3,0.1-0.5,0.2l-2.3-3.3C446,435.9,446.2,435.8,446.3,435.8"/>
							<path class="st15" d="M445.8,436l2.3,3.3c-0.2,0.1-0.3,0.1-0.5,0.2l-2.3-3.3C445.5,436.1,445.7,436,445.8,436"/>
							<path class="st15" d="M445.3,436.2l2.3,3.3c-0.2,0.1-0.4,0.2-0.5,0.3l-2.3-3.3C445,436.4,445.1,436.3,445.3,436.2"/>
							<path class="st15" d="M444.8,436.5l2.3,3.3c-0.2,0.1-0.4,0.2-0.6,0.4l-2.3-3.3C444.4,436.7,444.6,436.6,444.8,436.5"/>
							<path class="st15" d="M444.2,436.9l2.3,3.3c-0.2,0.2-0.5,0.4-0.8,0.6l-2.3-3.3C443.7,437.2,443.9,437,444.2,436.9"/>
							<path class="st15" d="M443.4,437.4l2.3,3.3c-0.3,0.3-0.7,0.5-1,0.9l-2.3-3.3C442.7,438,443.1,437.7,443.4,437.4"/>
							<path class="st15" d="M442.4,438.3l2.3,3.3c-0.1,0-0.1,0.1-0.2,0.1c-0.4,0.3-0.7,0.7-1,1l-2.3-3.3c0.3-0.3,0.6-0.6,1-1
								C442.3,438.4,442.3,438.4,442.4,438.3"/>
							<path class="st15" d="M441.2,439.4l2.3,3.3c-0.3,0.3-0.5,0.6-0.8,0.9l-2.3-3.3C440.7,440,441,439.7,441.2,439.4"/>
							<path class="st15" d="M440.5,440.3l2.3,3.3c-0.2,0.3-0.4,0.5-0.5,0.7l-2.3-3.3C440.1,440.8,440.3,440.6,440.5,440.3"/>
							<path class="st15" d="M440,441.1l2.3,3.3c-0.2,0.3-0.3,0.5-0.4,0.7l-2.3-3.3C439.7,441.6,439.8,441.3,440,441.1"/>
							<path class="st15" d="M439.6,441.8l2.3,3.3c-0.2,0.4-0.3,0.7-0.3,1.1c0,0.1,0,0.2,0,0.3l-2.3-3.3c0-0.1,0-0.2,0-0.3
								C439.3,442.5,439.4,442.2,439.6,441.8"/>
							<path class="st15" d="M439.2,443.2l2.3,3.3c0,0.1,0,0.3,0,0.4l-2.3-3.3C439.3,443.4,439.2,443.3,439.2,443.2"/>
							<path class="st15" d="M439.3,443.6l2.3,3.3c0,0.1,0,0.2,0.1,0.3l-2.3-3.3C439.3,443.8,439.3,443.7,439.3,443.6"/>
							<path class="st15" d="M439.4,443.9l2.3,3.3c0,0.1,0.1,0.2,0.1,0.3l-2.3-3.3C439.4,444.1,439.4,444,439.4,443.9"/>
							<path class="st15" d="M439.5,444.2l2.3,3.3c0,0.1,0.1,0.2,0.2,0.3l-2.3-3.3C439.6,444.4,439.5,444.3,439.5,444.2"/>
							<path class="st15" d="M439.6,444.5l2.3,3.3c0,0,0.1,0.1,0.1,0.1l-2.3-3.3C439.7,444.6,439.7,444.5,439.6,444.5"/>
						</g>
					</g>
					<g class="st13">
						<defs>
							<path id="SVGID_25_" class="st13" d="M447.4,436.7c0.7,1,1.3,1.9,2,2.9C448.8,438.7,448.1,437.7,447.4,436.7
								C447.4,436.7,447.4,436.7,447.4,436.7C447.4,436.7,447.4,436.7,447.4,436.7z"/>
						</defs>
						<clipPath id="SVGID_26_">
							<use xlink:href="#SVGID_25_"  style="overflow:visible;"/>
						</clipPath>
						<g class="st28">
							<path class="st2" d="M447.6,436.7l2.3,3.3c0,0-0.1,0.1-0.1,0.1c0,0-0.1,0.1-0.1,0.1l-2.3-3.3c0,0,0.1-0.1,0.1-0.1
								C447.5,436.7,447.5,436.7,447.6,436.7"/>
						</g>
					</g>
					<g>
						<polygon class="st15" points="461.6,427.3 463.9,430.6 462.9,430.6 460.7,427.3 						"/>
					</g>
					<g class="st13">
						<defs>
							<path id="SVGID_27_" class="st13" d="M464.6,429.7c-0.8-1.1-1.5-2.2-2.3-3.3c0.9,0,1.7-0.6,1.9-1.5c0,0,0,0,0,0c0,0,0,0,0,0
								c0.8,1.1,1.5,2.2,2.3,3.3c-0.8-1.1-1.5-2.2-2.3-3.3c0.1-0.4,0-0.7-0.2-1l2.3,3.3c0.2,0.3,0.3,0.6,0.2,1
								C466.3,429.1,465.5,429.8,464.6,429.7z"/>
						</defs>
						<clipPath id="SVGID_28_">
							<use xlink:href="#SVGID_27_"  style="overflow:visible;"/>
						</clipPath>
						<g class="st29">
							<path class="st2" d="M464.1,424l2.3,3.3c0,0,0,0,0,0L464.1,424C464.1,424,464.1,424,464.1,424"/>
							<path class="st2" d="M464.1,424l2.3,3.3c0,0,0,0.1,0.1,0.1l-2.3-3.3C464.2,424.1,464.1,424.1,464.1,424"/>
							<path class="st2" d="M464.2,424.1l2.3,3.3c0,0,0,0.1,0.1,0.1l-2.3-3.3C464.2,424.2,464.2,424.2,464.2,424.1"/>
							<path class="st2" d="M464.2,424.3l2.3,3.3c0,0.1,0,0.1,0,0.2l-2.3-3.3C464.3,424.4,464.2,424.3,464.2,424.3"/>
							<path class="st2" d="M464.3,424.4l2.3,3.3c0,0.1,0,0.1,0,0.2l-2.3-3.3C464.3,424.6,464.3,424.5,464.3,424.4"/>
							<path class="st2" d="M464.3,424.7l2.3,3.3c0,0.1,0,0.2,0,0.3c0,0.1-0.1,0.2-0.1,0.3l-2.3-3.3c0-0.1,0.1-0.2,0.1-0.3
								C464.3,424.9,464.3,424.8,464.3,424.7"/>
							<path class="st2" d="M464.2,425.3l2.3,3.3c0,0.1-0.1,0.2-0.1,0.2l-2.3-3.3C464.1,425.5,464.1,425.4,464.2,425.3"/>
							<path class="st2" d="M464,425.5l2.3,3.3c0,0.1-0.1,0.1-0.1,0.2l-2.3-3.3C464,425.6,464,425.6,464,425.5"/>
							<path class="st2" d="M463.9,425.7l2.3,3.3c0,0-0.1,0.1-0.1,0.1l-2.3-3.3C463.9,425.8,463.9,425.7,463.9,425.7"/>
							<path class="st2" d="M463.8,425.8l2.3,3.3c0,0-0.1,0.1-0.1,0.1l-2.3-3.3C463.7,425.9,463.8,425.8,463.8,425.8"/>
							<path class="st2" d="M463.7,425.9l2.3,3.3c0,0-0.1,0.1-0.1,0.1l-2.3-3.3C463.6,426,463.7,425.9,463.7,425.9"/>
							<path class="st2" d="M463.6,426l2.3,3.3c0,0-0.1,0.1-0.1,0.1l-2.3-3.3C463.5,426.1,463.6,426,463.6,426"/>
							<path class="st2" d="M463.5,426.1l2.3,3.3c0,0-0.1,0.1-0.1,0.1l-2.3-3.3C463.4,426.2,463.4,426.1,463.5,426.1"/>
							<path class="st2" d="M463.3,426.2l2.3,3.3c0,0-0.1,0.1-0.1,0.1l-2.3-3.3C463.2,426.2,463.3,426.2,463.3,426.2"/>
							<path class="st2" d="M463.2,426.3l2.3,3.3c-0.1,0-0.1,0-0.2,0.1l-2.3-3.3C463.1,426.3,463.1,426.3,463.2,426.3"/>
							<path class="st2" d="M463,426.3l2.3,3.3c-0.1,0-0.1,0-0.2,0.1l-2.3-3.3C462.9,426.4,463,426.4,463,426.3"/>
							<path class="st2" d="M462.8,426.4l2.3,3.3c-0.2,0-0.3,0.1-0.5,0.1l-2.3-3.3C462.5,426.5,462.7,426.4,462.8,426.4"/>
						</g>
					</g>
					<g>
						<path class="st2" d="M463,423.4c0.9,0,1.4,0.7,1.2,1.5s-1,1.5-1.9,1.5l-28.8-0.7c-0.9,0-1.4-0.7-1.2-1.5
							c0.2-0.8,1-1.5,1.9-1.5L463,423.4z"/>
					</g>
					<g>
						<polygon class="st15" points="462.1,427.3 464.4,430.6 463.9,430.6 461.6,427.3 						"/>
					</g>
					<g class="st13">
						<defs>
							<path id="SVGID_29_" class="st13" d="M449.7,440c-1,0.7-1.9,1.8-2.4,3.1c-0.8-1.1-1.5-2.2-2.3-3.3c0.5-1.3,1.4-2.5,2.4-3.1
								c0.5-0.3,1-0.5,1.5-0.6c0.8,1.1,1.5,2.2,2.3,3.3C450.7,439.5,450.2,439.7,449.7,440z M447.4,436.7
								C447.4,436.7,447.4,436.7,447.4,436.7l0.1,0.2l0.1,0.2l0.1,0.2l0.1,0.2l0.1,0.2l0.1,0.2l0.1,0.2l0.1,0.2l0.1,0.2l0.1,0.2
								l0.1,0.2l0.1,0.2l0.1,0.2l0.1,0.2l0.1,0.2l0.1,0.2l0,0l0,0l0,0l0,0l0,0l0,0l0,0l0,0l0,0l0,0l0,0l0,0l0,0l0,0l0,0l0,0l0,0l0,0
								l0,0l0,0l0,0l0,0l0,0l0,0l0,0l0,0l0,0l0,0l0,0l0,0l0,0l0,0l-0.1-0.2l-0.1-0.2l-0.1-0.2l-0.1-0.2l-0.1-0.2l-0.1-0.2l-0.1-0.2
								l-0.1-0.2l-0.1-0.2l-0.1-0.2l-0.1-0.2l-0.1-0.2l-0.1-0.2l-0.1-0.2l-0.1-0.2L447.4,436.7L447.4,436.7L447.4,436.7L447.4,436.7
								L447.4,436.7L447.4,436.7L447.4,436.7L447.4,436.7L447.4,436.7L447.4,436.7L447.4,436.7L447.4,436.7L447.4,436.7L447.4,436.7
								L447.4,436.7L447.4,436.7L447.4,436.7"/>
						</defs>
						<clipPath id="SVGID_30_">
							<use xlink:href="#SVGID_29_"  style="overflow:visible;"/>
						</clipPath>
						<g class="st30">
							<path class="st2" d="M448.9,436.2l2.3,3.3c-0.1,0-0.3,0-0.4,0.1l-2.3-3.3C448.7,436.2,448.8,436.2,448.9,436.2"/>
							<path class="st2" d="M448.6,436.2l2.3,3.3c-0.1,0-0.3,0.1-0.4,0.1l-2.3-3.3C448.3,436.3,448.4,436.3,448.6,436.2"/>
							<path class="st2" d="M448.2,436.4l2.3,3.3c-0.1,0-0.2,0.1-0.3,0.1l-2.3-3.3C448,436.4,448.1,436.4,448.2,436.4"/>
							<path class="st2" d="M447.9,436.5l2.3,3.3c-0.1,0-0.2,0.1-0.3,0.2l-2.3-3.3C447.7,436.6,447.8,436.5,447.9,436.5"/>
							<path class="st2" d="M447.6,436.7l2.3,3.3c0,0-0.1,0.1-0.1,0.1c0,0-0.1,0.1-0.1,0.1l-2.3-3.3c0,0,0.1-0.1,0.1-0.1
								C447.5,436.7,447.5,436.7,447.6,436.7"/>
							<path class="st2" d="M447.3,436.8l2.3,3.3c-0.1,0.1-0.2,0.1-0.3,0.2L447,437C447.1,437,447.2,436.9,447.3,436.8"/>
							<path class="st2" d="M447,437l2.3,3.3c-0.1,0.1-0.2,0.2-0.3,0.3l-2.3-3.3C446.8,437.2,446.9,437.1,447,437"/>
							<path class="st2" d="M446.7,437.3l2.3,3.3c-0.1,0.1-0.2,0.2-0.3,0.3l-2.3-3.3C446.5,437.5,446.6,437.4,446.7,437.3"/>
							<path class="st2" d="M446.4,437.6l2.3,3.3c-0.1,0.1-0.2,0.3-0.3,0.4L446,438C446.2,437.9,446.3,437.7,446.4,437.6"/>
							<path class="st2" d="M446,438l2.3,3.3c-0.1,0.2-0.3,0.4-0.4,0.5l-2.3-3.3C445.8,438.4,445.9,438.2,446,438"/>
							<path class="st2" d="M445.7,438.6l2.3,3.3c-0.2,0.3-0.3,0.6-0.5,0.9l-2.3-3.3C445.3,439.1,445.5,438.8,445.7,438.6"/>
							<path class="st2" d="M445.2,439.4l2.3,3.3c-0.1,0.1-0.1,0.3-0.2,0.4c-0.1,0.3-0.2,0.7-0.3,1c-0.1,0.3-0.2,0.6-0.3,0.8
								l-2.3-3.3c0.1-0.3,0.2-0.5,0.3-0.8c0.1-0.3,0.2-0.7,0.3-1C445.1,439.7,445.1,439.6,445.2,439.4"/>
						</g>
					</g>
					<g class="st13">
						<defs>
							<path id="SVGID_31_" class="st13" d="M464.9,423.4l2.3,3.3c0.3,0.4,0.4,1,0.3,1.6c-0.3,1.3-1.7,2.4-3,2.3l-2.3-3.3
								c1.4,0,2.7-1,3-2.3C465.3,424.4,465.2,423.8,464.9,423.4z"/>
						</defs>
						<clipPath id="SVGID_32_">
							<use xlink:href="#SVGID_31_"  style="overflow:visible;"/>
						</clipPath>
						<g class="st31">
							<path class="st15" d="M464.9,423.4l2.3,3.3c0,0,0,0,0,0.1L464.9,423.4C464.9,423.5,464.9,423.4,464.9,423.4"/>
							<path class="st15" d="M465,423.5l2.3,3.3c0,0.1,0.1,0.1,0.1,0.2l-2.3-3.3C465,423.6,465,423.5,465,423.5"/>
							<path class="st15" d="M465.1,423.7l2.3,3.3c0,0.1,0.1,0.1,0.1,0.2l-2.3-3.3C465.1,423.8,465.1,423.7,465.1,423.7"/>
							<path class="st15" d="M465.1,423.9l2.3,3.3c0,0.1,0,0.2,0.1,0.3l-2.3-3.3C465.2,424,465.2,424,465.1,423.9"/>
							<path class="st15" d="M465.2,424.1l2.3,3.3c0,0.1,0,0.2,0,0.4l-2.3-3.3C465.2,424.4,465.2,424.2,465.2,424.1"/>
							<path class="st15" d="M465.2,424.5l2.3,3.3c0,0.2,0,0.3-0.1,0.5c0,0.2-0.1,0.3-0.2,0.5l-2.3-3.3c0.1-0.2,0.1-0.3,0.2-0.5
								C465.2,424.8,465.2,424.7,465.2,424.5"/>
							<path class="st15" d="M465,425.5l2.3,3.3c-0.1,0.1-0.1,0.2-0.2,0.4l-2.3-3.3C464.9,425.7,465,425.6,465,425.5"/>
							<path class="st15" d="M464.8,425.9l2.3,3.3c-0.1,0.1-0.1,0.2-0.2,0.2l-2.3-3.3C464.7,426,464.8,425.9,464.8,425.9"/>
							<path class="st15" d="M464.7,426.1l2.3,3.3c-0.1,0.1-0.1,0.1-0.2,0.2l-2.3-3.3C464.5,426.2,464.6,426.2,464.7,426.1"/>
							<path class="st15" d="M464.5,426.3l2.3,3.3c-0.1,0.1-0.1,0.1-0.2,0.2l-2.3-3.3C464.4,426.4,464.4,426.4,464.5,426.3"/>
							<path class="st15" d="M464.3,426.5l2.3,3.3c-0.1,0.1-0.1,0.1-0.2,0.2l-2.3-3.3C464.2,426.6,464.3,426.5,464.3,426.5"/>
							<path class="st15" d="M464.1,426.6l2.3,3.3c-0.1,0-0.1,0.1-0.2,0.1l-2.3-3.3C464,426.7,464.1,426.7,464.1,426.6"/>
							<path class="st15" d="M463.9,426.8l2.3,3.3c-0.1,0-0.1,0.1-0.2,0.1l-2.3-3.3C463.8,426.9,463.9,426.8,463.9,426.8"/>
							<path class="st15" d="M463.7,426.9l2.3,3.3c-0.1,0-0.2,0.1-0.2,0.1l-2.3-3.3C463.6,427,463.7,427,463.7,426.9"/>
							<path class="st15" d="M463.5,427l2.3,3.3c-0.1,0-0.2,0.1-0.3,0.1l-2.3-3.3C463.3,427.1,463.4,427.1,463.5,427"/>
							<path class="st15" d="M463.2,427.1l2.3,3.3c-0.1,0-0.2,0.1-0.3,0.1l-2.3-3.3C463,427.2,463.1,427.2,463.2,427.1"/>
							<path class="st15" d="M462.9,427.2l2.3,3.3c-0.3,0.1-0.5,0.1-0.8,0.1l-2.3-3.3C462.4,427.3,462.7,427.3,462.9,427.2"/>
						</g>
					</g>
					<g>
						<path class="st15" d="M463.2,422.6c1.4,0,2.3,1.1,2,2.4c-0.3,1.3-1.7,2.4-3,2.3l-0.5,0l-0.9,0l-26.2-0.6l-0.9,0l-0.1,0
							c-1.4,0-2.3-1.1-2-2.4c0.3-1.3,1.7-2.4,3-2.3l1.1,0l0.9,0l24.8,0.6l0.9,0L463.2,422.6z M462.3,426.5c0.9,0,1.7-0.6,1.9-1.5
							c0.2-0.8-0.4-1.5-1.2-1.5l-28.8-0.7c-0.9,0-1.7,0.6-1.9,1.5s0.4,1.5,1.2,1.5L462.3,426.5"/>
					</g>
					<g class="st13">
						<defs>
							<path id="SVGID_33_" class="st13" d="M450.6,436.5l2.3,3.3c-0.4-0.2-0.8-0.3-1.2-0.3c-0.2,0-0.3,0-0.5,0l-2.3-3.3
								c0.2,0,0.3,0,0.5,0C449.8,436.1,450.3,436.3,450.6,436.5z"/>
						</defs>
						<clipPath id="SVGID_34_">
							<use xlink:href="#SVGID_33_"  style="overflow:visible;"/>
						</clipPath>
						<g class="st32">
							<path class="st15" d="M450.6,436.5l2.3,3.3c-0.4-0.2-0.8-0.3-1.2-0.3c-0.2,0-0.3,0-0.5,0l-2.3-3.3c0.2,0,0.3,0,0.5,0
								C449.8,436.1,450.3,436.3,450.6,436.5"/>
						</g>
					</g>
					<g>
						<polygon class="st15" points="450.6,436.5 452.9,439.8 452.4,440.4 450.1,437.1 						"/>
					</g>
					<g>
						<polygon class="st15" points="450.1,437.1 452.4,440.4 452.3,440.5 450,437.2 						"/>
					</g>
					<g class="st13">
						<defs>
							<path id="SVGID_35_" class="st13" d="M440.6,446.2c-0.1,0.9,0.2,1.7,0.6,2.3l-2.3-3.3c-0.4-0.6-0.7-1.3-0.6-2.3
								c0.4,0.5,0.8,1.1,1.1,1.6c0.1,0.1,0.2,0.3,0.3,0.4c0.1,0.2,0.3,0.4,0.4,0.6c0.1,0.1,0.2,0.3,0.3,0.4
								C440.5,446.1,440.6,446.2,440.6,446.2z"/>
						</defs>
						<clipPath id="SVGID_36_">
							<use xlink:href="#SVGID_35_"  style="overflow:visible;"/>
						</clipPath>
						<g class="st33">
							<path class="st23" d="M438.7,441.6l2.3,3.3c-0.2,0.5-0.3,0.9-0.4,1.3c0,0.1,0,0.3,0,0.4l-2.3-3.3c0-0.1,0-0.3,0-0.4
								C438.4,442.5,438.5,442.1,438.7,441.6"/>
							<path class="st23" d="M438.3,443.3l2.3,3.3c0,0.2,0,0.4,0.1,0.5l-2.3-3.3C438.3,443.7,438.3,443.5,438.3,443.3"/>
							<path class="st23" d="M438.4,443.9l2.3,3.3c0,0.1,0.1,0.3,0.1,0.4l-2.3-3.3C438.4,444.2,438.4,444,438.4,443.9"/>
							<path class="st23" d="M438.5,444.3l2.3,3.3c0,0.1,0.1,0.3,0.1,0.4l-2.3-3.3C438.6,444.5,438.5,444.4,438.5,444.3"/>
							<path class="st23" d="M438.6,444.7l2.3,3.3c0.1,0.1,0.1,0.2,0.2,0.4l-2.3-3.3C438.7,444.9,438.7,444.8,438.6,444.7"/>
							<path class="st23" d="M438.8,445l2.3,3.3c0,0.1,0.1,0.1,0.1,0.2l-2.3-3.3C438.9,445.1,438.8,445.1,438.8,445"/>
						</g>
					</g>
					<g class="st13">
						<defs>
							<path id="SVGID_37_" class="st13" d="M450.4,437.5l2.3,3.3c-0.1-0.1-0.2-0.2-0.3-0.4l-2.3-3.3
								C450.2,437.3,450.3,437.4,450.4,437.5z"/>
						</defs>
						<clipPath id="SVGID_38_">
							<use xlink:href="#SVGID_37_"  style="overflow:visible;"/>
						</clipPath>
						<g class="st34">
							<path class="st15" d="M450.4,437.5l2.3,3.3c-0.1-0.1-0.2-0.2-0.3-0.4l-2.3-3.3C450.2,437.3,450.3,437.4,450.4,437.5"/>
						</g>
					</g>
					<g class="st13">
						<defs>
							<path id="SVGID_39_" class="st13" d="M453.5,440.3c-0.2-0.3-0.5-0.6-0.7-0.9c-0.8-1.1-1.5-2.2-2.3-3.3
								c0.3,0.3,0.5,0.6,0.7,0.9C451.9,437.9,452.8,439.3,453.5,440.3z"/>
						</defs>
						<clipPath id="SVGID_40_">
							<use xlink:href="#SVGID_39_"  style="overflow:visible;"/>
						</clipPath>
						<g class="st35">
							<path class="st23" d="M451.3,437l2.3,3.3c-0.2-0.3-0.5-0.6-0.7-0.9c-0.9-0.8-1.9-1.3-3-1.3c-0.4,0-0.8,0-1.3,0.2l-2.3-3.3
								c0.4-0.1,0.9-0.2,1.3-0.2c1.1,0,2.1,0.5,3,1.3C450.8,436.4,451,436.7,451.3,437"/>
						</g>
					</g>
					<g class="st13">
						<defs>
							<path id="SVGID_41_" class="st13" d="M447,444.2c-0.1,0.3-0.2,0.6-0.3,0.8l-2.3-3.3c0.1-0.3,0.2-0.5,0.3-0.8c0,0,0,0,0,0
								C445.5,442,446.2,443.1,447,444.2c-0.8-1.1-1.5-2.2-2.3-3.3c0.1-0.3,0.2-0.7,0.3-1c0.8,1.1,1.5,2.2,2.3,3.3
								C447.1,443.5,447.1,443.8,447,444.2z"/>
						</defs>
						<clipPath id="SVGID_42_">
							<use xlink:href="#SVGID_41_"  style="overflow:visible;"/>
						</clipPath>
						<g class="st36">
							<path class="st2" d="M445.2,439.4l2.3,3.3c-0.1,0.1-0.1,0.3-0.2,0.4c-0.1,0.3-0.2,0.7-0.3,1c-0.1,0.3-0.2,0.6-0.3,0.8
								l-2.3-3.3c0.1-0.3,0.2-0.5,0.3-0.8c0.1-0.3,0.2-0.7,0.3-1C445.1,439.7,445.1,439.6,445.2,439.4"/>
						</g>
					</g>
					<g>
						<polygon class="st15" points="432.6,449.4 432.6,449.4 432.6,449.9 						"/>
					</g>
					<g>
						<polygon class="st15" points="432.6,449.4 434.9,452.7 434.8,453.2 432.6,449.9 						"/>
					</g>
					<g>
						<polygon class="st2" points="460.7,427.3 462.9,430.6 460.8,435.6 458.6,432.3 						"/>
					</g>
					<g>
						<polygon class="st2" points="460.7,427.3 458.6,432.3 434.3,431.7 434.4,426.7 						"/>
					</g>
					<g>
						<polygon class="st15" points="434.2,432.6 436.5,435.9 435.8,452.7 433.5,449.4 						"/>
					</g>
					<g>
						<polygon class="st15" points="459.5,432.3 461.8,435.6 460.8,435.6 458.6,432.3 						"/>
					</g>
					<g class="st13">
						<defs>
							<path id="SVGID_43_" class="st13" d="M442.7,448.7c0,0-0.1,0-0.1,0l-2.3-3.3c0,0,0.1,0,0.1,0
								C441.2,446.5,441.9,447.6,442.7,448.7z"/>
						</defs>
						<clipPath id="SVGID_44_">
							<use xlink:href="#SVGID_43_"  style="overflow:visible;"/>
						</clipPath>
						<g class="st37">
							<path class="st15" d="M440.4,445.4l2.3,3.3c-0.1,0-0.1,0-0.1,0l-2.3-3.3C440.3,445.4,440.4,445.4,440.4,445.4"/>
						</g>
					</g>
					<g class="st13">
						<defs>
							<path id="SVGID_45_" class="st13" d="M442.7,448.7c-0.3-0.3-0.5-0.5-0.7-0.8l-2.3-3.3c0.2,0.3,0.4,0.5,0.7,0.8
								C441.2,446.5,441.9,447.6,442.7,448.7c-0.8-1.1-1.5-2.2-2.3-3.3c0,0,0,0,0,0C441.1,446.4,442,447.7,442.7,448.7z"/>
						</defs>
						<clipPath id="SVGID_46_">
							<use xlink:href="#SVGID_45_"  style="overflow:visible;"/>
						</clipPath>
						<g class="st38">
							<path class="st2" d="M440.4,445.4l2.3,3.3c-0.3-0.3-0.5-0.5-0.7-0.8l-2.3-3.3C439.9,444.9,440.1,445.1,440.4,445.4"/>
						</g>
					</g>
					<g class="st13">
						<defs>
							<path id="SVGID_47_" class="st13" d="M442.7,448.7C442.7,448.7,442.7,448.7,442.7,448.7c-0.8-1.1-1.5-2.2-2.3-3.3
								c0,0,0,0,0,0C441.1,446.4,442,447.7,442.7,448.7z"/>
						</defs>
						<clipPath id="SVGID_48_">
							<use xlink:href="#SVGID_47_"  style="overflow:visible;"/>
						</clipPath>
						<g class="st39">
							<path class="st15" d="M440.4,445.4l2.3,3.3c-0.1,0-0.1,0-0.1,0l-2.3-3.3C440.3,445.4,440.4,445.4,440.4,445.4"/>
						</g>
					</g>
					<g class="st13">
						<defs>
							<path id="SVGID_49_" class="st13" d="M442.7,448.7C442.7,448.7,442.7,448.7,442.7,448.7l-2.3-3.3c0,0,0,0,0,0
								c0.4,0.5,0.8,1.1,1.1,1.6C441.9,447.6,442.3,448.2,442.7,448.7z"/>
						</defs>
						<clipPath id="SVGID_50_">
							<use xlink:href="#SVGID_49_"  style="overflow:visible;"/>
						</clipPath>
						<g class="st40">
							<path class="st2" d="M441,445.3l2.3,3.3c-0.2,0.1-0.4,0.1-0.6,0.1l-2.3-3.3C440.6,445.4,440.8,445.4,441,445.3"/>
						</g>
					</g>
					<g>
						<polygon class="st15" points="459.5,432.3 461.8,435.6 461.7,435.8 459.4,432.5 						"/>
					</g>
					<g>
						<polygon class="st15" points="461.6,427.3 463.9,430.6 461.7,435.8 459.4,432.5 						"/>
					</g>
					<g>
						<polygon class="st15" points="461.6,427.3 459.4,432.5 459.5,432.3 458.6,432.3 460.7,427.3 						"/>
					</g>
					<g>
						<polygon class="st15" points="440.3,445.4 442.5,448.7 442.3,449.6 440,446.3 						"/>
					</g>
					<g>
						<polygon class="st15" points="440.2,446.3 442.5,449.6 442.3,449.6 440,446.3 						"/>
					</g>
					<g class="st13">
						<defs>
							<path id="SVGID_51_" class="st13" d="M446.7,445c-0.7,2-2.5,3.7-4,3.7c-0.8-1.1-1.5-2.2-2.3-3.3c1.5,0,3.3-1.6,4-3.7
								C445.1,442.7,446,444,446.7,445z"/>
						</defs>
						<clipPath id="SVGID_52_">
							<use xlink:href="#SVGID_51_"  style="overflow:visible;"/>
						</clipPath>
						<g class="st41">
							<path class="st2" d="M444.5,441.7l2.3,3.3c-0.1,0.2-0.1,0.4-0.2,0.5l-2.3-3.3C444.3,442.1,444.4,441.9,444.5,441.7"/>
							<path class="st2" d="M444.2,442.2l2.3,3.3c-0.1,0.3-0.3,0.5-0.4,0.8l-2.3-3.3C444,442.8,444.1,442.5,444.2,442.2"/>
							<path class="st2" d="M443.8,443l2.3,3.3c-0.1,0.2-0.2,0.4-0.4,0.5l-2.3-3.3C443.6,443.4,443.7,443.2,443.8,443"/>
							<path class="st2" d="M443.4,443.6l2.3,3.3c-0.1,0.1-0.2,0.3-0.3,0.4l-2.3-3.3C443.2,443.9,443.3,443.7,443.4,443.6"/>
							<path class="st2" d="M443.1,444l2.3,3.3c-0.1,0.1-0.2,0.2-0.3,0.3l-2.3-3.3C442.9,444.2,443,444.1,443.1,444"/>
							<path class="st2" d="M442.8,444.3l2.3,3.3c-0.1,0.1-0.2,0.2-0.3,0.3l-2.3-3.3C442.6,444.5,442.7,444.4,442.8,444.3"/>
							<path class="st2" d="M442.5,444.6l2.3,3.3c-0.1,0.1-0.2,0.1-0.3,0.2l-2.3-3.3C442.3,444.7,442.4,444.6,442.5,444.6"/>
							<path class="st2" d="M442.2,444.8l2.3,3.3c-0.1,0.1-0.2,0.1-0.3,0.2l-2.3-3.3C442,444.9,442.1,444.9,442.2,444.8"/>
							<path class="st2" d="M441.9,445l2.3,3.3c-0.1,0.1-0.2,0.1-0.3,0.1l-2.3-3.3C441.7,445.1,441.8,445,441.9,445"/>
							<path class="st2" d="M441.6,445.1l2.3,3.3c-0.1,0-0.2,0.1-0.3,0.1l-2.3-3.3C441.4,445.2,441.5,445.2,441.6,445.1"/>
							<path class="st2" d="M441.3,445.2l2.3,3.3c-0.1,0-0.2,0.1-0.3,0.1l-2.3-3.3C441.1,445.3,441.2,445.3,441.3,445.2"/>
							<path class="st2" d="M441,445.3l2.3,3.3c-0.2,0.1-0.4,0.1-0.6,0.1l-2.3-3.3C440.6,445.4,440.8,445.4,441,445.3"/>
						</g>
					</g>
					<g>
						<path class="st15" d="M449.4,436.1c0.4,0,0.8,0.1,1.2,0.3l-0.5,0.7l-0.1,0.1c-0.2-0.1-0.5-0.2-0.8-0.2c-0.4,0-0.9,0.1-1.4,0.4
							c-0.8,0.5-1.5,1.5-1.9,2.6c-0.1,0.3-0.2,0.6-0.3,1c-0.1,0.3-0.2,0.6-0.3,0.9c-0.7,2.1-2.3,3.7-4,4.3c-0.4,0.1-0.8,0.2-1.1,0.2
							l-0.2,0l0.3-0.9c0,0,0.1,0,0.1,0c1.5,0,3.3-1.6,4-3.7c0.1-0.3,0.2-0.5,0.3-0.8c0.1-0.3,0.2-0.7,0.3-1c0.5-1.3,1.4-2.5,2.4-3.1
							c0.5-0.3,1-0.5,1.5-0.6C449.1,436.1,449.3,436.1,449.4,436.1z"/>
					</g>
					<g>
						<path class="st2" d="M444.5,441.7c-0.7,2-2.5,3.7-4,3.7c-0.9-0.9-1.3-1.7-1.2-2.5c0.1-1.2,1.1-2.6,3-4.4
							c2.3-2.1,3.9-2.8,5.1-2.8c0.6,0,1.1,0.2,1.6,0.5c-0.5,0.1-1,0.3-1.5,0.6c-1,0.7-1.9,1.8-2.4,3.1c-0.1,0.3-0.2,0.7-0.3,1
							C444.6,441.2,444.5,441.5,444.5,441.7z"/>
					</g>
					<g class="st13">
						<defs>
							<path id="SVGID_53_" class="st13" d="M450,437.2l2.3,3.3c-0.2-0.1-0.5-0.2-0.8-0.2c-0.4,0-0.9,0.1-1.4,0.4
								c-0.8,0.5-1.5,1.5-1.9,2.6c-0.1,0.3-0.2,0.6-0.3,1c-0.1,0.3-0.2,0.6-0.3,0.9c-0.7,2.1-2.3,3.7-4,4.3
								c-0.4,0.1-0.8,0.2-1.1,0.2l-2.3-3.3c0.4,0,0.8-0.1,1.1-0.2c1.6-0.5,3.3-2.2,4-4.3c0.1-0.3,0.2-0.6,0.3-0.9
								c0.1-0.3,0.2-0.7,0.3-1c0.4-1.1,1.1-2,1.9-2.6c0.5-0.3,0.9-0.4,1.4-0.4C449.5,437,449.8,437.1,450,437.2z"/>
						</defs>
						<clipPath id="SVGID_54_">
							<use xlink:href="#SVGID_53_"  style="overflow:visible;"/>
						</clipPath>
						<g class="st42">
							<path class="st15" d="M450,437.2l2.3,3.3c-0.2-0.1-0.5-0.2-0.8-0.2c-0.2,0-0.4,0-0.6,0.1l-2.3-3.3c0.2,0,0.4-0.1,0.6-0.1
								C449.5,437,449.8,437.1,450,437.2"/>
							<path class="st15" d="M448.6,437.1l2.3,3.3c-0.1,0-0.2,0.1-0.3,0.1l-2.3-3.3C448.5,437.1,448.6,437.1,448.6,437.1"/>
							<path class="st15" d="M448.4,437.2l2.3,3.3c-0.1,0-0.1,0.1-0.2,0.1l-2.3-3.3C448.2,437.2,448.3,437.2,448.4,437.2"/>
							<path class="st15" d="M448.2,437.3l2.3,3.3c-0.1,0-0.1,0.1-0.2,0.1l-2.3-3.3C448,437.3,448.1,437.3,448.2,437.3"/>
							<path class="st15" d="M447.9,437.4l2.3,3.3c0,0-0.1,0-0.1,0.1c0,0-0.1,0-0.1,0.1l-2.3-3.3
								C447.8,437.5,447.8,437.5,447.9,437.4C447.9,437.4,447.9,437.4,447.9,437.4"/>
							<path class="st15" d="M447.8,437.5l2.3,3.3c-0.1,0-0.1,0.1-0.2,0.2l-2.3-3.3C447.6,437.6,447.7,437.6,447.8,437.5"/>
							<path class="st15" d="M447.5,437.7l2.3,3.3c-0.1,0.1-0.2,0.1-0.2,0.2l-2.3-3.3C447.4,437.8,447.5,437.7,447.5,437.7"/>
							<path class="st15" d="M447.3,437.9l2.3,3.3c-0.1,0.1-0.2,0.2-0.3,0.2l-2.3-3.3C447.2,438,447.2,437.9,447.3,437.9"/>
							<path class="st15" d="M447.1,438.1l2.3,3.3c-0.1,0.1-0.2,0.2-0.3,0.3l-2.3-3.3C446.9,438.3,447,438.2,447.1,438.1"/>
							<path class="st15" d="M446.8,438.4l2.3,3.3c-0.1,0.1-0.2,0.3-0.3,0.5l-2.3-3.3C446.6,438.7,446.7,438.6,446.8,438.4"/>
							<path class="st15" d="M446.5,438.9l2.3,3.3c-0.1,0.2-0.3,0.5-0.4,0.7l-2.3-3.3C446.2,439.4,446.3,439.1,446.5,438.9"/>
							<path class="st15" d="M446.1,439.6l2.3,3.3c-0.1,0.1-0.1,0.3-0.2,0.4c-0.1,0.3-0.2,0.6-0.3,1c-0.1,0.3-0.2,0.6-0.3,0.9
								c-0.1,0.2-0.2,0.4-0.3,0.6l-2.3-3.3c0.1-0.2,0.2-0.4,0.3-0.6c0.1-0.3,0.2-0.6,0.3-0.9c0.1-0.3,0.2-0.7,0.3-1
								C446,439.9,446,439.7,446.1,439.6"/>
							<path class="st15" d="M445.1,442.5l2.3,3.3c-0.1,0.3-0.3,0.6-0.5,0.9l-2.3-3.3C444.8,443.1,445,442.8,445.1,442.5"/>
							<path class="st15" d="M444.6,443.4l2.3,3.3c-0.1,0.2-0.3,0.4-0.4,0.6l-2.3-3.3C444.3,443.8,444.5,443.6,444.6,443.4"/>
							<path class="st15" d="M444.2,444l2.3,3.3c-0.1,0.2-0.3,0.3-0.4,0.5l-2.3-3.3C443.9,444.4,444,444.2,444.2,444"/>
							<path class="st15" d="M443.8,444.5l2.3,3.3c-0.1,0.1-0.2,0.3-0.4,0.4l-2.3-3.3C443.5,444.8,443.6,444.7,443.8,444.5"/>
							<path class="st15" d="M443.4,444.9l2.3,3.3c-0.1,0.1-0.2,0.2-0.4,0.3l-2.3-3.3C443.1,445.1,443.3,445,443.4,444.9"/>
							<path class="st15" d="M443,445.2l2.3,3.3c-0.1,0.1-0.2,0.2-0.4,0.3l-2.3-3.3C442.8,445.4,442.9,445.3,443,445.2"/>
							<path class="st15" d="M442.7,445.5l2.3,3.3c-0.1,0.1-0.2,0.2-0.3,0.2l-2.3-3.3C442.4,445.6,442.5,445.5,442.7,445.5"/>
							<path class="st15" d="M442.3,445.7l2.3,3.3c-0.1,0.1-0.2,0.1-0.4,0.2l-2.3-3.3C442.1,445.8,442.2,445.8,442.3,445.7"/>
							<path class="st15" d="M442,445.9l2.3,3.3c-0.1,0.1-0.2,0.1-0.4,0.2l-2.3-3.3C441.7,446,441.8,445.9,442,445.9"/>
							<path class="st15" d="M441.6,446l2.3,3.3c-0.1,0-0.1,0-0.2,0.1c-0.1,0-0.2,0-0.2,0.1l-2.3-3.3c0.1,0,0.2,0,0.2-0.1
								C441.5,446.1,441.5,446.1,441.6,446"/>
							<path class="st15" d="M441.2,446.2l2.3,3.3c-0.3,0.1-0.6,0.1-0.9,0.1l-2.3-3.3C440.5,446.3,440.8,446.3,441.2,446.2"/>
						</g>
					</g>
					<g class="st13">
						<defs>
							<path id="SVGID_55_" class="st13" d="M443.6,449.4c-0.1,0-0.1-0.1-0.1-0.2c-0.3-0.5-0.7-1-1-1.5c-0.4-0.5-0.8-1.1-1.1-1.6
								c0.5,0.3,1,0.4,1.6,0.4c0.8,1.1,1.5,2.2,2.3,3.3C444.6,449.8,444.1,449.7,443.6,449.4z"/>
						</defs>
						<clipPath id="SVGID_56_">
							<use xlink:href="#SVGID_55_"  style="overflow:visible;"/>
						</clipPath>
						<g class="st43">
							<path class="st2" d="M444,446.4l2.3,3.3c-0.2,0.1-0.4,0.1-0.7,0.1c-0.1,0-0.3,0-0.4,0c-0.5,0-1.1-0.1-1.6-0.4l-2.3-3.3
								c0.5,0.3,1,0.4,1.6,0.4c0.1,0,0.3,0,0.4,0C443.6,446.5,443.8,446.4,444,446.4"/>
						</g>
					</g>
					<g class="st13">
						<defs>
							<path id="SVGID_57_" class="st13" d="M450.4,437.5l2.3,3.3c1.1,1.7,0.4,3.8-2.3,6.3l-2.3-3.3
								C450.8,441.3,451.5,439.2,450.4,437.5z"/>
						</defs>
						<clipPath id="SVGID_58_">
							<use xlink:href="#SVGID_57_"  style="overflow:visible;"/>
						</clipPath>
						<g class="st44">
							<path class="st2" d="M450.4,437.5l2.3,3.3c0,0,0.1,0.1,0.1,0.1l-2.3-3.3C450.5,437.6,450.4,437.5,450.4,437.5"/>
							<path class="st2" d="M450.5,437.6l2.3,3.3c0.1,0.1,0.1,0.2,0.2,0.3l-2.3-3.3C450.6,437.8,450.5,437.7,450.5,437.6"/>
							<path class="st2" d="M450.6,437.9l2.3,3.3c0,0.1,0.1,0.2,0.1,0.3l-2.3-3.3C450.7,438.1,450.7,438,450.6,437.9"/>
							<path class="st2" d="M450.8,438.2l2.3,3.3c0,0.1,0.1,0.2,0.1,0.4l-2.3-3.3C450.8,438.5,450.8,438.4,450.8,438.2"/>
							<path class="st2" d="M450.9,438.6l2.3,3.3c0,0.2,0,0.3,0,0.5l-2.3-3.3C450.9,438.9,450.9,438.8,450.9,438.6"/>
							<path class="st2" d="M450.9,439.1l2.3,3.3c0,0.5-0.1,1-0.4,1.6l-2.3-3.3C450.8,440.1,450.9,439.6,450.9,439.1"/>
							<path class="st2" d="M450.6,440.6l2.3,3.3c-0.1,0.3-0.3,0.5-0.4,0.8l-2.3-3.3C450.3,441.2,450.4,440.9,450.6,440.6"/>
							<path class="st2" d="M450.1,441.4l2.3,3.3c-0.2,0.2-0.3,0.5-0.5,0.7l-2.3-3.3C449.8,441.9,450,441.7,450.1,441.4"/>
							<path class="st2" d="M449.6,442.2l2.3,3.3c-0.2,0.3-0.4,0.5-0.7,0.8l-2.3-3.3C449.1,442.7,449.4,442.5,449.6,442.2"/>
							<path class="st2" d="M448.9,443l2.3,3.3c-0.2,0.3-0.5,0.5-0.8,0.8l-2.3-3.3C448.4,443.6,448.6,443.3,448.9,443"/>
						</g>
					</g>
					<g>
						<path class="st2" d="M450.1,437.1c1.5,1.7,0.9,3.9-2,6.7c-1.7,1.6-3.3,2.5-4.7,2.7c-0.1,0-0.3,0-0.4,0c-0.5,0-1.1-0.1-1.6-0.4
							c1.6-0.5,3.3-2.2,4-4.3c0.1-0.3,0.2-0.6,0.3-0.9c0.1-0.3,0.2-0.7,0.3-1c0.4-1.1,1.1-2,1.9-2.6c0.5-0.3,0.9-0.4,1.4-0.4
							c0.3,0,0.6,0.1,0.8,0.2L450.1,437.1z"/>
					</g>
					<g class="st13">
						<defs>
							<path id="SVGID_59_" class="st13" d="M450.3,447.1c-1.7,1.6-3.3,2.5-4.7,2.7c-0.8-1.1-1.5-2.2-2.3-3.3c1.4-0.1,3-1,4.7-2.7
								C448.7,444.8,449.6,446.1,450.3,447.1z"/>
						</defs>
						<clipPath id="SVGID_60_">
							<use xlink:href="#SVGID_59_"  style="overflow:visible;"/>
						</clipPath>
						<g class="st45">
							<path class="st2" d="M448.1,443.8l2.3,3.3c-0.1,0.1-0.1,0.1-0.2,0.2l-2.3-3.3C447.9,444,448,443.9,448.1,443.8"/>
							<path class="st2" d="M447.9,444l2.3,3.3c-0.3,0.3-0.6,0.5-0.9,0.8l-2.3-3.3C447.3,444.5,447.6,444.3,447.9,444"/>
							<path class="st2" d="M447,444.8l2.3,3.3c-0.2,0.2-0.5,0.4-0.7,0.5l-2.3-3.3C446.5,445.1,446.8,445,447,444.8"/>
							<path class="st2" d="M446.3,445.3l2.3,3.3c-0.2,0.1-0.4,0.3-0.6,0.4l-2.3-3.3C445.9,445.6,446.1,445.4,446.3,445.3"/>
							<path class="st2" d="M445.7,445.7l2.3,3.3c-0.2,0.1-0.4,0.2-0.5,0.3l-2.3-3.3C445.3,445.9,445.5,445.8,445.7,445.7"/>
							<path class="st2" d="M445.1,446l2.3,3.3c-0.2,0.1-0.4,0.2-0.5,0.2l-2.3-3.3C444.8,446.1,444.9,446.1,445.1,446"/>
							<path class="st2" d="M444.6,446.2l2.3,3.3c-0.2,0.1-0.4,0.1-0.6,0.2l-2.3-3.3C444.2,446.3,444.4,446.3,444.6,446.2"/>
							<path class="st2" d="M444,446.4l2.3,3.3c-0.2,0.1-0.4,0.1-0.7,0.1c-0.1,0-0.3,0-0.4,0c-0.5,0-1.1-0.1-1.6-0.4l-2.3-3.3
								c0.5,0.3,1,0.4,1.6,0.4c0.1,0,0.3,0,0.4,0C443.6,446.5,443.8,446.4,444,446.4"/>
						</g>
					</g>
					<g class="st13">
						<defs>
							<path id="SVGID_61_" class="st13" d="M453.5,440.3c1.4,2,0.5,4.5-2.6,7.4l-2.3-3.3c3.1-2.9,3.9-5.4,2.6-7.4
								C451.9,437.9,452.8,439.3,453.5,440.3z"/>
						</defs>
						<clipPath id="SVGID_62_">
							<use xlink:href="#SVGID_61_"  style="overflow:visible;"/>
						</clipPath>
						<g class="st46">
							<path class="st15" d="M451.3,437l2.3,3.3c0,0.1,0.1,0.1,0.1,0.2l-2.3-3.3C451.3,437.1,451.3,437,451.3,437"/>
							<path class="st15" d="M451.4,437.1l2.3,3.3c0.1,0.1,0.1,0.2,0.2,0.4l-2.3-3.3C451.5,437.4,451.4,437.2,451.4,437.1"/>
							<path class="st15" d="M451.6,437.5l2.3,3.3c0.1,0.1,0.1,0.3,0.2,0.4l-2.3-3.3C451.7,437.7,451.6,437.6,451.6,437.5"/>
							<path class="st15" d="M451.7,437.9l2.3,3.3c0,0.1,0.1,0.3,0.1,0.4l-2.3-3.3C451.8,438.2,451.8,438,451.7,437.9"/>
							<path class="st15" d="M451.8,438.3l2.3,3.3c0,0.2,0.1,0.4,0.1,0.6l-2.3-3.3C451.9,438.7,451.9,438.5,451.8,438.3"/>
							<path class="st15" d="M451.9,438.9l2.3,3.3c0,0.6-0.1,1.2-0.4,1.9l-2.3-3.3C451.7,440.1,451.9,439.5,451.9,438.9"/>
							<path class="st15" d="M451.4,440.8l2.3,3.3c-0.1,0.3-0.3,0.6-0.5,0.9l-2.3-3.3C451.1,441.4,451.3,441.1,451.4,440.8"/>
							<path class="st15" d="M450.9,441.8l2.3,3.3c-0.2,0.3-0.4,0.6-0.6,0.9l-2.3-3.3C450.6,442.3,450.8,442,450.9,441.8"/>
							<path class="st15" d="M450.3,442.6l2.3,3.3c-0.2,0.3-0.5,0.6-0.8,0.9l-2.3-3.3C449.8,443.2,450.1,442.9,450.3,442.6"/>
							<path class="st15" d="M449.5,443.5l2.3,3.3c-0.3,0.3-0.5,0.6-0.8,0.8l-2.3-3.3C449,444.1,449.3,443.8,449.5,443.5"/>
						</g>
					</g>
					<g class="st13">
						<defs>
							<path id="SVGID_63_" class="st13" d="M441.2,448.5l-2.3-3.3c0.3,0.4,0.6,0.7,0.9,1c0.9,0.8,1.8,1.2,2.9,1.2
								c0.2,0,0.4,0,0.6,0c1.7-0.2,3.5-1.2,5.4-3l2.3,3.3c-1.9,1.8-3.7,2.8-5.4,3c-0.2,0-0.4,0-0.6,0c-1.1,0-2.1-0.4-2.9-1.2
								C441.8,449.2,441.4,448.9,441.2,448.5z"/>
						</defs>
						<clipPath id="SVGID_64_">
							<use xlink:href="#SVGID_63_"  style="overflow:visible;"/>
						</clipPath>
						<g class="st47">
							<path class="st15" d="M448.7,444.4l2.3,3.3c-0.1,0.1-0.1,0.1-0.2,0.2l-2.3-3.3C448.6,444.5,448.6,444.4,448.7,444.4"/>
							<path class="st15" d="M448.5,444.6l2.3,3.3c-0.3,0.3-0.6,0.6-0.9,0.8l-2.3-3.3C447.9,445.1,448.2,444.9,448.5,444.6"/>
							<path class="st15" d="M447.5,445.4l2.3,3.3c-0.3,0.2-0.5,0.4-0.8,0.6l-2.3-3.3C447,445.8,447.3,445.6,447.5,445.4"/>
							<path class="st15" d="M446.8,446l2.3,3.3c-0.2,0.2-0.5,0.3-0.7,0.4l-2.3-3.3C446.3,446.3,446.5,446.1,446.8,446"/>
							<path class="st15" d="M446.1,446.4l2.3,3.3c-0.2,0.1-0.4,0.2-0.6,0.3l-2.3-3.3C445.7,446.6,445.9,446.5,446.1,446.4"/>
							<path class="st15" d="M445.4,446.7l2.3,3.3c-0.2,0.1-0.4,0.2-0.6,0.3l-2.3-3.3C445,446.9,445.2,446.8,445.4,446.7"/>
							<path class="st15" d="M444.8,447l2.3,3.3c-0.2,0.1-0.5,0.2-0.7,0.2l-2.3-3.3C444.4,447.2,444.6,447.1,444.8,447"/>
							<path class="st15" d="M444.1,447.2l2.3,3.3c-0.3,0.1-0.6,0.1-0.8,0.1c-0.2,0-0.4,0-0.6,0c-1.1,0-2.1-0.4-2.9-1.2
								c-0.3-0.3-0.6-0.6-0.9-1l-2.3-3.3c0.3,0.4,0.6,0.7,0.9,1c0.9,0.8,1.8,1.2,2.9,1.2c0.2,0,0.4,0,0.6,0
								C443.6,447.4,443.8,447.3,444.1,447.2"/>
						</g>
					</g>
					<g>
						<path class="st15" d="M450.5,436.1c2.3,2.1,1.7,4.9-1.8,8.3c-1.9,1.8-3.7,2.8-5.4,3c-0.2,0-0.4,0-0.6,0
							c-1.1,0-2.1-0.4-2.9-1.2c-0.7-0.7-1.7-1.7-1.5-3.3c0.2-1.4,1.2-3.1,3.3-5c2.3-2.1,4.2-3.2,5.9-3.1
							C448.6,434.8,449.6,435.3,450.5,436.1z M448.1,443.8c2.9-2.8,3.6-5,2-6.7l0.5-0.7c-0.4-0.2-0.8-0.3-1.2-0.3
							c-0.2,0-0.3,0-0.5,0c-0.5-0.3-1-0.5-1.6-0.5c-1.3,0-2.9,0.7-5.1,2.8c-1.9,1.8-2.8,3.2-3,4.4c-0.1,0.9,0.3,1.7,1.2,2.5
							c-0.1,0-0.1,0-0.1,0l-0.3,0.9l0.2,0c0.4,0,0.8-0.1,1.1-0.2c0.5,0.3,1,0.4,1.6,0.4c0.1,0,0.3,0,0.4,0
							C444.8,446.4,446.3,445.5,448.1,443.8"/>
					</g>
					<g>
						<polygon class="st23" points="451.5,449.8 453.8,453.1 435.8,452.7 433.5,449.4 						"/>
					</g>
					<g>
						<polygon class="st15" points="452.1,450.7 454.3,454 434.8,453.6 432.6,450.3 						"/>
					</g>
					<g>
						<polygon class="st15" points="433.5,450.3 435.8,453.6 435.6,459.8 433.4,456.5 						"/>
					</g>
					<g>
						<polygon class="st23" points="458.2,433.2 460.5,436.4 453.8,453.1 451.5,449.8 						"/>
					</g>
					<g>
						<path class="st23" d="M434.2,432.6l24,0.6l-6.7,16.7l-17.9-0.4L434.2,432.6z M448.7,444.4c3.5-3.4,4.1-6.1,1.8-8.3
							c-0.9-0.8-1.9-1.3-3-1.3c-1.7,0-3.7,1-5.9,3.1c-2.1,1.9-3.1,3.6-3.3,5c-0.2,1.5,0.8,2.6,1.5,3.3c0.9,0.8,1.8,1.2,2.9,1.2
							c0.2,0,0.4,0,0.6,0C444.9,447.2,446.8,446.2,448.7,444.4"/>
					</g>
					<g>
						<polygon class="st15" points="459.4,432.5 461.7,435.8 454.7,453.2 452.4,449.9 						"/>
					</g>
					<g>
						<polygon class="st15" points="452.4,449.9 452.4,449.9 452.2,450.4 						"/>
					</g>
					<g>
						<polygon class="st15" points="452.4,449.9 454.7,453.2 454.5,453.7 452.2,450.4 						"/>
					</g>
					<g>
						<polygon class="st15" points="452.4,449.9 454.7,453.2 454.5,453.7 452.2,450.4 						"/>
					</g>
					<g>
						<path class="st15" d="M458.6,432.3l0.9,0l-0.1,0.2l-7,17.3l-0.2,0.5l-0.1,0.4l-19.5-0.5l0-0.3l0-0.6l0.7-17.5l0-0.2l0.9,0
							L458.6,432.3z M451.5,449.8l6.7-16.7l-24-0.6l-0.7,16.8L451.5,449.8"/>
					</g>
					<g>
						<polygon class="st15" points="452.2,450.4 454.5,453.7 454.3,454 452.1,450.7 						"/>
					</g>
					<g>
						<polygon class="st48" points="451.1,450.7 448.6,456.9 433.4,456.5 433.5,450.3 						"/>
					</g>
					<g>
						<polygon class="st48" points="448.6,456.9 450.8,460.2 435.6,459.8 433.4,456.5 						"/>
					</g>
					<g>
						<polygon class="st48" points="451.1,450.7 453.4,454 450.8,460.2 448.6,456.9 						"/>
					</g>
					<g>
						<polygon class="st15" points="449.1,457.8 451.4,461.1 434.6,460.6 432.4,457.3 						"/>
					</g>
					<g>
						<polygon class="st15" points="448.6,456.9 451.1,450.7 452.1,450.7 449.1,457.8 432.4,457.3 432.6,450.3 433.5,450.3 
							433.4,456.5 						"/>
					</g>
					<g>
						<polygon class="st15" points="452.1,450.7 454.3,454 451.4,461.1 449.1,457.8 						"/>
					</g>
				</g>
			</g>
		</g>
	</g>
	<path class="st49" d="M742.8,170.3c-5.8-23-33.5-13.5-42.9,1.5c-14.7,23.4-0.4,55.1,0.1,80.3c0.5,27.3-6.5,49-27.4,68.8
		c-6.9,6.5-14.2,10.5-18.6,19.6c-5.3,10.9-7,39.8,5.5,47.2c11.4,6.8,47,0,60,0c8,0,44.3,5.1,49.5-0.4c5-5.4,1.4-37.7,1.7-44.7
		c1-27,2-53.9,3.1-80.9c1-25.5,2.5-51,2.9-76.5c0-2.9,1.6-10.7,0-12.7C773.5,168.5,748.4,170.7,742.8,170.3z"/>
	<path class="st50" d="M662.3,441.6l4.7,21.5l-8.6,36.5L645.3,574l-10.2,15.1c0,0-29.3-81.1-8.2-143.3L662.3,441.6z"/>
	<path class="st4" d="M890.3,610.1c0,0-39.8-33.3-42.5-74.1l15.4-74.5l-3.6-98.3l-49.7-8.6c0,0-47.9-12.2-90.5,0l-45.1,15
		c0,0-17.1,10.7-24.1,30.8l-31.6,61.2c0,0,3.9,10.2,31.6,11.1l5.5,0.9c0,0-3.3,9.3,0.5,33.5c0,0,1.1,38.9-11.6,47.9l-32.7,50.7
		L890.3,610.1z"/>
	<path class="st50" d="M890.3,485.2c0,0,57.5-50.7,117.2-57.2l0,0c0,0,23.9-3.7,39,12.8c0,0,6.9,7,3.2,13c0,0-4.1-4.9-22.2-4.8
		c0,0,13,5.3,20.2,32.5c0,0,4.7,16.2,2.9,28l-32.2-2.1c0,0-10.7-33.3-29.7-36.3l-65.8,77.1c0,0-29.6,32-45.1,4l-25.9-96
		c0,0,16.3-39.7,58.6-19.8l1.6,32.7"/>
	<path class="st4" d="M871.3,365l32.6,17.2l8.1,67.5c0,0-19-20.2-57,19.5l-6.3-25.4c0,0-11.8-38.9,0-72.4
		C848.7,371.3,851.2,354.4,871.3,365z"/>
	<path class="st51" d="M815.7,355.9l-8.4-1.8c2.7,2.6,5.4,4.8,8.4,6.4V355.9z"/>
	<path class="st50" d="M759.9,394.5c50.1-3.5,48.4-33.9,48.4-33.9l-1.6-6.4c-6.1-5.9-0.9-44.8,8.9-51.3
		c27.3-18.1,43.8-49.2,43.8-49.2c-5.4-53.4-44.2-75.1-44.2-75.1c-83.1-46.1-96.5,25.3-96.5,25.3c6,10-5.4,55.3-5.4,55.3
		c-18.9,49.2,16.2,65.9,16.2,65.9l9.1,4.5v19.4c0,0-2.5,0.2-10,2.3C712.3,397.1,759.9,394.5,759.9,394.5z"/>
	<path class="st50" d="M815.7,360.6v10l6.3-6.5C822,364.1,818.7,362.8,815.7,360.6z"/>
	<path class="st52" d="M807,354.2l-2.7-3.6c0,0,5.7,40.4-44.4,43.9c0,0-47.8,2.7-31.5-43c-2.7,0.8-6.1,1.8-10.3,3.2l-4.5,1.7
		c0,0-5.9,19.2,2.7,35c2.6,4.8,6.6,9.3,12.5,12.8c6.7,4,15.9,6.8,28.4,7.5c0,0,9.5,0.4,21-2.8c12.5-3.4,27.3-11,37.3-27.7v-10.5v-10
		C812.7,358.9,809.7,356.8,807,354.2z"/>
	<path class="st49" d="M712.7,222v17.2c0,0,29.8-28,30.7-55.2c0,0,2.5-39.7-21.9-14.4L712.7,222z"/>
	<path class="st53" d="M754.6,117.7c-24.2,22.3-25.8,60.2-5,85.6c10.4,12.7,26.4,23.4,41.4,29.5c7.2,2.9,18.2,7,26.4,6.1
		c7.3-0.8,11.9-7.2,18.6-6.5c15.6,1.6,13.7,16.1,12.4,24c-3.3,19.6-12.7,20.1-26.8,30.8c-20.5,15.6-16.5,43.1-17.5,65.6
		c-0.9,17.7-8.3,30.1-11.8,46.7c-1.8,8.6-1.7,17.3,7.1,21.6c13,6.3,31-3.9,37-15.4c10.5-20.3,3.7-15,26.4-19.7
		c11.8-2.5,24.4-16.2,29-26.7c5.8-13.3,1.3-30.5-4-44.1c-7.4-18.9-14.8-24.2-14.7-46.2c0.1-14.3,4.6-27.4,6.7-41.3
		c4.6-29.9,1.1-66-17.8-90.5C840.6,109.3,784.5,93.8,754.6,117.7z"/>
	<g>
		
			<image style="overflow:visible;opacity:0.15;" width="297" height="298" xlink:href="CFADF67ACB4CD469.png"  transform="matrix(1 0 0 1 -2331.6189 276.811)">
		</image>
		<g>
			<path class="st2" d="M-2124.7,541.1H-2242c-34.3,0-62.4-28.1-62.4-62.4V361.5c0-34.3,28.1-62.4,62.4-62.4h117.3
				c34.3,0,62.4,28.1,62.4,62.4v117.3C-2062.3,513-2090.4,541.1-2124.7,541.1z"/>
		</g>
	</g>
	<g id="JAoX55.tif">
		
			<image style="overflow:visible;" width="482" height="76" id="Layer_0_4_" xlink:href="CFADF67ACB4CD46A.png"  transform="matrix(1.5403 0 0 1.5403 -2303.832 -214.9734)">
		</image>
	</g>
	<g id="mgpol8.tif">
		
			<image style="overflow:visible;" width="496" height="80" id="Layer_0_5_" xlink:href="CFADF67ACB4CD46B.png"  transform="matrix(1.5403 0 0 1.5403 -2307.332 -97.9099)">
		</image>
	</g>
	<g id="DD9u5v.tif">
		
			<image style="overflow:visible;" width="408" height="386" id="Layer_0_8_" xlink:href="CFADF67ACB4CD46F.png"  transform="matrix(0.5 0 0 0.5 -1521.3628 -219.9019)">
		</image>
	</g>
	<circle class="st54" cx="-1197.4" cy="998.8" r="27.4"/>
	<circle class="st55" cx="-1197.4" cy="1089.9" r="29.8"/>
	<circle class="st56" cx="-1280.5" cy="998.8" r="26.7"/>
	<circle class="st57" cx="-1280.5" cy="1079.8" r="26.7"/>
	<g>
		<path class="st55" d="M-2755.9,105.1h44.2l5-23c14.5,0,26-3.7,34.4-10.7c8.4-7,13.1-27.8,15.6-41.1c1.5-7.8,1.5-7.8,1.5-7.8
			l-86.8,14.4L-2755.9,105.1z"/>
		<path class="st55" d="M-2664.5-17.2c-7.5-9.6-19-15.7-32-15.7c-21.4,0-39,16.9-40.8,38.4l2.2-0.7L-2664.5-17.2z"/>
		<polygon class="st55" points="-2630.3,-19.6 -2763,21.7 -2765.3,22.4 -2772.3,24.6 -2772.3,37.1 -2766,35.9 -2764.3,35.6 
			-2683.9,20.8 -2630.3,13.1 -2630.3,-11.9 		"/>
		<path class="st55" d="M-2695.5-41.4c13.8,0,26.4,5.7,35.4,15l13.1-18.8c-12.9-11.9-29.9-19.1-48.6-19.1
			c-38.8,0-70.6,31.2-72.5,70.5l22.5-0.7C-2743.3-20.8-2721.7-41.4-2695.5-41.4z"/>
	</g>
	<g id="_x33_4vV91.tif">
		
			<image style="overflow:visible;" width="1780" height="1206" id="Layer_0_9_" xlink:href="CFADF67ACB4CD468.png"  transform="matrix(0.5 0 0 0.5 -1451.3628 0)">
		</image>
	</g>
	<g id="YGojsX.tif">
		
			<image style="overflow:visible;" width="1040" height="548" id="Layer_0_10_" xlink:href="CFADF67ACB4CD476.png"  transform="matrix(0.5 0 0 0.5 -1065 629.309)">
		</image>
	</g>
	<path class="st55" d="M-2578,0.2l-14.4,79.1c-0.5,3,1.8,5.8,4.9,5.8h45.1c0,0,0.1,0,0.1-0.1l6.5-37.4c0,0,0-0.1,0.1-0.1l15.3,0.1
		c10.7,0,19.6-3.1,26.5-9.4c6.1-5.5,13.3-27.7,14.7-36.5c0.1-0.6,0.3-1.3,0.4-2l1.7-10l1.1-6.6l-101.2,13.3c0,0-0.1,0-0.1,0.1
		L-2578,0.2z"/>
	<path class="st55" d="M-2517.3-74.5L-2517.3-74.5c-26.5-4.5-51.8,13.6-56.3,40.1l-0.1,0.9l90.3-17.6
		C-2490.5-63.1-2502.6-72-2517.3-74.5z"/>
	<polygon class="st55" points="-2483.4,-47.1 -2573.7,-29.5 -2592.1,-25.9 -2596.1,-5 -2577.4,-7.5 -2476.6,-20.7 -2462.1,-22.9 
		-2456.4,-52.8 	"/>
	<g id="RbvOK7.tif">
		
			<image style="overflow:visible;" width="850" height="654" id="Layer_0_11_" xlink:href="CFADF67ACB4CD477.png"  transform="matrix(0.5 0 0 0.5 -1065 645.1181)">
		</image>
	</g>
	<path class="st55" d="M-2515.5-97.1c-4.1-0.8-8.3-1.2-12.6-1.2c-13,0-25.2,3.9-35.3,10.6c-10.2,6.7-18.4,16.3-23.5,27.6
		c-3.5,8-5.5,16.8-5.5,26.1l0,3.7l13.6-2.7l0-0.2c1.9-11.6,7-21.9,14.3-29.9c12.1-13.2,29.9-20.1,48.3-16.9l0,0
		c7,1.2,13.4,3.8,19.1,7.4l3-16C-2500.4-92.6-2507.7-95.5-2515.5-97.1z"/>
	<g id="auaM0f.tif">
		
			<image style="overflow:visible;" width="600" height="114" id="Layer_0_12_" xlink:href="4249FBF621AB1E4.png"  transform="matrix(0.5 0 0 0.5 -1229.3296 1042.5963)">
		</image>
	</g>
	<ellipse class="st55" cx="-2548.3" cy="209.8" rx="3.8" ry="0"/>
	<path class="st54" d="M-2386.9,783.1l-7.1,40.8h-22.9l20.1-116.1l37.2,0.1c10.2,0.3,18.1,3.9,23.9,10.9c5.8,6.9,8.2,15.9,7.3,26.8
		c-1.1,11.4-5.4,20.5-12.9,27.3c-7.6,6.8-17.2,10.2-28.9,10.2L-2386.9,783.1z M-2383.5,763.6l14.8,0.2c5.7-0.1,10.1-2.3,13.2-6.6
		c3.1-4.3,4.6-10,4.5-17.3c-0.1-3.7-1-6.6-2.6-8.8c-1.6-2.2-3.9-3.4-6.9-3.6l-16.7-0.2L-2383.5,763.6z"/>
	<path class="st54" d="M-2307.6,823.9h-22.9l20.2-116.1h22.9L-2307.6,823.9z"/>
	<path class="st54" d="M-2239.9,792.8c0.5-3.9,0-7.2-1.7-9.9s-5.2-5.2-10.4-7.7c-5.3-2.5-9.7-5.1-13.3-7.9
		c-9.7-7.4-14.2-16.7-13.4-28c0.5-6.5,2.5-12.3,6.1-17.3c3.6-5.1,8.4-9,14.4-11.8c6-2.8,12.4-4.1,19.3-4c9.9,0.2,17.7,3.7,23.3,10.3
		c5.6,6.7,8.2,15.2,7.8,25.6l-22.8-0.1c0.6-10.9-2.9-16.4-10.4-16.6c-3.9-0.1-7.2,1.2-10,3.8c-2.8,2.6-4.5,6-5.1,10.2
		c-0.8,6.2,3.5,11.5,12.9,16c9.4,4.4,16.2,9.4,20.3,14.9c4.6,6.1,6.5,13.6,5.8,22.3c-0.8,10.1-4.8,18.2-12,24.2
		c-7.2,6-16.1,8.9-26.9,8.7c-10.8-0.2-19.3-3.9-25.6-11c-6.3-7.1-9.1-16.2-8.6-27.4l23,0.1c-0.4,6.9,0.5,11.8,2.7,14.7
		c2.2,3,5.7,4.4,10.4,4.4c4.1-0.1,7.4-1.3,9.8-3.9C-2242,800.1-2240.5,796.8-2239.9,792.8z"/>
	<path class="st54" d="M-2122.8,727.4h-27.8l-16.7,96.6h-23l16.7-96.6h-27.4l3.4-19.5h78.2L-2122.8,727.4z"/>
	<path class="st54" d="M-2093.4,825.5c-10.2-0.2-18.3-3.6-24.3-10c-6-6.5-9.2-15.5-9.8-27c-0.2-4-0.1-8,0.5-12.1l3-19.3
		c1.5-10.3,4.5-19.5,9-27.4c4.5-8,10-13.9,16.7-17.8c6.6-3.9,14.1-5.7,22.5-5.6c10.3,0.2,18.4,3.7,24.3,10.6c5.9,6.8,9,16.2,9.5,28
		c0.1,4.5-0.1,8.7-0.7,12.7l-2.6,17.8c-2.4,16-7.8,28.4-16.2,37.3C-2070,821.5-2080.6,825.8-2093.4,825.5z M-2065.7,756.7
		c0.6-5.5,1-9.7,1-12.7c-0.3-11.9-4.5-17.9-12.8-18.3c-6.4-0.3-11.5,2.1-15.4,7.2c-3.9,5.1-6.6,13-8.2,23.9l-2.8,19.5
		c-0.6,5.3-0.9,9.4-0.7,12.4c0.3,11.2,4.7,16.9,13.2,17.3c6.1,0.2,11-2,14.9-6.7c3.9-4.7,6.6-12.3,8.1-23L-2065.7,756.7z"/>
	<path class="st54" d="M-2049.7,812.9c0-3.7,1.2-6.8,3.7-9.3c2.4-2.5,5.5-3.7,9.2-3.7s6.7,1.2,9.1,3.5s3.6,5.2,3.6,8.6
		c0,3.8-1.3,6.9-3.8,9.3c-2.6,2.4-5.6,3.6-9.1,3.6c-3.7,0-6.7-1.1-9-3.4C-2048.3,819.2-2049.5,816.3-2049.7,812.9z"/>
	<path class="st54" d="M-1987.2,823.9h-22.9l20.2-116.1h22.9L-1987.2,823.9z"/>
	<path class="st54" d="M-1932.8,825.5c-10.2-0.2-18.3-3.6-24.3-10c-6-6.5-9.2-15.5-9.8-27c-0.2-4-0.1-8,0.5-12.1l3-19.3
		c1.5-10.3,4.5-19.5,9-27.4c4.5-8,10-13.9,16.7-17.8c6.6-3.9,14.1-5.7,22.5-5.6c10.3,0.2,18.4,3.7,24.3,10.6c5.9,6.8,9,16.2,9.5,28
		c0.1,4.5-0.1,8.7-0.7,12.7l-2.6,17.8c-2.4,16-7.8,28.4-16.2,37.3C-1909.4,821.5-1920,825.8-1932.8,825.5z M-1905.1,756.7
		c0.6-5.5,1-9.7,1-12.7c-0.3-11.9-4.5-17.9-12.8-18.3c-6.4-0.3-11.5,2.1-15.4,7.2c-3.9,5.1-6.6,13-8.2,23.9l-2.8,19.5
		c-0.6,5.3-0.9,9.4-0.7,12.4c0.3,11.2,4.7,16.9,13.2,17.3c6.1,0.2,11-2,14.9-6.7c3.9-4.7,6.6-12.3,8.1-23L-1905.1,756.7z"/>
	<polygon class="st58" points="-2501.3,823.4 -2569.4,823.4 -2548.7,708.1 -2480.7,708.1 	"/>
	<path class="st2" d="M-2545.2,776.6c0,2.8,1,5.3,2.3,6.5h10.8c-1.4-1.1-2.3-3.7-2.3-6.5c0-2.8,1-4.5,2.5-6.5h-10.8
		C-2544.2,772.1-2545.2,773.8-2545.2,776.6z"/>
	<path class="st59" d="M-2445.1,745.3c0-16.4-5.7-30.6-13.9-37.2h-83c8.2,6.6,13.9,20.8,13.9,37.2c0,16.9-6,31.5-14.7,37.8h83
		C-2451.1,776.8-2445.1,762.3-2445.1,745.3z"/>
	<path class="st2" d="M-2457.3,748.6h-56.9c-1.2,0-2.2-1-2.2-2.2l0,0c0-1.2,1-2.2,2.2-2.2h56.9c1.2,0,2.2,1,2.2,2.2l0,0
		C-2455.1,747.6-2456.1,748.6-2457.3,748.6z"/>
	<path class="st2" d="M-2458.2,737.9h-41.5c-1.2,0-2.2-1-2.2-2.2l0,0c0-1.2,1-2.2,2.2-2.2h41.5c1.2,0,2.2,1,2.2,2.2l0,0
		C-2455.9,736.9-2457,737.9-2458.2,737.9z"/>
	<path class="st2" d="M-2460.2,759.1h-31.6c-1.2,0-2.2-1-2.2-2.2l0,0c0-1.2,1-2.2,2.2-2.2h31.6c1.2,0,2.2,1,2.2,2.2l0,0
		C-2457.9,758.1-2459,759.1-2460.2,759.1z"/>
	<g>
		<polygon class="st58" points="-2177.4,477.7 -2245.5,477.7 -2224.8,362.5 -2156.8,362.5 		"/>
		<path class="st2" d="M-2221.3,430.6c0,2.8,1,5.5,2.3,6.5h10.8c-1.4-1-2.3-3.7-2.3-6.5c0-2.8,1-4.5,2.5-6.5h-10.8
			C-2220.3,426.1-2221.3,427.8-2221.3,430.6z"/>
		<path class="st59" d="M-2121.2,399.3c0-16.4-5.7-30.2-13.9-37.2h-83c8.2,7,13.9,20.8,13.9,37.2c0,16.9-6,31.8-14.7,37.8h83
			C-2127.2,431.1-2121.2,416.3-2121.2,399.3z"/>
		<path class="st2" d="M-2133.4,403h-56.9c-1.2,0-2.2-1-2.2-2.2l0,0c0-1.2,1-2.2,2.2-2.2h56.9c1.2,0,2.2,1,2.2,2.2l0,0
			C-2131.2,401.9-2132.2,403-2133.4,403z"/>
		<path class="st2" d="M-2134.3,392.3h-41.5c-1.2,0-2.2-1-2.2-2.2l0,0c0-1.2,1-2.2,2.2-2.2h41.5c1.2,0,2.2,1,2.2,2.2l0,0
			C-2132.1,391.3-2133.1,392.3-2134.3,392.3z"/>
		<path class="st2" d="M-2136.3,413.5h-31.6c-1.2,0-2.2-1-2.2-2.2l0,0c0-1.2,1-2.2,2.2-2.2h31.6c1.2,0,2.2,1,2.2,2.2l0,0
			C-2134.1,412.4-2135.1,413.5-2136.3,413.5z"/>
	</g>
	<rect x="-2521.3" y="1250.7" class="st55" width="840.1" height="276"/>
	<polygon class="st2" points="-2381.3,1452.4 -2449.4,1452.4 -2428.7,1337.1 -2360.7,1337.1 	"/>
	<path class="st55" d="M-2425.2,1405.6c0,2.8,1,5.3,2.3,6.5h10.8c-1.4-1.1-2.3-3.7-2.3-6.5c0-2.8,1-4.5,2.5-6.5h-10.8
		C-2424.2,1401.1-2425.2,1402.8-2425.2,1405.6z"/>
	<path class="st2" d="M-2325.1,1374.3c0-16.4-5.7-30.6-13.9-37.2h-83c8.2,6.6,13.9,20.8,13.9,37.2c0,16.9-6,31.5-14.7,37.8h83
		C-2331.1,1405.8-2325.1,1391.3-2325.1,1374.3z"/>
	<path class="st55" d="M-2337.3,1377.6h-56.9c-1.2,0-2.2-1-2.2-2.2l0,0c0-1.2,1-2.2,2.2-2.2h56.9c1.2,0,2.2,1,2.2,2.2l0,0
		C-2335.1,1376.6-2336.1,1377.6-2337.3,1377.6z"/>
	<path class="st55" d="M-2338.2,1366.9h-41.5c-1.2,0-2.2-1-2.2-2.2l0,0c0-1.2,1-2.2,2.2-2.2h41.5c1.2,0,2.2,1,2.2,2.2l0,0
		C-2335.9,1365.9-2337,1366.9-2338.2,1366.9z"/>
	<path class="st55" d="M-2340.2,1388.1h-31.6c-1.2,0-2.2-1-2.2-2.2l0,0c0-1.2,1-2.2,2.2-2.2h31.6c1.2,0,2.2,1,2.2,2.2l0,0
		C-2337.9,1387.1-2339,1388.1-2340.2,1388.1z"/>
	<g id="FFeH59.tif">
		
			<image style="overflow:visible;" width="356" height="184" id="Layer_0_13_" xlink:href="4249FBF621AB1FC.png"  transform="matrix(0.5 0 0 0.5 -1964.1923 0)">
		</image>
	</g>
	<g id="ogXvZr.tif">
		
			<image style="overflow:visible;" width="1268" height="970" id="Layer_0_14_" xlink:href="4249FBF621AB1FD.png"  transform="matrix(0.5 0 0 0.5 1457.4196 148.6092)">
		</image>
	</g>
	<g id="zjOHMm.tif">
		
			<image style="overflow:visible;" width="782" height="282" id="Layer_0_15_" xlink:href="4249FBF621AB1FE.png"  transform="matrix(0.5 0 0 0.5 -1944.199 1069.2979)">
		</image>
	</g>
	<circle class="st7" cx="-1949" cy="969.1" r="39.5"/>
	<circle class="st59" cx="-1851.8" cy="969.1" r="39.5"/>
	<circle class="st60" cx="-1734.3" cy="969.1" r="39.5"/>
	<circle class="st59" cx="1496.9" cy="-223.4" r="39.5"/>
	<circle class="st60" cx="1614.4" cy="-223.4" r="39.5"/>
	<circle class="st55" cx="-1641.8" cy="969.1" r="39.5"/>
	<circle class="st54" cx="-1508.8" cy="969.1" r="39.5"/>
	<g id="_x39_XdwO9_1_">
		
			<image style="overflow:visible;" width="800" height="600" id="_x39_XdwO9" xlink:href="4249FBF621AB1E0.jpg"  transform="matrix(0.6657 0 0 0.6657 1504.7737 633.6092)">
		</image>
	</g>
	<g id="BktJKG.tif">
		
			<image style="overflow:visible;" width="698" height="676" id="Layer_0_16_" xlink:href="4249FBF621AB1E8.png"  transform="matrix(0.5 0 0 0.5 1457.4196 -171.8068)">
		</image>
	</g>
	<g id="wmGoWx.tif">
		
			<image style="overflow:visible;" width="590" height="484" id="Layer_0_17_" xlink:href="4249FBF621AB1E9.png"  transform="matrix(1.4356 0 0 1.4356 1859.9666 -123.8068)">
		</image>
	</g>
	<polygon class="st61" points="949.9,635.9 11,635.9 41.9,593.9 980.7,593.9 	"/>
	<g>
		
			<image style="overflow:visible;opacity:0.15;" width="154" height="96" xlink:href="4249FBF621AB1EA.png"  transform="matrix(1 0 0 1 295.6681 305.0981)">
		</image>
		<g>
			<polygon class="st55" points="400,378.1 304,378.1 331.2,313.5 427.2,313.5 			"/>
		</g>
	</g>
	<g>
		
			<image style="overflow:visible;opacity:0.15;" width="154" height="95" xlink:href="4249FBF621AB1EB.png"  transform="matrix(1 0 0 1 90.6681 358.0981)">
		</image>
		<g>
			<polygon class="st62" points="195.3,430.9 99.3,430.9 126.5,366.3 222.4,366.3 			"/>
		</g>
	</g>
	<rect x="13.2" y="635.9" class="st63" width="937.2" height="21.2"/>
	<path class="st64" d="M572,113.6c-2.4-0.7-6.6-1.3-11.3-1.3c-4.1,0-7.8,0.6-10.3,1.1l-12.7,25.7h46L572,113.6z"/>
	<ellipse class="st4" cx="560.2" cy="138.6" rx="22.4" ry="4.4"/>
	<path class="st64" d="M470,74.8c-4.7-1.4-12.7-2.5-21.9-2.5c-8,0-15.2,1.1-20,2.2l-24.5,49.6h89L470,74.8z"/>
	<ellipse class="st4" cx="447.3" cy="123.2" rx="43.4" ry="8.5"/>
	<path class="st64" d="M273.6,29.9c-8.7-2.6-23.6-4.7-40.5-4.7c-14.8,0-28.1,1.9-37,3.9l-45.4,91.9h164.9L273.6,29.9z"/>
	<ellipse class="st4" cx="231.6" cy="119.6" rx="80.4" ry="15.7"/>
	<g id="p9DqM5.tif">
		
			<image style="overflow:visible;" width="1280" height="638" id="Layer_0" xlink:href="4249FBF621AB1ED.png"  transform="matrix(1 0 0 1 -1280 1337.098)">
		</image>
	</g>
	<g>
		<g>
			
				<image style="overflow:visible;opacity:0.15;" width="156" height="96" xlink:href="4249FBF621AB206.png"  transform="matrix(1 0 0 1 589.668 377.0981)">
			</image>
			<g>
				<polygon class="st2" points="695,450.4 599,450.4 626.2,385.8 722.2,385.8 				"/>
				<polygon class="st3" points="695,450.4 599,450.4 626.2,385.8 722.2,385.8 				"/>
			</g>
		</g>
		<polygon class="st4" points="627.6,441.3 609.3,441.3 621.6,412.3 639.8,412.3 		"/>
		<polygon class="st8" points="655.2,441.3 637,441.3 653.2,403.5 671.4,403.5 		"/>
		<polygon class="st7" points="685.2,441.3 666.9,441.3 685.1,398.6 703.3,398.6 		"/>
	</g>
	<path class="st65" d="M329.7,432.6l10-46.5c0,0-2.5-3.5,17-3c0,0,26,4,30-18.7c0,0,8.5-34.8,0-55.8c0,0-12-8.5-7.7-27
		c0,0,6.2-32-15.3-46.5c0,0-24-14-41.5,7.5l-38,61l-1.5,93.9l-8.9,52.6l55.4-8L329.7,432.6z"/>
	<path class="st65" d="M372.4,445.8c0,0-1.9-18.7-33.9-18.7H186.7c0,0-23.9,0.9-26.6,47.6l196.8,26.5
		C356.8,501.2,393.5,496.6,372.4,445.8z"/>
	<path class="st65" d="M160,483.1l-33.9,89.1c0,0-9.2,16.5,0,32l57.7,74.1l43-26.5l-52.4-64.1l35.9-73.2L160,483.1z"/>
	<path class="st59" d="M320.7,419.8l27.3,1.7c0,0-31.3,21-29,66.3l-43-2.3C276,485.4,285,439.4,320.7,419.8z"/>
	<path class="st65" d="M503.6,451.5l30.5-7.7l15.7,8.3c0,0,4.5,2.5,1,6.9c0,0-10,1.4-14.8-3.9l-18,7.6L503.6,451.5z"/>
	<path class="st59" d="M174.5,626.1l-55.3,80.5c0,0,17.5,29.5,9.5,45.5c0,0,4.5,35,55.5,20.5c0,0,36-16,49.5,1.5
		c0,0,45.7,39,81.4,5.5c0,0,19.1-16,41.1-5.5l20.1-23l-48.1-113c0,0,35.5-38,28.5-70l-14-85l-155-16.5c0,0-32.7-4.8-31.1,25.6
		L174.5,626.1z"/>
	<ellipse class="st66" cx="205.3" cy="430.6" rx="63.6" ry="52.5"/>
	<path class="st66" d="M340.3,310.4c0,0-31.1-54.9,22.9-63.1c0,0,34.8-16.5-9.2-59.5c0,0-91.5-65.9-162,44.8c0,0-43,55.8-5.5,131.8
		c0,0,54,98.8,108.9,58.6c0,0,31.1-22.9,28.4-65c0,0-36.8-31.3-13.7-48.5c0,0,13.7-10.1,24.7,14.6l8.2-5.5L340.3,310.4z"/>
	<path class="st60" d="M186.6,364.4l-13.3,20.9c0,0,79.2-12.9,95.7,45.3C268.9,430.6,287.2,366.2,186.6,364.4z"/>
	<g>
		
			<image style="overflow:visible;opacity:0.15;" width="226" height="133" xlink:href="4249FBF621AB209.png"  transform="matrix(1 0 0 1 426.6681 267.0981)">
		</image>
		<g>
			<g>
				<polygon class="st67" points="586.5,377.1 436.3,377.1 478.8,276 629,276 				"/>
				<polygon class="st68" points="614.2,293.8 480.9,293.8 485.7,284.1 618.9,284.1 				"/>
				<polygon class="st68" points="604.2,314.1 470.9,314.1 475.7,304.3 608.9,304.3 				"/>
				<polygon class="st68" points="595.2,332.7 461.9,332.7 466.7,322.9 599.9,322.9 				"/>
				<polygon class="st68" points="587.4,351.2 454.2,351.2 458.9,341.4 592.2,341.4 				"/>
				<polygon class="st68" points="579.9,368.1 446.7,368.1 451.4,358.3 584.7,358.3 				"/>
				<path class="st69" d="M458.7,357.1c5.9-11.8,14.1-24.8,24.8-32.2c18.9-13.1,26.1,3.8,44.5,2.9c13.6-0.7,20-14.5,30-22.6
					c4.8-4,12.7-11.4,19.5-10.5c7.4,1,8.2,10.2,14.7,11"/>
				<line class="st70" x1="489.2" y1="289" x2="458.9" y2="357.1"/>
				<line class="st69" x1="575.9" y1="358.3" x2="456.8" y2="358.3"/>
			</g>
		</g>
	</g>
	<path class="st65" d="M474,498.1l-64,58.7l-14.3-84.3c0,0-5-57.3-53.3-49.7c0,0-33.3,24-26.3,61.7l47,118.3c0,0,11.7,32.3,31.5,33
		c0,0,25.5,4.3,53.5-33.7l59.2-83l13.8-13.7c0,0,19.4-5.3,18.3-30.3c0,0-12.6-17.7-20.9-20.7c0,0-9-10.3-19-0.3
		C499.3,454.1,477.7,490.1,474,498.1z"/>
	<g>
		<g>
			
				<image style="overflow:visible;opacity:0.15;" width="155" height="97" xlink:href="4249FBF621AB20A.png"  transform="matrix(1 0 0 1 553.668 487.0981)">
			</image>
			<g>
				<polygon class="st2" points="658.6,561.1 562.6,561.1 589.8,496.5 685.8,496.5 				"/>
				<polygon class="st3" points="658.6,561.1 562.6,561.1 589.8,496.5 685.8,496.5 				"/>
			</g>
		</g>
		
			<ellipse transform="matrix(0.7436 -0.6686 0.6686 0.7436 -194.0396 550.8635)" class="st56" cx="621.2" cy="528.4" rx="20.4" ry="17.7"/>
		<g>
			<polyline class="st56" points="613.7,528.1 615.7,534 631.2,522.1 			"/>
			<path class="st2" d="M615.7,535.5c-0.1,0-0.3,0-0.4-0.1c-0.5-0.1-0.8-0.5-1-1l-2-5.9c-0.3-0.8,0.2-1.6,0.9-1.9
				c0.8-0.3,1.6,0.2,1.9,0.9l1.3,3.9l13.8-10.6c0.7-0.5,1.6-0.4,2.1,0.3c0.5,0.7,0.4,1.6-0.3,2.1l-15.5,11.9
				C616.3,535.4,616,535.5,615.7,535.5z"/>
		</g>
	</g>
	<path class="st71" d="M127,710.4l39.3-51.3c0,0,18.7-21.3,14.7,0l-39.3,80C141.7,739.1,148.3,707.8,127,710.4z"/>
	<path class="st71" d="M197.7,755.8l24.8-73.3c0,0,22.6-38,29.9,3.3l-7.3,81.3C245,767.1,231,735.5,197.7,755.8z"/>
	<path class="st71" d="M307.2,767.1l4.8-82.7c0,0,5.8-21.3,20.1,0l23.6,72.7C355.7,757.1,323.4,727.1,307.2,767.1z"/>
	<circle class="st1" cx="-9.3" cy="-412.9" r="43.2"/>
	<circle class="st72" cx="-2.9" cy="-436.1" r="3.1"/>
	<circle class="st72" cx="-33" cy="-405.4" r="3.1"/>
	<circle class="st72" cx="-25.5" cy="-431.8" r="4.3"/>
	<circle class="st72" cx="-13.7" cy="-391.3" r="4.3"/>
	<circle class="st72" cx="13.3" cy="-415.1" r="4.3"/>
	<circle class="st72" cx="9" cy="-392.7" r="4.3"/>
	<circle class="st72" cx="-6.1" cy="-415.1" r="6.5"/>
	<g>
		<circle class="st1" cx="987.9" cy="-484.4" r="20.5"/>
		<circle class="st60" cx="998.9" cy="-487.4" r="1.5"/>
		<circle class="st60" cx="985.8" cy="-476.6" r="1.5"/>
		<circle class="st60" cx="996.8" cy="-476.7" r="2"/>
		<circle class="st60" cx="977.6" cy="-482.3" r="2"/>
		<circle class="st60" cx="988.9" cy="-495.1" r="2"/>
		<circle class="st60" cx="978.3" cy="-493" r="2"/>
		<circle class="st60" cx="988.9" cy="-485.9" r="3.1"/>
	</g>
	<ellipse class="st1" cx="339.7" cy="-358.9" rx="80" ry="16.3"/>
	<path class="st1" d="M346.2-355.9h-11.2c-21.4,0-38.8-17.4-38.8-38.8v-16.7H385v16.7C385-373.3,367.6-355.9,346.2-355.9z"/>
	<ellipse class="st1" cx="340.6" cy="-413.4" rx="44.4" ry="6.6"/>
	<path class="st1" d="M401.3-385.9H385v-27.5h21.5c3.3,0,6,2.7,6,6v10.3C412.5-390.9,407.5-385.9,401.3-385.9z"/>
	<circle class="st73" cx="398.8" cy="-399.7" r="5"/>
	<path class="st1" d="M681.2-446.4h-40.3l16.3,110.5c0,1.7,10.8,3.3,24,3.3s24-1.8,24-2.8h0l16.3-111H681.2z"/>
	<path class="st1" d="M725.2-442.9h-89c-3,0-5.5-2.5-5.5-5.5v0c0-3,2.5-5.5,5.5-5.5h89c3,0,5.5,2.5,5.5,5.5v0
		C730.7-445.4,728.2-442.9,725.2-442.9z"/>
	<polygon class="st1" points="644.7,-423.4 717.7,-423.4 710.8,-373.4 651.7,-373.4 	"/>
	<path class="st1" d="M1025.2-446.4h-40.3l16.3,110.5c0,1.7,10.8,3.3,24,3.3c13.3,0,24-1.8,24-2.8h0l16.3-111H1025.2z"/>
	<polygon class="st1" points="988.7,-423.4 1061.7,-423.4 1054.8,-373.4 995.7,-373.4 	"/>
	<line class="st72" x1="989.8" y1="-415.4" x2="1061.7" y2="-415.4"/>
	<line class="st72" x1="996.1" y1="-364.4" x2="1053.2" y2="-364.4"/>
	<path class="st74" d="M989.7-448.2c0,0-20.2-19.7,9.2-24.2c0,0,30.3-0.1,39.3,11.9v12.5L989.7-448.2z"/>
	<path class="st74" d="M1007.3-483.2c0,0-21.8,6.7-11.2,16.3c0,0,4.5,6.7,18.5,5.7c0,0,15.7-1,15.3,12.8h26.7c0,0-1-22.9-12.7-24
		C1044-472.4,1009.7-475.9,1007.3-483.2z"/>
	<path class="st74" d="M1014.8-492.5c0,0-18.4,3.2-9.4,14.2c0,0,7.6,8.9,26.3,9.3c0,0,16.1,2.6,14.7,16.6h19.3c0,0,9-20.4-23.3-30.8
		L1014.8-492.5z"/>
	<path class="st74" d="M1017.3-506.6c0,0-24.1,17.3,5.7,25.7c0,0,21.4-2.8,26.1,0.2c0,0,5.3-6.9-24.4-17.6
		C1024.7-498.2,1016.3-501.6,1017.3-506.6z"/>
	<path class="st1" d="M1069.2-442.9h-89c-3,0-5.5-2.5-5.5-5.5v0c0-3,2.5-5.5,5.5-5.5h89c3,0,5.5,2.5,5.5,5.5v0
		C1074.7-445.4,1072.2-442.9,1069.2-442.9z"/>
	<path class="st74" d="M1051.8-469.2L1051.8-469.2c2.3,1.4,5.3,0.5,6.7-1.8c7.1-12.4,27.5-47.7,27.5-47.7l-8.3-4.8l-27.6,47.8
		C1048.7-473.4,1049.5-470.5,1051.8-469.2z"/>
</g>
</svg>
