<?xml version="1.0" encoding="UTF-8"?>
<svg width="100px" height="98px" viewBox="0 0 100 98" version="1.1" xmlns="http://www.w3.org/2000/svg" xmlns:xlink="http://www.w3.org/1999/xlink">
    <!-- Generator: Sketch 49.3 (51167) - http://www.bohemiancoding.com/sketch -->
    <title>002-call</title>
    <desc>Created with Sketch.</desc>
    <defs></defs>
    <g id="Landing-page" stroke="none" stroke-width="1" fill="none" fill-rule="evenodd">
        <g id="Desktop-HD" transform="translate(-671.000000, -4791.000000)" fill="#30DD9D" fill-rule="nonzero">
            <g id="002-call" transform="translate(671.000000, 4791.000000)">
                <path d="M69.2923361,51.1746597 C69.0985246,51.4640376 69.0985246,51.7534156 69.0016188,52.1392528 C68.9047131,53.3932239 69.8737705,54.5507357 71.1335451,54.6471951 C72.3933197,54.7436544 73.5561885,53.7790612 73.6530943,52.5250901 C73.6530943,52.2357121 73.6530943,51.9463342 73.75,51.4640376 C73.75,50.981741 73.75,50.6923631 73.75,50.4029851 C73.75,47.605665 73.2654713,44.9048041 72.3933197,42.3004026 C71.2304508,38.9243265 69.1954303,35.9340877 66.7727869,33.4261455 C63.768709,30.4359067 60.086291,28.3138017 55.9193442,27.1562899 C53.9812295,26.6739933 51.8493033,26.3846154 49.8142828,26.3846154 C49.1359426,26.3846154 48.4576024,26.3846154 47.6823565,26.4810747 C47.0040164,26.577534 46.3256762,26.6739933 45.647336,26.7704526 C44.3875614,26.9633713 43.5154098,28.2173424 43.806127,29.3748542 C43.9999385,30.6288253 45.2597131,31.4969591 46.4225819,31.2075812 C47.0040164,31.1111219 47.488545,31.0146626 48.0699795,31.0146626 C48.1668852,31.0146626 48.263791,31.0146626 48.3606967,31.0146626 C48.8452254,31.0146626 49.3297541,30.9182032 49.8142828,30.9182032 C55.1440983,30.9182032 60.086291,33.0403082 63.5748975,36.6093029 C67.0635041,40.0818383 69.1954303,44.8083448 69.2923361,50.1136072 L69.2923361,50.3065258 C69.2923361,50.6923631 69.2923361,50.981741 69.2923361,51.1746597 Z" id="Shape"></path>
                <path d="M82.1039281,53.3681631 C82.0065593,54.6358478 82.9802475,55.8060184 84.246042,55.9035326 C85.5118366,56.0010468 86.6802624,55.0259047 86.7776312,53.7582199 C86.875,52.6855636 86.875,51.6129072 86.875,50.5402509 C86.875,48.3949382 86.6802624,46.3471398 86.3881559,44.2993413 C85.1223614,36.4982044 81.3249776,29.4771811 75.9696929,24.1138994 C69.8354576,17.9705041 61.6564773,13.9724214 52.6011776,13.2898219 C51.6274895,13.1923077 50.5564325,13.1923077 49.5827444,13.1923077 C48.5116874,13.1923077 47.4406305,13.1923077 46.3695735,13.2898219 C45.2985166,13.3873361 44.2274596,13.4848503 43.1564027,13.6798788 C41.8906081,13.8749072 41.0142888,15.1425919 41.3063952,16.3127625 C41.5011328,17.5804472 42.7669274,18.4580751 43.9353532,18.1655325 C44.6169349,18.0680183 45.2011478,17.9705041 45.8827295,17.8729899 C46.1748359,17.8729899 46.4669423,17.7754757 46.7590488,17.7754757 C47.7327369,17.6779614 48.7064251,17.6779614 49.5827444,17.6779614 C52.893284,17.6779614 56.0090861,18.1655325 59.0275193,19.0431604 C64.2854352,20.6033878 68.9591383,23.4313 72.756522,27.2343542 C75.8723241,30.354809 78.4039132,34.1578633 80.059183,38.2534602 C81.5197153,41.9590002 82.3960346,46.0545972 82.3960346,50.3452225 C82.3960346,50.6377651 82.3960346,51.027822 82.3960346,51.3203646 C82.2012969,52.1004783 82.1039281,52.6855636 82.1039281,53.3681631 Z" id="Shape"></path>
                <path d="M85.2357957,14.9240119 C76.0081681,5.65746855 63.3808881,0 49.3937472,0 C47.9367533,0 46.4797595,0.0975425612 45.0227657,0.195085122 C43.5657718,0.292627684 42.108778,0.487712806 40.6517841,0.78034049 C39.3890561,0.975425612 38.5148598,2.24347891 38.8062586,3.41398964 C39.0005244,4.68204294 40.2632524,5.55992599 41.4288475,5.26729831 C42.108778,5.16975574 42.6915755,5.07221318 43.371506,4.97467062 C44.0514364,4.87712806 44.7313669,4.7795855 45.4112973,4.7795855 C46.7711583,4.68204294 48.0338863,4.58450038 49.3937472,4.58450038 C62.0210272,4.58450038 73.4827121,9.75425612 81.8361434,18.0453738 C90.0924419,26.3364915 95.2404868,37.8465138 95.2404868,50.6245893 C95.2404868,51.3073872 95.2404868,52.0877277 95.2404868,52.7705256 C95.2404868,53.355781 95.1433539,53.9410364 95.1433539,54.6238343 C95.0462209,55.8918876 96.0175502,57.0623983 97.2802782,57.1599409 C98.5430062,57.2574834 99.7086012,56.2820578 99.8057342,55.0140045 C99.9028671,53.5508661 100,52.0877277 100,50.7221318 C100,36.7735456 94.3662905,24.0930126 85.2357957,14.9240119 Z" id="Shape"></path>
                <path d="M96.4290035,74.1599958 L79.2232186,64.9148168 C73.4879569,61.8006513 73.2935413,63.8443224 67.2666561,70.2672889 C65.8085388,71.8243716 63.0867197,75.9117139 59.8788615,75.1331725 C53.1715216,73.4787721 40.6317122,63.649687 36.5489836,59.1730741 C34.6048271,57.0320852 26.2449542,46.8137295 26.1477464,43.5049286 C25.9533307,38.4444096 37.0350227,35.9141501 33.4383332,26.2797004 L25.7589151,9.05447217 C18.565536,-7.48953234 -1.55648363,18.9808749 0.0960493872,31.3402194 C4.37319367,61.8006513 57.7402893,111.043394 87.4858836,94.7913426 C94.0960157,91.093271 103.039136,78.1500204 96.4290035,74.1599958 Z" id="Shape"></path>
            </g>
        </g>
    </g>
</svg>