<?xml version="1.0" encoding="UTF-8"?>
<svg width="20px" height="21px" viewBox="0 0 20 21" version="1.1" xmlns="http://www.w3.org/2000/svg" xmlns:xlink="http://www.w3.org/1999/xlink">
    <!-- Generator: Sketch 49.3 (51167) - http://www.bohemiancoding.com/sketch -->
    <title>Shape</title>
    <desc>Created with Sketch.</desc>
    <defs></defs>
    <g id="Landing-page" stroke="none" stroke-width="1" fill="none" fill-rule="evenodd">
        <g id="Desktop-HD" transform="translate(-1130.000000, -4822.000000)" fill="#251EC3" fill-rule="nonzero">
            <g id="footer" transform="translate(0.000000, 4755.000000)">
                <path d="M1140,67.5773676 C1134.47725,67.5773676 1130,72.0546225 1130,77.5773676 C1130,83.10008 1134.47725,87.5773676 1140,87.5773676 C1145.52271,87.5773676 1150,83.10008 1150,77.5773676 C1150,72.0546225 1145.52271,67.5773676 1140,67.5773676 Z M1140.92,80.6055376 C1140.18092,80.6055376 1139.48546,80.1973676 1139.24637,79.7337075 C1139.24637,79.7337075 1138.84908,81.3446225 1138.76454,81.6555376 C1138.62271,82.1809951 1138.34908,82.7055702 1138.09542,83.1210278 C1137.73363,83.5937402 1137.31634,83.2428578 1137.26634,82.8119101 C1137.25,82.3319101 1137.26725,81.7637402 1137.38634,81.2464853 C1137.51817,80.6792304 1138.26725,77.4364853 1138.26725,77.4364853 C1138.26725,77.4364853 1138.04817,76.9901127 1138.04817,76.3301127 C1138.04817,75.2937402 1138.63637,74.5201127 1139.36908,74.5201127 C1139.9918,74.5201127 1140.29271,74.9983153 1140.29271,75.5701127 C1140.29271,76.2091977 1139.89363,77.1655702 1139.68817,78.0510278 C1139.51634,78.7928578 1140.05271,79.3974003 1140.76908,79.3974003 C1142.06634,79.3974003 1142.94092,77.6955702 1142.94092,75.6801127 C1142.94092,74.1474003 1141.92997,73.0010278 1140.09092,73.0010278 C1138.01363,73.0010278 1136.71908,74.5828251 1136.71908,76.3491977 C1136.71908,76.9582827 1136.89454,77.3882827 1137.17092,77.7201127 C1137.29729,77.8728578 1137.31546,77.9346552 1137.26908,78.1101454 C1137.23637,78.2392304 1137.16092,78.5483153 1137.13,78.6710278 C1137.08454,78.8483153 1136.94363,78.9110604 1136.78725,78.8456029 C1135.83,78.4464853 1135.38454,77.3764853 1135.38454,76.1746879 C1135.38454,74.1883153 1137.02546,71.8064853 1140.27908,71.8064853 C1142.89363,71.8064853 1144.61454,73.7383153 1144.61454,75.8119428 C1144.61542,78.5564526 1143.1218,80.6055376 1140.92,80.6055376 Z" id="Shape"></path>
            </g>
        </g>
    </g>
</svg>